<?xml version="1.0" encoding="UTF-8" standalone="no"?>
<svg
   xmlns:dc="http://purl.org/dc/elements/1.1/"
   xmlns:cc="http://creativecommons.org/ns#"
   xmlns:rdf="http://www.w3.org/1999/02/22-rdf-syntax-ns#"
   xmlns:svg="http://www.w3.org/2000/svg"
   xmlns="http://www.w3.org/2000/svg"
   xmlns:sodipodi="http://sodipodi.sourceforge.net/DTD/sodipodi-0.dtd"
   xmlns:inkscape="http://www.inkscape.org/namespaces/inkscape"
   version="1.1"
   id="svg2"
   xml:space="preserve"
   width="508.76001"
   height="172.08"
   viewBox="0 0 508.76001 172.08"
   sodipodi:docname="Amerijet Company Logo.eps"><metadata
     id="metadata8"><rdf:RDF><cc:Work
         rdf:about=""><dc:format>image/svg+xml</dc:format><dc:type
           rdf:resource="http://purl.org/dc/dcmitype/StillImage" /></cc:Work></rdf:RDF></metadata><defs
     id="defs6" /><sodipodi:namedview
     pagecolor="#ffffff"
     bordercolor="#666666"
     borderopacity="1"
     objecttolerance="10"
     gridtolerance="10"
     guidetolerance="10"
     inkscape:pageopacity="0"
     inkscape:pageshadow="2"
     inkscape:window-width="640"
     inkscape:window-height="480"
     id="namedview4" /><g
     id="g10"
     inkscape:groupmode="layer"
     inkscape:label="ink_ext_XXXXXX"
     transform="matrix(1.3333333,0,0,-1.3333333,0,172.08)"><g
       id="g12"
       transform="scale(0.1)"><path
         d="m 3138.42,553.207 c -16.89,0 -30.62,-13.734 -30.62,-30.613 0,-17.176 13.45,-30.625 30.62,-30.625 16.77,0 29.9,13.449 29.9,30.625 0,16.597 -13.69,30.613 -29.9,30.613 z m 0,-72 c -23.21,0 -41.38,18.18 -41.38,41.387 0,22.816 18.57,41.375 41.38,41.375 22.04,0 40.66,-18.949 40.66,-41.375 0,-22.824 -18.24,-41.387 -40.66,-41.387"
         style="fill:#1673c3;fill-opacity:1;fill-rule:nonzero;stroke:none"
         id="path14" /><path
         d="m 3138.42,544.195 h 2.17 c 3.59,0 6.47,0 8.63,-1.445 1.44,-0.723 3.6,-1.445 4.32,-3.594 1.44,-2.168 2.16,-4.328 2.16,-6.484 0,-2.883 -1.44,-5.762 -2.88,-7.207 -2.16,-2.149 -5.05,-3.594 -9.36,-4.317 1.44,-0.722 2.88,-1.437 3.6,-2.16 1.44,-1.433 2.88,-2.879 4.33,-5.761 l 7.18,-11.512 h -6.47 l -5.76,9.355 c -1.44,2.157 -2.88,4.317 -4.32,5.762 -0.72,1.434 -1.43,2.156 -2.88,2.879 0,0 0,0 -0.72,0 v 5.754 h 0.72 c 2.88,0 5.04,0.723 6.49,0.723 1.43,0.722 2.14,1.445 2.87,2.878 0.72,0.723 1.44,2.161 1.44,3.606 0,2.156 -0.72,3.594 -2.17,5.039 -1.43,1.445 -4.31,2.156 -7.18,2.156 h -2.17 z m -16.56,-42.48 v 42.48 h 16.56 v -4.328 h -10.8 v -14.402 h 10.8 v -5.754 c -0.72,0.715 -0.72,0.715 -1.44,0.715 -0.72,0 -1.43,0 -2.88,0 h -6.48 v -18.711 h -5.76"
         style="fill:#1673c3;fill-opacity:1;fill-rule:evenodd;stroke:none"
         id="path16" /><path
         d="m 467.223,1211.63 h 56.879 l 659.518,-666.724 -63.36,-0.711 -653.037,667.435"
         style="fill:#ffffff;fill-opacity:1;fill-rule:evenodd;stroke:none"
         id="path18" /><path
         d="m 1127.46,765.23 h 292.32 l 275.04,-287.285 h -70.56 l -215.28,219.61 h -33.84 l 194.4,-219.61 h -70.56 l -202.32,218.164 h -38.16 l 189.36,-218.164 h -74.88 L 1127.46,765.23"
         style="fill:#1673c3;fill-opacity:1;fill-rule:evenodd;stroke:none"
         id="path20" /><path
         d="m 1496.1,765.23 h 204.49 l 51.83,-62.636 -111.6,0.722 40.31,-47.531 108.01,-1.433 50.4,-58.321 h -107.27 l 42.48,-46.797 h 95.04 l 71.99,-72.726 H 1760.34 L 1496.1,765.23"
         style="fill:#1673c3;fill-opacity:1;fill-rule:evenodd;stroke:none"
         id="path22" /><path
         d="m 2056.98,726.352 h 68.4 l 217.44,-249.844 h -73.44 l -212.4,249.844"
         style="fill:#1673c3;fill-opacity:1;fill-rule:evenodd;stroke:none"
         id="path24" /><path
         d="m 2139.06,906.352 84.24,0.718 390.24,-430.562 h -215.28 l -159.12,174.961 70.57,10.078 106.55,-121.68 45.36,1.438 -322.56,365.047"
         style="fill:#1673c3;fill-opacity:1;fill-rule:evenodd;stroke:none"
         id="path26" /><path
         d="m 2398.26,765.23 h 743.76 l 51.12,-66.964 h -302.4 L 3065.7,476.508 h -97.93 L 2781.3,697.555 h -231.12 l 40.32,-43.203 95.76,1.433 53.28,-51.121 h -100.09 l 51.85,-66.953 h 109.44 l 52.56,-61.203 h -195.84 l -259.2,288.722"
         style="fill:#1673c3;fill-opacity:1;fill-rule:evenodd;stroke:none"
         id="path28" /><path
         d="m 2044.75,759.469 2.14,45.359 -41.03,18 42.48,10.801 2.88,41.039 22.32,-34.555 43.92,10.797 -27.36,-35.281 23.04,-37.441 -41.04,15.839 -27.35,-34.558"
         style="fill:#1673c3;fill-opacity:1;fill-rule:evenodd;stroke:none"
         id="path30" /><path
         d="M 716.313,193.781 C 1823.46,-124.621 4731.62,204.391 3208.29,501.715 3993.35,409.328 3924.05,227.82 3525.33,142.879 2414.9,-93.6992 1256.43,-8.14844 716.313,193.781"
         style="fill:#ee293d;fill-opacity:1;fill-rule:evenodd;stroke:none"
         id="path32" /><path
         d="M 372.5,793.141 305,1290.64 h 227.5 l 787.5,-813.749 -232.5,1.25 -366.25,97.5 -260,-406.25 -63.75,348.75 -397.5,245 715,-1.25 66.25,-55 -506.25,-2.5 205,-135 25,-170 177.5,270 183.75,-50 -85,87.5 -66.25,55 -281.25,306.249 37.5,-274.999 H 372.5"
         style="fill:#1673c3;fill-opacity:1;fill-rule:evenodd;stroke:none"
         id="path34" /><path
         d="m 398.75,1211.89 h 67.5 L 1117.5,544.391 h -46.25 l -672.5,667.499"
         style="fill:#ed1c24;fill-opacity:1;fill-rule:evenodd;stroke:none"
         id="path36" /><path
         d="m 466.25,1211.89 h 58.125 l 659.375,-666.874 -64.38,-1.25 -653.12,668.124"
         style="fill:#ffffff;fill-opacity:1;fill-rule:evenodd;stroke:none"
         id="path38" /><path
         d="M 1956.88,765.016 H 1745 l 237.5,-288.75 h 93.75 l -99.17,121.039 -51.25,56.875 -44.16,45.211 h 54.58 l 48.75,-45 -59.17,-0.211 51.25,-56.875 57.92,0.211 111.88,-120.625 90.62,0.625 -153.75,156.875 -43.75,5 3.34,35.828 -86.46,89.797"
         style="fill:#1673c3;fill-opacity:1;fill-rule:evenodd;stroke:none"
         id="path40" /><path
         d="m 734.586,264.91 v 140.223 h 18.559 V 264.91 h -18.559"
         style="fill:#1673c3;fill-opacity:1;fill-rule:nonzero;stroke:none"
         id="path42" /><path
         d="m 785.664,264.91 v 140.223 h 19.031 l 73.649,-110.094 v 110.094 h 17.789 V 264.91 H 877.102 L 803.453,375.098 V 264.91 h -17.789"
         style="fill:#1673c3;fill-opacity:1;fill-rule:nonzero;stroke:none"
         id="path44" /><path
         d="m 962.988,264.91 v 123.672 h -46.195 v 16.551 H 1027.93 V 388.582 H 981.547 V 264.91 h -18.559"
         style="fill:#1673c3;fill-opacity:1;fill-rule:nonzero;stroke:none"
         id="path46" /><path
         d="m 1047.35,264.91 v 140.223 h 101.39 v -16.551 h -82.84 v -42.941 h 77.58 v -16.457 h -77.58 v -47.723 h 86.09 V 264.91 h -104.64"
         style="fill:#1673c3;fill-opacity:1;fill-rule:nonzero;stroke:none"
         id="path48" /><path
         d="m 1196.46,343.246 h 39.89 c 8.48,0 15.11,0.875 19.9,2.633 4.78,1.754 8.41,4.555 10.9,8.414 2.48,3.855 3.73,8.051 3.73,12.578 0,6.629 -2.41,12.086 -7.22,16.356 -4.82,4.273 -12.42,6.406 -22.82,6.406 h -44.38 z m -18.55,-78.336 v 140.223 h 62.17 c 12.5,0 22,-1.262 28.5,-3.781 6.51,-2.52 11.7,-6.965 15.59,-13.344 3.89,-6.375 5.83,-13.422 5.83,-21.137 0,-9.945 -3.21,-18.332 -9.65,-25.152 -6.44,-6.824 -16.39,-11.16 -29.85,-13.008 4.91,-2.363 8.65,-4.688 11.19,-6.981 5.42,-4.976 10.56,-11.191 15.4,-18.652 l 24.39,-38.168 h -23.34 l -18.55,29.172 c -5.42,8.418 -9.88,14.859 -13.39,19.32 -3.5,4.465 -6.64,7.59 -9.42,9.375 -2.78,1.786 -5.59,3.028 -8.46,3.731 -2.11,0.445 -5.55,0.672 -10.34,0.672 h -21.52 v -62.27 h -18.55"
         style="fill:#1673c3;fill-opacity:1;fill-rule:nonzero;stroke:none"
         id="path50" /><path
         d="m 1318.89,264.91 v 140.223 h 19.03 l 73.65,-110.094 v 110.094 h 17.79 V 264.91 h -19.03 l -73.65,110.188 V 264.91 h -17.79"
         style="fill:#1673c3;fill-opacity:1;fill-rule:nonzero;stroke:none"
         id="path52" /><path
         d="m 1485.6,322.492 h 47.54 l -14.63,38.832 c -4.47,11.797 -7.79,21.489 -9.96,29.078 -1.78,-8.992 -4.3,-17.922 -7.55,-26.785 z m -40.46,-57.582 53.85,140.223 h 19.99 l 57.39,-140.223 h -21.14 l -16.35,42.469 h -58.64 l -15.4,-42.469 h -19.7"
         style="fill:#1673c3;fill-opacity:1;fill-rule:nonzero;stroke:none"
         id="path54" /><path
         d="m 1612.33,264.91 v 123.672 h -46.19 v 16.551 h 111.14 v -16.551 h -46.39 V 264.91 h -18.56"
         style="fill:#1673c3;fill-opacity:1;fill-rule:nonzero;stroke:none"
         id="path56" /><path
         d="m 1699.47,264.91 v 140.223 h 18.56 V 264.91 h -18.56"
         style="fill:#1673c3;fill-opacity:1;fill-rule:nonzero;stroke:none"
         id="path58" /><path
         d="m 1764.22,332.914 c 0,-16.894 4.54,-30.203 13.63,-39.93 9.09,-9.722 20.48,-14.586 34.2,-14.586 13.96,0 25.45,4.911 34.48,14.731 9.02,9.816 13.53,23.75 13.53,41.797 0,11.414 -1.93,21.379 -5.79,29.89 -3.85,8.516 -9.49,15.11 -16.93,19.797 -7.42,4.688 -15.76,7.032 -25.01,7.032 -13.13,0 -24.43,-4.512 -33.9,-13.536 -9.47,-9.023 -14.21,-24.086 -14.21,-45.195 z m -19.13,0.289 c 0,23.277 6.25,41.496 18.75,54.664 12.5,13.164 28.63,19.75 48.4,19.75 12.94,0 24.61,-3.094 35.01,-9.277 10.39,-6.188 18.31,-14.809 23.76,-25.875 5.45,-11.063 8.18,-23.606 8.18,-37.637 0,-14.219 -2.87,-26.937 -8.61,-38.164 -5.74,-11.223 -13.87,-19.715 -24.39,-25.484 -10.52,-5.77 -21.87,-8.66 -34.05,-8.66 -13.19,0 -25,3.191 -35.39,9.57 -10.39,6.371 -18.26,15.07 -23.62,26.109 -5.36,11.031 -8.04,22.699 -8.04,35.004"
         style="fill:#1673c3;fill-opacity:1;fill-rule:nonzero;stroke:none"
         id="path60" /><path
         d="m 1902.91,264.91 v 140.223 h 19.03 l 73.65,-110.094 v 110.094 h 17.79 V 264.91 h -19.03 L 1920.7,375.098 V 264.91 h -17.79"
         style="fill:#1673c3;fill-opacity:1;fill-rule:nonzero;stroke:none"
         id="path62" /><path
         d="m 2069.62,322.492 h 47.53 l -14.63,38.832 c -4.46,11.797 -7.78,21.489 -9.95,29.078 -1.79,-8.992 -4.31,-17.922 -7.56,-26.785 z m -40.46,-57.582 53.85,140.223 H 2103 l 57.38,-140.223 h -21.13 l -16.36,42.469 h -58.63 l -15.4,-42.469 h -19.7"
         style="fill:#1673c3;fill-opacity:1;fill-rule:nonzero;stroke:none"
         id="path64" /><path
         d="M 2174.44,264.91 V 405.133 H 2193 V 281.461 h 69.06 V 264.91 h -87.62"
         style="fill:#1673c3;fill-opacity:1;fill-rule:nonzero;stroke:none"
         id="path66" /><path
         d="m 2345.57,322.492 h 47.53 l -14.63,38.832 c -4.47,11.797 -7.79,21.489 -9.95,29.078 -1.79,-8.992 -4.31,-17.922 -7.56,-26.785 z m -40.46,-57.582 53.85,140.223 h 19.99 l 57.38,-140.223 h -21.13 l -16.36,42.469 h -58.63 L 2324.8,264.91 h -19.69"
         style="fill:#1673c3;fill-opacity:1;fill-rule:nonzero;stroke:none"
         id="path68" /><path
         d="m 2454.32,264.91 v 140.223 h 18.55 V 264.91 h -18.55"
         style="fill:#1673c3;fill-opacity:1;fill-rule:nonzero;stroke:none"
         id="path70" /><path
         d="m 2524.42,343.246 h 39.89 c 8.47,0 15.11,0.875 19.89,2.633 4.78,1.754 8.42,4.555 10.91,8.414 2.49,3.855 3.73,8.051 3.73,12.578 0,6.629 -2.41,12.086 -7.23,16.356 -4.81,4.273 -12.41,6.406 -22.81,6.406 h -44.38 z m -18.55,-78.336 v 140.223 h 62.17 c 12.5,0 22,-1.262 28.5,-3.781 6.51,-2.52 11.7,-6.965 15.59,-13.344 3.89,-6.375 5.84,-13.422 5.84,-21.137 0,-9.945 -3.22,-18.332 -9.67,-25.152 -6.43,-6.824 -16.39,-11.16 -29.83,-13.008 4.9,-2.363 8.63,-4.688 11.19,-6.981 5.42,-4.976 10.55,-11.191 15.39,-18.652 l 24.39,-38.168 h -23.34 l -18.55,29.172 c -5.42,8.418 -9.88,14.859 -13.39,19.32 -3.51,4.465 -6.65,7.59 -9.42,9.375 -2.78,1.786 -5.6,3.028 -8.47,3.731 -2.1,0.445 -5.55,0.672 -10.32,0.672 h -21.53 v -62.27 h -18.55"
         style="fill:#1673c3;fill-opacity:1;fill-rule:nonzero;stroke:none"
         id="path72" /><path
         d="m 2646.28,264.91 v 140.223 h 18.55 V 281.461 h 69.07 V 264.91 h -87.62"
         style="fill:#1673c3;fill-opacity:1;fill-rule:nonzero;stroke:none"
         id="path74" /><path
         d="m 2759.15,264.91 v 140.223 h 18.56 V 264.91 h -18.56"
         style="fill:#1673c3;fill-opacity:1;fill-rule:nonzero;stroke:none"
         id="path76" /><path
         d="m 2810.22,264.91 v 140.223 h 19.04 l 73.65,-110.094 v 110.094 h 17.78 V 264.91 h -19.03 l -73.64,110.188 V 264.91 h -17.8"
         style="fill:#1673c3;fill-opacity:1;fill-rule:nonzero;stroke:none"
         id="path78" /><path
         d="m 2952.27,264.91 v 140.223 h 101.38 v -16.551 h -82.83 v -42.941 h 77.57 v -16.457 h -77.57 v -47.723 h 86.08 V 264.91 h -104.63"
         style="fill:#1673c3;fill-opacity:1;fill-rule:nonzero;stroke:none"
         id="path80" /><path
         d="m 3076.22,309.961 17.5,1.535 c 0.83,-7.019 2.76,-12.769 5.79,-17.266 3.03,-4.5 7.74,-8.128 14.11,-10.902 6.37,-2.777 13.55,-4.16 21.52,-4.16 7.08,0 13.33,1.051 18.75,3.152 5.42,2.098 9.45,4.989 12.1,8.657 2.64,3.668 3.96,7.668 3.96,12.003 0,4.399 -1.27,8.243 -3.82,11.528 -2.56,3.281 -6.76,6.039 -12.62,8.269 -3.77,1.465 -12.09,3.746 -24.97,6.844 -12.88,3.09 -21.9,6.004 -27.07,8.75 -6.69,3.504 -11.68,7.856 -14.97,13.055 -3.28,5.195 -4.92,11.015 -4.92,17.457 0,7.074 2,13.691 6.03,19.844 4.01,6.152 9.88,10.824 17.6,14.011 7.71,3.192 16.28,4.782 25.72,4.782 10.4,0 19.56,-1.668 27.5,-5.02 7.94,-3.348 14.04,-8.27 18.32,-14.773 4.27,-6.504 6.56,-13.875 6.88,-22.098 l -17.79,-1.34 c -0.96,8.859 -4.19,15.559 -9.71,20.086 -5.51,4.527 -13.66,6.793 -24.43,6.793 -11.23,0 -19.41,-2.055 -24.53,-6.172 -5.14,-4.113 -7.71,-9.074 -7.71,-14.875 0,-5.031 1.82,-9.18 5.45,-12.43 3.58,-3.253 12.9,-6.586 27.98,-9.996 15.08,-3.414 25.43,-6.394 31.04,-8.945 8.16,-3.758 14.19,-8.523 18.07,-14.297 3.9,-5.769 5.84,-12.422 5.84,-19.941 0,-7.461 -2.14,-14.492 -6.4,-21.09 -4.28,-6.602 -10.41,-11.731 -18.42,-15.402 -8,-3.661 -17.01,-5.5 -27.02,-5.5 -12.69,0 -23.32,1.851 -31.9,5.55 -8.57,3.7 -15.3,9.258 -20.17,16.692 -4.89,7.426 -7.46,15.824 -7.71,25.199"
         style="fill:#1673c3;fill-opacity:1;fill-rule:nonzero;stroke:none"
         id="path82" /></g></g></svg>
