<?xml version="1.0" encoding="utf-8"?>
<!-- Generator: Adobe Illustrator 24.1.3, SVG Export Plug-In . SVG Version: 6.00 Build 0)  -->
<svg version="1.1"
	 id="svg8" inkscape:version="0.92.3 (2405546, 2018-03-11)" sodipodi:docname="aeromexico.svg" xmlns:cc="http://creativecommons.org/ns#" xmlns:dc="http://purl.org/dc/elements/1.1/" xmlns:inkscape="http://www.inkscape.org/namespaces/inkscape" xmlns:rdf="http://www.w3.org/1999/02/22-rdf-syntax-ns#" xmlns:sodipodi="http://sodipodi.sourceforge.net/DTD/sodipodi-0.dtd" xmlns:svg="http://www.w3.org/2000/svg"
	 xmlns="http://www.w3.org/2000/svg" xmlns:xlink="http://www.w3.org/1999/xlink" x="0px" y="0px" viewBox="0 0 362.4 65.2"
	 style="enable-background:new 0 0 362.4 65.2;" xml:space="preserve">
<style type="text/css">
	.st0{fill:#0C2F59;}
	.st1{fill:#E41D25;}
</style>
<sodipodi:namedview  bordercolor="#666666" borderopacity="1.0" fit-margin-bottom="0.3" fit-margin-left="0.3" fit-margin-right="0.3" fit-margin-top="0.3" id="base" inkscape:current-layer="layer1" inkscape:cx="451.73565" inkscape:cy="-10.201303" inkscape:document-units="px" inkscape:pageopacity="0" inkscape:pageshadow="2" inkscape:window-height="1001" inkscape:window-maximized="1" inkscape:window-width="1920" inkscape:window-x="-9" inkscape:window-y="-9" inkscape:zoom="1.4" pagecolor="#00ffff" showgrid="false" units="px">
	</sodipodi:namedview>
<g id="layer1" transform="translate(-42.229916,-105.38279)" inkscape:groupmode="layer" inkscape:label="Layer 1">
	<g id="g10" transform="matrix(0.16287104,0,0,-0.16287104,42.309291,122.55951)">
		<g id="g12" transform="scale(0.1)">
			<path id="path14" inkscape:connector-curvature="0" class="st0" d="M22089.8-1957.8c-71.2,0-126.8,55.1-126.8,130.1
				c0,73.6,55.6,129.3,126.8,129.3c70.8,0,126-55.7,126-129.3C22215.8-1902.8,22160.6-1957.8,22089.8-1957.8z M22089.8-1672.4
				c-85.6,0-158.3-65.9-158.3-155.3c0-90,72.7-155.7,158.3-155.7c85,0,157.3,65.7,157.3,155.7
				C22247.1-1738.4,22174.8-1672.4,22089.8-1672.4L22089.8-1672.4"/>
			<path id="path16" inkscape:connector-curvature="0" class="st0" d="M22056.7-1816.9v55.4h36.9c18.8,0,39.1-3.6,39.1-26.3
				c0-27.5-20.3-29.1-43.2-29.1H22056.7z M22114.7-1838.5c26.5,3,46.5,16.9,46.5,48.9c0,35.6-20.6,51.2-63.4,51.2h-68.2v-179.3h27.1
				v77.7h31.4l47.4-77.7h30.5L22114.7-1838.5L22114.7-1838.5"/>
			<path id="path18" inkscape:connector-curvature="0" class="st0" d="M3504.5-164c79-0.9,133.1-24.3,177-45
				c91.5-43.4,198.6-93.3,332.8-158.2c0-0.6,216.3,154.2,227.9,162.2c73.9,49.9,144.8,11.9,167.7-31.2
				c80.8-152.5,229.7-468.6,308.3-758c9-34.9-1.9-88.4-56.2-105.2c-31.4-8.8-85.2-16.7-141.4-23.8c-78.5-9.7-77.1-73.3-77.1-111.5
				c0-47.7,0.6-366.6,0.6-475.9c1.8-67-49.3-286.1-302.4-286.1c-16.9,0-579.8,0-577.3,0c-218.4-0.9-394,183.9-395.2,380.3
				c-0.2,129.2,0,1028,0.3,1128.7C3170.6-293.1,3345.4-161.8,3504.5-164L3504.5-164"/>
			<path id="path20" inkscape:connector-curvature="0" class="st0" d="M2591.1-1996.7H713.9v-208.5h2202.6
				c0,0,79.9,184.4,79.9,388.6c0,10.8,0.7,1415.1,0.7,1415.1c0,111.5,45.4,300.4,274.8,350.3c6.3,1.4,12.7,2.8,19.4,4
				c650,153.5,1319.9,13.7,1698.2-149.1c67.8-33.1,83.3,21.1,81.3,44.2c7.8,318-234,680.6-678.5,702.4
				c-361.5,8.3-561.8-121.2-635.2-157c-6.2-3.2-15-1.8-23.4,7.5c-66.5,65.6-208.7,164.1-368.7,209.6c-24,5.3-25.8,40.8,1.4,43.6
				c341.7,36.9,641.5-2.3,766-22.3c28.9-5,50.8,11.9,39.3,38.4c-9.2,20.4-16.1,29.4-30.7,60.6c-30.5,65.7-110.9,134.9-213.2,163.6
				c-269,74.8-726.9,139.4-1134.4,141.8c-459,2.9-943-88.7-1065.3-116.6c-29.2-6.2-70.3-16.8-77.8-18c-33.4-6.8-41.4-38.7-26.6-54.1
				c8.8-9.7,34.3-31.2,46.4-46c15.1-19,22-46-6.6-74.1l-849-762.2h580.9h6.6c37.7,1.3,73.7-33.4,73.7-76.8
				c0.4-38.9-31.3-76.3-70.9-76.3h-4.6H645.4L414.5-398h987.9l5.6,0.5c38.9-0.5,69-40,68.3-77c-0.3-33.6-28.9-75-68.3-75l-6-0.6
				H245.3L14-758.6h1995.3l6.4-0.2c39.3,0,69.8-40.7,70.1-76c0.6-40.8-28.3-77.4-68.6-77.2h-5.4H13.5v-208.5h1993.7l6-0.5
				c45.8-0.4,72.5-41.7,72.3-79.2c-0.3-35.2-33.5-72.5-73.2-72.5h-5.3H13.5v-209.7h2602.7h6.3c43.4-1.2,71-38.4,69.8-79.2
				c-1.2-35.3-30.5-72.5-69.5-72.5h-5.8H714.7v-210.1h1876.4l39.9,0.5c35.1,0,65.4-43.7,65.4-79c0-35.5-31-73.9-66.4-73.9
				L2591.1-1996.7L2591.1-1996.7"/>
			<path id="path22" inkscape:connector-curvature="0" class="st0" d="M1415.1-2717.3l-0.2-213.6c0,0,282.1-0.9,442.9,0
				c396.6,3.1,656.4,213.6,656.4,213.6H1415.1L1415.1-2717.3"/>
			<path id="path24" inkscape:connector-curvature="0" class="st0" d="M1415.1-2358.1l-0.2-209H2689
				c58.7,59.9,134.2,168.7,154.3,208.5L1415.1-2358.1L1415.1-2358.1"/>
			<path id="path26" inkscape:connector-curvature="0" class="st0" d="M21099.2-1775.1c-14.6-0.9-28.6-1.7-41.9-2.3
				c-13.4,0.6-27.2,0.8-41.8,2.3c-79,7.1-141.5,35.3-198.6,79.1c-16.1,13.6-32.1,28.7-47.7,46.4c-83.2,93.7-127.9,253.4-138.6,379.1
				c-24.3,294.1,34,723.9,395.2,752.6c9.2,0.9,18.1,0.9,27.5,0.9c0.9,0,2.5,0.4,4,0.4c1.5,0,2.7-0.4,4.3-0.4c8.7,0,18,0,26.7-0.9
				c361.6-28.7,420.4-458.5,396.1-752.6c-10.6-125.8-51.2-282.2-138.9-379.1c-15.9-17.7-31.9-32.9-47.5-46.4
				C21240.5-1739.8,21173.1-1769.4,21099.2-1775.1z M21963.6-1067.5c-0.3,4-0.8,7.2-1.2,11.7c-7.3,161.9-61,307.1-136.9,419.5
				c-158,247.6-434.9,381.2-768.2,376.8c-332.9,4.4-610.1-129.2-768.3-376.8c-75.8-112.4-129.6-257.6-137-419.5
				c-0.3-4.5-0.9-7.7-1.2-11.7c-45.1-543.5,271.6-919.4,811.7-962.9c32.6-2.6,63.7-3.9,94.9-3.6c31-0.3,62.8,0.9,95.1,3.6
				C21692.3-1986.9,22009.1-1611,21963.6-1067.5L21963.6-1067.5"/>
			<path id="path28" inkscape:connector-curvature="0" class="st0" d="M18372.8-663.1c0,134.4,13,370.8,13,370.8h-0.2h-442.4h-0.8
				c0,0,13.5-236.4,13.5-370.8l-0.9-968.7c0-134.7-12.5-363.2-12.5-363.2h1.4h441.1h0.8c0,0-11.9,228.5-11.9,363.2L18372.8-663.1
				L18372.8-663.1"/>
			<path id="path30" inkscape:connector-curvature="0" class="st0" d="M15786.8-1731.8c-92.9,0-214,0-308-0.5
				c-4.3,171.1-6.2,336.5-6.5,486.5l-0.9,23.5h0.5c0,1.7,0,2.8,0,4h511.3v240.9h-510.5c1.2,259.3,6.2,429.7,6.2,429.7l634.5,0.1
				V-292c-443.2-1.6-1084.3,0-1084.3,0s9.4-235.1,9.4-369.6v-966.9c0-123-7.6-332.1-9.1-366.3h1125.8l1.2,270
				C16156.3-1724.7,15934.6-1731.8,15786.8-1731.8L15786.8-1731.8"/>
			<path id="path32" inkscape:connector-curvature="0" class="st0" d="M8405.2-1731.8c-92.4,0-214.4,0-308.2-0.5
				c-4.2,171.1-6,336.5-6.8,486.5l-0.3,23.5h0.3c0,1.7,0,2.8,0,4h511.3v240.9H8091c1.4,259.3,6,429.7,6,429.7l634.9,0.1V-292
				c-443.5-1.6-1084.2,0-1084.2,0s9.4-235.1,9.4-369.6v-966.9c0-123-7.7-332.1-9-366.3h1125.8l0.9,270
				C8774.8-1724.7,8553-1731.8,8405.2-1731.8L8405.2-1731.8"/>
			<path id="path34" inkscape:connector-curvature="0" class="st0" d="M17235.7-1079.1l488.5,786.8h-338.6l-2.5-7.5
				c-102.7-176.9-230.2-391.4-281.2-470.1l-19.6-31.5L16799-292.2h-508.8l490.7-881.2l-511.2-821.5h336.7
				c217.5,372.6,330.3,543.7,330.3,543.7l303.4-543.7h507.1L17235.7-1079.1L17235.7-1079.1"/>
			<path id="path36" inkscape:connector-curvature="0" class="st0" d="M19754.1-1763.7c-394.1,0-606.4,289.6-595.8,646.2
				c9.6,310.5,151.2,574.5,489.6,597.1c129.8,8.6,235.4-13.7,417.3-62.4l-18.5,266.1c0,0-154.1,49.2-374.8,57.6
				c-280.7,10.6-534.8-43.3-737.4-230.4c-180.4-165.7-287.9-410.9-287.9-648.9c0-263.4,108.3-506,311.5-674.1
				c211.4-178.5,438.4-219.1,708.3-219.1c176.8,0,280.8,11.8,452.6,58.6l-25.2,261.1C20056.5-1724.2,19932.3-1763.7,19754.1-1763.7
				L19754.1-1763.7"/>
			<path id="path38" inkscape:connector-curvature="0" class="st0" d="M14066.6-36.6h493.3l13.8-113.9
				c110.1-1137.5,177.8-1845.3,177.8-1845.3h-513.6l-50.8,704.9l-47.2,629.9l-435.2-1333.7c-114.7-0.3-274.8,0-274.8,0
				S13292-1520.8,13267-1455l-249.2,800.1c0,0-38.6-445.3-53.1-635.6c-30.2-381.9-56.8-705.3-56.8-705.3h-383.3
				c0,0,157,1593.1,168.8,1689.9c12,99.7,30.7,269.3,30.7,269.3h503.7l417.3-1147L14066.6-36.6L14066.6-36.6"/>
			<path id="path40" inkscape:connector-curvature="0" class="st0" d="M11456.9-1774c-14-1.6-27.7-1.9-41.1-2
				c-13.8,0.1-27.3,0.1-41.8,2c-79.1,7.2-140.9,35-198,78.8c-16.4,12.8-31.8,28.8-47.6,45.8c-82.5,93.2-127.3,252.3-137.9,378.2
				c-24.4,292.2,34.4,720,393.9,748.6c9.2,0.4,18.1,1.1,27.1,1.1c1.3,0,2.8,0.7,4.4,0c0.9,0.7,2.7,0,3.7,0c8.9,0,18.1-0.8,27.2-1.1
				c359.2-28.6,418.2-456.3,393.5-748.6c-10.3-125.9-50.9-281.4-138-378.2c-15.8-17-31.4-33-47.4-45.8
				C11598-1739,11530.9-1768.3,11456.9-1774L11456.9-1774z M12318.1-1070c-0.5,4-1.3,8-1.5,11.3c-7,162.3-60.5,306.5-136.5,418.5
				c-157,246.7-432.8,379.4-764.3,374.9c-332.3,4.5-608.1-128.2-765.2-374.9c-75.1-112-129-256.1-136.2-418.5
				c-0.1-3.2-1.1-7.2-1.1-11.3c-45.5-541,270.1-915.3,807.6-958.7c32-2.2,63.3-2.9,94.8-2.9c30.6,0,62.2,0.7,94.4,2.9
				C12047.4-1985.3,12363.3-1611,12318.1-1070L12318.1-1070"/>
			<path id="path42" inkscape:connector-curvature="0" class="st0" d="M6285.9-1161.3L6499-527l12.7,37.4l223.2-671.6H6285.9z
				 M7540.9-1994.7c-15,35-106.2,250.9-173.1,425.1l-575.7,1533h-448.3c0,0-127.4-359.5-145.8-418.8l-420.4-1188.5
				c-54.6-152-131.3-351.2-131.3-351.2h365.8c0,0,103.5,330.3,124.8,390.1l56.4,164.9h634l86.1-251.4
				c18.4-47.1,93.2-299.6,94.6-303.4H7540.9L7540.9-1994.7"/>
			<path id="path44" inkscape:connector-curvature="0" class="st0" d="M9753.6-1044.5c-66-34.1-215.1-24.7-288.8-20.3l5.6,486.9
				l41.1,2.6c135.7,10.9,234.7-7.5,275.4-25.9c61-26.8,96.5-83.8,99.8-180.2C9891.8-924.8,9837.3-1001.5,9753.6-1044.5z
				 M10535.8-1995c-105.9,152.1-145,214.9-226.4,326.2l-305.2,474.3c146.9,72.5,284.9,194.1,305.9,448.6
				c12.9,159.2-72.1,290.9-122.6,335.6c-73.5,65.4-144.9,92-246.6,104.4c-81.8,10.6-140.6,11.2-189.7,14.1h-719
				c0,0,8.5-235.2,8.5-370v-962.8c0-135.2-8.5-370.2-8.5-370.2h442.3c0,0-12.9,235-12.9,370.2l3.3,308.8c0,0,96.3,0,164.1-0.8
				l279.7-512.8c37.6-65.3,92-147,104.8-165.7H10535.8L10535.8-1995"/>
			<path id="path68" inkscape:connector-curvature="0" class="st1" d="M12570.9-2875.5c0,0,774.8,633.1,2730.7,633.1
				c1474,0,2357.5-470.9,4081.1-470.9c1550.4,0,2585.2,532.8,2585.2,532.8s-908.8-709.1-2732.4-709.1
				c-1823.6,0-2405.1,477.2-4206.5,477.2S12570.9-2875.5,12570.9-2875.5"/>
		</g>
	</g>
</g>
</svg>
