<?xml version="1.0" encoding="UTF-8"?>
<svg width="500" height="139" version="1.1" viewBox="0 0 500 139" xmlns="http://www.w3.org/2000/svg">
 <g transform="matrix(5.9717 0 0 5.9717 4.8326e-7 -.93643)">
  <path d="m0 21.78h5.3598l1.2785-3.5533h6.9825l1.2293 3.5533h5.4582l-7.5234-19.86h-5.3107zm50.697 0h4.7697v-19.86h-4.7697zm-1.1311-14.408h-4.7697v7.7394c0 2.5798-1.5735 3.2125-2.6062 3.2125-1.5243 0-2.3603-0.6814-2.3603-2.5798v-8.3722h-4.7697v8.6642c0 3.7967 1.2293 6.1818 5.409 6.1818 1.6719 0 3.5404-0.9249 4.4255-2.3851h0.0492v1.947h4.6222zm-15.047 14.408h-13.867l-0.0492-3.6993 7.2775-7.1553h-6.6874v-3.602h12.785v3.602l-7.2775 7.2526h7.8184zm-24.34-14.359h-0.0492l-2.3111 6.9606h4.573z" clip-rule="evenodd" fill="#041e42" fill-rule="evenodd"/>
  <path d="m74.98 2.3926h1.3814v1.0761h-1.3814z" fill="#5162aa"/>
  <path d="m69.965 13.921h4.1441v4.458h-4.1441z" fill="#8c338a"/>
  <path d="m72.728 19.302h2.7116v1.6397h-2.7116z" fill="#5d81c1"/>
  <path d="m71.091 20.07h3.2744v3.2795h-3.2744z" fill="#e75027"/>
  <path d="m75.184 17.099h2.8139v1.2298h-2.8139z" fill="#d5292a"/>
  <path d="m74.16 14.844h2.865v0.7687h-2.865z" fill="#f6a124"/>
  <path d="m77.997 17.099h1.9953v0.5637h-1.9953z" fill="#6a95cd"/>
  <path d="m74.16 11.308h2.7627v3.5357h-2.7627z" fill="#3370b6"/>
  <path d="m68.737 8.5928h5.372v5.2778h-5.372z" fill="#74c7dc"/>
  <path d="m65.616 8.5928h3.5813v2.9207h-3.5813z" fill="#92c144"/>
  <path d="m70.272 3.6733h6.0882v4.9704h-6.0882z" fill="#5162aa"/>
  <path d="m76.872 9.2588h4.4511v5.4316h-4.4511z" fill="#199bd6"/>
  <path d="m76.207 12.334h3.786v4.8167h-3.786z" fill="#f6a124"/>
  <path d="m74.16 15.613h2.8139v2.767h-2.8139z" fill="#d5292a"/>
  <path d="m72.472 17.304h3.6325v1.9984h-3.6325z" fill="#1f9aa7"/>
  <path d="m79.993 14.229h0.7674v2.4083h-0.7674z" fill="#a5bfdf"/>
  <path d="m81.323 9.105h2.0465v1.281h-2.0465z" fill="#3fb6af"/>
  <path d="m81.169 10.334h1.4837v0.8198h-1.4837z" fill="#af2458"/>
  <path d="m74.16 6.4917h2.7627v4.8679h-2.7627z" fill="#7ac19a"/>
  <path d="m76.872 4.5444h3.7348v4.7142h-3.7348z" fill="#e5df22"/>
  <path d="m76.411 3.6733h2.7116v4.4068h-2.7116z" fill="#34bbd0"/>
  <path d="m80.044 7.978h3.6837v1.281h-3.6837z" fill="#6ba8db"/>
  <path d="m80.606 5.1084h1.7395v2.8695h-1.7395z" fill="#df5297"/>
  <path d="m81.835 6.0303h1.6371v1.1786h-1.6371z" fill="#604696"/>
  <path d="m81.426 7.209h2.3023v1.1786h-2.3023z" fill="#f9d805"/>
  <path d="m76.361 2.3408h-1.3814v1.1273h1.3814zm-3.5813 0.05089h-2.5069v2.767h2.5069z" clip-rule="evenodd" fill="#5162aa" fill-rule="evenodd"/>
  <path d="m62.547 2.3926h7.7766v6.2514h-7.7766z" fill="#16b9e7"/>
  <path d="m66.537 0.24023h2.7116v3.5356h-2.7116z" fill="#42ad4b"/>
  <path d="m60.909 8.1314h5.0138v1.9472h-5.0138z" fill="#e6b722"/>
  <path d="m72.779 0.54785h1.9441v3.1257h-1.9441z" fill="#b9cf36"/>
  <path d="m75.389 12.334h0.7674v0.7686h-0.7674z" fill="#92c144"/>
 </g>
</svg>
