<?xml version="1.0" encoding="UTF-8" standalone="no"?>
<svg
   width="512"
   height="159.27597"
   version="1.1"
   viewBox="0 0 511.99998 159.27597"
   xml:space="preserve"
   id="svg32"
   xmlns="http://www.w3.org/2000/svg"
   xmlns:svg="http://www.w3.org/2000/svg"
   xmlns:rdf="http://www.w3.org/1999/02/22-rdf-syntax-ns#"
   xmlns:cc="http://creativecommons.org/ns#"
   xmlns:dc="http://purl.org/dc/elements/1.1/"><defs
     id="defs32" /><metadata
     id="metadata1"><rdf:RDF><cc:Work
         rdf:about=""><dc:format>image/svg+xml</dc:format><dc:type
           rdf:resource="http://purl.org/dc/dcmitype/StillImage" /></cc:Work></rdf:RDF></metadata><g
     transform="matrix(6.0957243,0,0,-6.0957243,-3201.8853,5564.0552)"
     id="g32"><g
       fill="#e60012"
       id="g3"><path
         d="m 525.2674,903.246 h 3.057 c 0,0.549 0.462,1.595 1.656,1.595 0.473,0 0.547,-0.097 1.144,0.025 0.78,0.267 1.144,0.717 1.302,1.07 0,0 0.304,-1.288 -0.925,-1.959 -0.695,-0.39 -1.765,-0.086 -1.765,-0.086 0,0 -0.853,0.122 -0.962,-0.645 0.476,0 1.23,-0.499 1.23,-1.339 v -7.099 c 0,-0.511 0.412,-1.047 1.048,-1.047 0.546,0 1.034,0.451 1.034,1.047 v 4.992 c 0,7.355 5.723,10.41 9.06,10.655 2.75,0.205 4.601,-0.038 7.986,2.325 0,0 -1.058,-4.117 -5.831,-5.115 -0.889,-0.182 -3.52,0.123 -6.004,-2.459 -1.96,-2.046 -2.167,-3.934 -2.167,-6.415 v -4.385 c 0,-1.924 -1.546,-3.872 -3.908,-3.872 -2.278,0 -3.886,1.827 -3.886,3.872 v 7.452 c 0,0.61 -0.436,1.168 -1.13,1.168 h -0.939 z"
         id="path1" /><path
         d="m 527.9464,891.021 c 0,0 2.507,-2.543 5.82,-0.621 2.179,1.267 2.24,3.908 2.24,3.908 v 5.906 c 0,0 -0.086,2.971 2.595,5.091 1.862,1.471 3.591,1.376 4.784,1.521 3.056,0.377 4.408,2.3 4.408,2.3 0.036,-0.327 -0.292,-3.87 -4.115,-4.882 -0.78,-0.206 -4.981,0.195 -4.981,-4.664 v -5.843 c 0,-1.23 -0.291,-3.399 -2.605,-4.932 -2.35,-1.559 -6.186,-1.327 -8.146,2.216"
         id="path2" /><path
         d="m 531.4784,887.3306 c 3.738,-1.047 8.023,1.573 8.023,5.93 v 5.115 c 0,1.509 1.242,3.482 3.494,3.482 2.362,0 3.496,-2.119 3.496,-3.482 0,-0.851 -0.354,-2.581 -1.973,-2.581 -1.292,0 -2.119,1.313 -1.716,2.387 -0.086,-0.353 0.109,-0.707 0.486,-0.707 0.377,0 0.585,0.354 0.524,0.79 -0.012,0.099 -0.122,0.916 -1.037,0.916 -0.753,0 -1.009,-0.694 -1.009,-1.025 v -4.565 c 0,-4.895 -5.309,-8.499 -10.288,-6.26"
         id="path3" /></g><path
       d="m 564.8298,907.8716 h -2.216 l -1.894,-8.491 h 2.204 z"
       id="path4" /><path
       d="m 594.101,907.8716 h -2.216 l -1.894,-8.491 h 2.204 z"
       id="path5" /><path
       d="m 569.524,903.3754 h -1.631 l 0.65,3.323 h 1.598 z m 1.785,4.501 h -4.731 l -1.91,-8.496 h 2.204 l 0.613,2.694 c 0.385,0 0.485,-0.308 0.485,-0.308 l 0.63,-2.386 h 2.182 l -0.839,2.849 c 1.181,0.003 1.377,0.837 1.377,0.837 l 0.882,3.847 c 0.023,0.197 0,0.353 0,0.353 -0.097,0.672 -0.863,0.61 -0.893,0.61"
       id="path6" /><path
       d="m 581.533,904.4478 h -2.183 l 0.43,1.928 c 0,0 0.122,0.343 -0.286,0.343 h -1.091 c 0,0 -0.243,0.022 -0.308,-0.221 l -1.244,-5.618 c 0,0 -0.078,-0.363 0.342,-0.363 h 0.959 c 0,0 0.285,-0.069 0.363,0.286 l 0.341,1.455 h 2.26 l -0.463,-1.918 c 0,0 -0.33,-0.959 -1.51,-0.959 h -3.483 c 0,0 -0.902,0.077 -0.837,1.224 l 1.353,6.091 c 0,0 0.298,1.18 1.235,1.18 h 3.736 c 0,0 1.047,0 0.75,-1.521 -0.287,-1.521 -0.364,-1.907 -0.364,-1.907"
       id="path7" /><path
       d="m 587.8995,907.8716 -0.77,-3.443 h -1.632 l 0.77,3.443 h -2.215 l -1.894,-8.491 h 2.204 l 0.893,3.968 h 1.631 l -0.882,-3.968 h 2.205 l 1.894,8.491 z"
       id="path8" /><path
       d="m 599.635,907.8718 -0.991,-4.733 -0.773,4.733 h -2.061 l -1.761,-8.491 h 2.049 l 0.937,4.464 0.827,-4.464 h 2.061 l 1.762,8.491 z"
       id="path9" /><path
       d="m 557.7197,904.2681 h -1.565 l 0.551,2.336 h 1.587 z m -1.587,3.604 c -1.212,0 -1.521,-1.333 -1.521,-1.333 l -1.753,-7.158 h 2.15 l 0.959,3.829 h 1.554 l -0.298,-1.235 -0.628,-2.594 h 2.281 l 1.918,8.491 z"
       id="path10" /><path
       d="m 606.1857,904.2681 h -1.565 l 0.551,2.336 h 1.587 z m -1.587,3.604 c -1.212,0 -1.521,-1.333 -1.521,-1.333 l -1.753,-7.158 h 2.15 l 0.958,3.829 h 1.555 l -0.298,-1.235 -0.628,-2.594 h 2.281 l 1.918,8.491 z"
       id="path11" /><path
       d="m 562.5538,890.617 c 0,0 -0.075,-0.01 -0.084,-0.018 -0.01,0 -0.122,-0.02 -0.159,-0.02 -0.046,0 -0.102,-0.018 -0.102,-0.018 0,0 -0.048,-0.009 -0.048,-0.019 -0.009,-0.009 -0.14,-0.028 -0.158,-0.028 -0.019,-0.009 -0.112,-0.037 -0.112,-0.037 0,0 -0.075,-0.037 -0.094,-0.056 -0.019,-0.019 -0.093,-0.019 -0.121,-0.019 -0.028,0 -0.075,-0.019 -0.084,-0.028 -0.01,-0.009 -0.075,-0.019 -0.075,-0.019 h -0.047 l -0.028,-0.037 h -0.055 l -0.141,-0.094 -0.103,-0.009 c 0,0 -0.065,-0.037 -0.075,-0.047 -0.009,-0.009 -0.102,-0.009 -0.121,-0.019 -0.018,-0.008 -0.131,-0.074 -0.15,-0.083 -0.009,-0.01 -0.018,-0.056 -0.018,-0.085 0,-0.037 0,-0.046 -0.01,-0.083 -0.009,-0.029 0,-0.057 0,-0.075 0.01,-0.009 0.047,-0.029 0.084,-0.084 0.029,-0.065 0.047,-0.038 0.056,-0.038 0.01,0 0.075,-0.009 0.075,-0.009 0,0 0.094,-0.075 0.112,-0.103 0.019,-0.028 0.16,-0.037 0.178,-0.028 0.019,0 0.113,0.028 0.121,0.038 0.01,0.009 0.038,-0.01 0.075,0.018 0.047,0.028 0.028,0.084 0.037,0.094 0,0.009 0.159,0.112 0.178,0.121 0.019,0 0.103,0.037 0.103,0.047 0,0.019 0.121,0.075 0.149,0.075 0.028,0.009 0.084,0.009 0.084,0.009 0,0 0.057,0.037 0.075,0.047 0.019,0.019 0.159,0.028 0.252,-0.01 0.103,-0.037 0.084,-0.028 0.112,-0.009 0.029,0.019 0.066,0.131 0.075,0.14 0,0.018 0.131,0.112 0.14,0.122 0.01,0.018 0.019,0.074 0.019,0.074 0.009,0.038 -0.009,0.094 -0.019,0.168 -0.009,0.075 -0.121,0.122 -0.121,0.122"
       id="path12" /><path
       d="m 561.2367,891.9907 c 0.009,0.028 0.028,0.065 0.056,0.093 0.018,0.019 0.018,0.028 0.028,0.028 0.009,0 0.019,0 0.028,0.009 0.037,0 0.037,-0.018 0.047,-0.074 0.009,-0.056 0,-0.066 -0.019,-0.103 -0.009,-0.028 -0.009,-0.037 -0.019,-0.084 -0.009,-0.056 -0.009,-0.084 -0.018,-0.103 -0.01,-0.009 -0.056,-0.075 -0.103,-0.13 -0.019,-0.01 -0.028,-0.028 -0.038,-0.038 -0.046,-0.047 -0.112,0 -0.121,0.038 -0.019,0.037 0,0.093 0.009,0.139 0,0.047 0.084,0.085 0.084,0.085 0,0 0.038,0.102 0.047,0.121 0.009,0 0.009,0.009 0.019,0.019 m 0.149,0.859 c 0.028,0.047 0.084,0 0.084,0.038 0,0.038 0.01,0.112 0.01,0.112 l 0.056,0.084 c 0,0 0.009,0.01 0.028,0.01 0.018,0.009 0.047,0.009 0.074,-0.019 0.066,-0.047 0.084,-0.094 0.084,-0.131 -0.009,-0.037 0.038,-0.112 0.038,-0.131 0,-0.019 -0.038,-0.019 -0.047,-0.056 -0.018,-0.047 -0.037,-0.084 -0.084,-0.074 -0.028,0.008 -0.047,0.018 -0.065,0.018 -0.009,0.009 -0.009,0.009 -0.019,0.009 -0.027,0.009 -0.103,0 -0.122,0.047 -0.018,0.047 -0.065,0.047 -0.037,0.093 m 2.701,2.607 -0.029,0.094 c 0,0 -0.074,0.29 -0.074,0.346 l -0.019,0.075 0.037,0.121 v 0.196 l -0.046,0.102 -0.047,0.075 -0.103,0.028 -0.084,0.065 h -0.365 l -0.075,0.029 -0.065,-0.019 -0.093,-0.047 -0.075,0.01 -0.074,-0.056 h -0.075 l -0.038,-0.037 -0.14,-0.113 h -0.056 l -0.093,-0.074 -0.112,-0.056 c -0.084,0.009 -0.141,-0.038 -0.141,-0.038 l -0.121,-0.103 -0.065,-0.046 -0.131,-0.122 -0.131,-0.019 -0.028,-0.093 -0.075,-0.047 -0.084,-0.084 -0.121,-0.14 -0.038,-0.047 -0.084,-0.009 -0.074,-0.065 -0.038,-0.075 -0.093,-0.178 -0.066,-0.102 -0.159,-0.272 -0.056,-0.056 -0.018,-0.074 c 0,0 -0.056,-0.112 -0.075,-0.159 -0.028,-0.047 -0.131,-0.187 -0.14,-0.205 -0.01,-0.029 -0.019,-0.076 -0.037,-0.15 -0.029,-0.075 -0.047,-0.084 -0.066,-0.121 -0.019,-0.038 0,-0.057 -0.019,-0.084 -0.027,-0.029 -0.038,-0.066 -0.038,-0.104 -0.008,-0.037 -0.027,-0.084 -0.027,-0.084 0,0 0,-0.075 -0.018,-0.14 -0.01,-0.065 -0.047,-0.093 -0.056,-0.112 -0.01,-0.028 -0.029,-0.075 -0.029,-0.122 0,-0.046 -0.046,-0.112 -0.056,-0.149 -0.019,-0.038 -0.047,-0.15 -0.056,-0.177 -0.018,-0.103 -0.056,-0.093 -0.084,-0.122 -0.018,-0.037 0,-0.056 0,-0.121 -0.01,-0.066 -0.028,-0.057 -0.047,-0.085 -0.018,-0.027 -0.037,-0.186 -0.056,-0.242 -0.009,-0.056 -0.102,-0.243 -0.121,-0.383 -0.019,-0.132 -0.074,-0.075 -0.074,-0.065 v 0.279 c -0.01,0.047 0,0.085 0.008,0.141 0.01,0.056 0,0.084 0.019,0.112 0.01,0.028 0.019,0.131 0.037,0.186 0.019,0.057 0.01,0.094 0.029,0.113 0.009,0.028 0.027,0.075 0.027,0.102 0,0.038 -0.027,0.038 -0.009,0.103 0.028,0.075 0,0.113 0,0.15 0,0.037 0.009,0.131 0.028,0.158 0.01,0.038 0.01,0.178 0.01,0.215 0,0.038 0,0.057 0.009,0.094 0.009,0.047 -0.009,0.14 -0.019,0.187 -0.009,0.037 0,0.112 0.01,0.131 0,0.019 0.009,0.084 0,0.121 -0.01,0.038 0.009,0.103 0.009,0.103 0.018,0.019 0.018,0.056 0,0.084 -0.009,0.038 0.028,0.066 0.046,0.084 0.029,0.019 0.047,0.065 0.047,0.075 0.01,0.018 0.01,0.084 0.019,0.103 0,0.028 0.01,0.065 0.018,0.093 0.01,0.028 0.038,0.065 0.048,0.103 0.009,0.028 -0.01,0.066 0,0.103 0.018,0.037 0.046,0.093 0.074,0.121 0.019,0.028 0.009,0.122 0,0.178 -0.019,0.046 -0.019,0.084 -0.028,0.102 0,0.028 -0.075,0.085 -0.084,0.122 -0.018,0.046 -0.084,0.065 -0.112,0.084 -0.028,0.028 -0.047,0.028 -0.066,0.037 -0.027,0.009 -0.056,0.028 -0.093,0.075 -0.037,0.047 -0.121,0.009 -0.121,0.009 0,0 -0.074,-0.018 -0.084,-0.075 0,-0.018 0.01,-0.055 0.037,-0.074 0.018,-0.019 -0.009,-0.056 -0.019,-0.066 -0.008,-0.018 -0.056,-0.046 -0.074,-0.065 -0.02,-0.028 -0.01,-0.112 -0.01,-0.112 0,0 0.028,-0.103 0.066,-0.149 0.046,-0.057 0.018,-0.104 0.01,-0.122 0,-0.019 0.008,-0.065 0,-0.121 -0.01,-0.056 0.018,-0.085 0.018,-0.085 l 0.027,-0.065 -0.027,-0.103 -0.01,-0.112 0.01,-0.102 v -0.113 l 0.009,-0.205 v -0.122 l 0.009,-0.131 -0.018,-0.215 -0.039,-0.205 -0.008,-0.187 0.019,-0.094 -0.019,-0.13 v -0.178 l -0.019,-0.13 -0.01,-0.141 c 0,0 -0.018,-0.037 -0.018,-0.083 0,-0.038 0.01,-0.066 0.01,-0.066 l -0.048,-0.121 c 0,0 0.028,-0.047 0.038,-0.076 0,-0.037 -0.01,-0.092 -0.01,-0.112 -0.009,-0.028 0.047,-0.168 0.047,-0.168 0,0 0,-0.14 0.018,-0.196 0.021,-0.056 0.011,-0.196 0.011,-0.196 l 0.018,-0.112 c 0,0 0,-0.057 -0.008,-0.094 -0.01,-0.037 -0.01,-0.075 -0.01,-0.075 l -0.011,-0.083 c 0,0 -0.018,-0.056 -0.018,-0.085 0,-0.018 0.047,-0.065 0.047,-0.065 0.01,-0.018 0,-0.159 0,-0.159 0,0 -0.029,-0.112 -0.029,-0.205 -0.008,-0.084 -0.037,-0.15 -0.037,-0.15 0,0 -0.046,-0.028 -0.065,-0.084 -0.018,-0.056 -0.028,-0.056 -0.018,-0.103 v -0.177 c 0,-0.019 0.009,0.009 -0.037,-0.066 -0.048,-0.084 0,-0.13 0.009,-0.177 0,-0.038 0.111,-0.121 0.111,-0.121 0,0 0.037,-0.057 0.058,-0.122 0.018,-0.056 0.074,-0.094 0.139,-0.131 0.056,-0.037 0.103,-0.019 0.131,0 0.028,0.009 0.065,0.103 0.074,0.14 0,0.038 0.048,0.085 0.057,0.094 0.009,0.019 0.009,0.065 0.009,0.065 0,0.112 0,0.103 0.009,0.14 0,0.047 0.01,0.084 0.01,0.15 0,0.056 -0.037,0.046 -0.019,0.121 0.009,0.066 0.019,0.103 0.019,0.224 0,0.113 0,0.122 0.009,0.197 0.018,0.074 0.018,0.121 0.018,0.121 0,0 -0.046,0.103 -0.046,0.15 0.009,0.037 -0.018,0.131 -0.018,0.131 l -0.038,0.102 -0.01,0.038 0.019,0.093 0.009,0.131 -0.009,0.074 0.029,0.15 -0.02,0.131 0.029,0.084 0.028,0.131 0.027,0.159 0.019,0.084 0.019,0.103 0.01,0.102 0.037,0.075 0.065,0.168 0.103,0.215 0.056,0.084 0.027,0.075 0.029,0.122 0.065,0.205 0.038,0.046 0.046,-0.018 0.01,-0.084 0.037,-0.066 c 0,0 0.047,-0.056 0.056,-0.065 0.019,-0.009 0.122,-0.028 0.122,-0.028 0,0 0.102,-0.009 0.158,-0.009 0.047,0 0.075,-0.038 0.075,-0.038 l 0.019,-0.065 -0.056,-0.084 c 0,0 -0.038,-0.056 -0.038,-0.075 -0.008,-0.009 0,-0.065 -0.019,-0.084 -0.008,-0.019 -0.093,-0.103 -0.093,-0.103 l -0.019,-0.14 c 0,0 -0.008,-0.084 0.01,-0.159 0.009,-0.084 0.047,-0.112 0.065,-0.14 0.029,-0.028 0.019,-0.093 0.019,-0.093 0,0 -0.094,-0.16 -0.121,-0.197 -0.028,-0.037 -0.094,-0.177 -0.122,-0.233 -0.019,-0.065 -0.056,-0.103 -0.093,-0.168 -0.038,-0.075 -0.056,-0.168 -0.056,-0.216 0,-0.055 0,-0.139 -0.038,-0.186 -0.028,-0.046 -0.056,-0.056 -0.056,-0.094 0,-0.046 0.094,-0.075 0.112,-0.075 0.019,0 0.122,0.01 0.169,0.019 0.056,0.019 0.084,0.038 0.111,0.094 0.029,0.047 0,0.075 0,0.075 0,0 0.048,0.065 0.085,0.121 0.038,0.065 0.075,0.038 0.093,0.038 h 0.066 l 0.009,0.008 c 0.019,0 0.056,0.019 0.084,0.048 0.038,0.018 0.084,0.046 0.084,0.046 l 0.056,0.01 c 0,0 0.048,0.074 0.056,0.093 0.01,0.009 0.019,0.046 0.038,0.093 0.009,0.019 0.018,0.029 0.037,0.047 0.047,0.056 0.028,0.084 0.028,0.131 0,0.047 0.037,0.121 0.056,0.14 0.019,0.019 0.028,0.037 0.047,0.093 0.019,0.057 -0.01,0.066 0.009,0.122 0.019,0.047 0.094,0.047 0.113,0.056 0.018,0.009 0.037,-0.009 0.055,-0.018 0.028,-0.02 0.038,-0.085 0.038,-0.085 0,0 0.019,-0.055 0.028,-0.112 0,-0.047 0.046,-0.084 0.046,-0.084 0,0 -0.008,-0.131 -0.008,-0.196 -0.01,-0.075 -0.038,-0.094 -0.038,-0.094 0,0 -0.066,-0.047 -0.103,-0.102 -0.028,-0.047 -0.159,-0.131 -0.159,-0.131 l -0.037,-0.075 -0.103,-0.131 h -0.009 l -0.046,-0.056 -0.076,-0.027 c 0,0 0.01,-0.066 -0.009,-0.113 -0.01,-0.047 0.047,-0.075 0.047,-0.075 l 0.084,0.038 0.009,0.009 0.075,0.018 c 0,0 0.084,0.066 0.112,0.085 0.038,0.019 0.075,0.046 0.075,0.046 v 0.038 l 0.065,0.084 c 0,0 0.056,0.094 0.084,0.131 0.029,0.028 0.084,0 0.084,0 l 0.075,-0.019 0.047,-0.093 0.046,-0.084 v -0.057 c 0,0 0.057,-0.046 0.084,-0.074 0.028,-0.028 0.122,-0.019 0.122,-0.019 l 0.103,0.066 v 0.214 l -0.047,0.056 c 0,0 -0.019,0.112 -0.047,0.169 -0.028,0.065 -0.028,0.233 -0.028,0.233 l 0.019,0.14 c 0,0 0.074,0.168 0.084,0.188 l 0.047,0.13 v 0.084 l 0.066,0.122 0.046,0.037 0.037,0.14 -0.028,0.122 -0.037,0.13 -0.018,0.094 -0.048,0.019 -0.075,0.074 h -0.074 l -0.103,-0.028 c 0,0 -0.065,-0.046 -0.093,-0.084 -0.028,-0.037 -0.028,-0.037 -0.066,-0.037 -0.037,0 -0.055,0.158 -0.055,0.158 l -0.047,0.15 -0.01,0.122 -0.018,0.065 0.018,0.215 -0.018,0.084 v 0.308 l -0.019,0.159 -0.037,0.075 -0.131,0.037 h -0.112 l -0.16,-0.065 -0.027,-0.019 -0.057,-0.065 -0.055,-0.075 v -0.121 c 0,0 -0.141,-0.159 -0.159,-0.187 0,-0.01 -0.028,-0.029 -0.056,-0.038 -0.038,-0.018 -0.066,-0.037 -0.066,-0.037 0,0 -0.13,-0.019 -0.168,-0.028 -0.037,-0.01 -0.14,-0.047 -0.168,-0.065 -0.028,-0.01 -0.094,-0.038 -0.094,-0.038 l -0.037,0.075 0.047,0.131 0.009,0.14 0.056,0.112 c 0,0 0.056,0.112 0.084,0.15 0.029,0.037 0.056,0.102 0.056,0.102 l 0.029,0.094 0.131,0.037 c 0.018,0 0.093,0.168 0.093,0.168 l 0.028,0.038 0.084,0.14 0.075,0.15 c 0,0 0.027,0.027 0.046,0.065 0.028,0.028 0,0.093 0.01,0.111 0,0.029 0.103,0.085 0.103,0.085 l 0.009,0.019 0.102,0.149 c 0.029,0.037 0.122,0.14 0.122,0.14 0,0 0.168,0.14 0.225,0.168 0.055,0.038 0.242,0.159 0.242,0.159 0,0 0.038,0.038 0.093,0.038 0.056,0 0.084,0.037 0.094,0.046 0.009,0.01 0.056,0.084 0.056,0.084 l 0.093,0.066 c 0,0 0.085,0.046 0.103,0.046 0.009,0 0.178,0.057 0.178,0.057 l 0.066,0.065 0.13,0.046 c 0.047,0.01 0.159,0.029 0.159,0.029 l 0.093,-0.075 0.047,-0.028 0.019,-0.121 v -0.159 l -0.019,-0.084 0.01,-0.047 v -0.159 l -0.029,-0.121 -0.009,-0.122 -0.057,-0.094 -0.008,-0.326 -0.019,-0.197 -0.028,-0.074 -0.01,-0.159 0.01,-0.14 -0.019,-0.122 v -0.131 l -0.019,-0.074 c 0,0 -0.018,-0.112 0,-0.159 0.01,-0.047 -0.009,-0.122 -0.009,-0.122 l -0.075,-0.028 -0.065,0.028 c 0,0 -0.056,0.056 -0.065,0.094 -0.019,0.046 -0.131,0.065 -0.178,0.065 -0.037,0 -0.094,-0.009 -0.15,-0.009 -0.046,0 -0.121,-0.169 -0.121,-0.169 l -0.01,-0.065 0.019,-0.103 c 0,0 -0.009,-0.168 -0.009,-0.224 0,-0.065 0.065,-0.084 0.065,-0.084 l 0.122,-0.01 c 0,0 0.121,0.019 0.168,0.038 0.047,0.019 0.057,0.084 0.057,0.084 l 0.027,0.075 c 0,0 0.028,0.056 0.056,0.084 0.038,0.028 0.066,0.019 0.066,0.019 l 0.102,-0.056 0.01,-0.131 v -0.14 l -0.019,-0.094 -0.019,-0.159 v -0.289 l -0.028,-0.159 v -0.131 l 0.019,-0.215 -0.019,-0.215 0.028,-0.28 0.047,-0.131 -0.009,-0.093 -0.019,-0.085 0.028,-0.13 v -0.094 l 0.019,-0.056 0.028,-0.075 -0.047,-0.27 v -0.458 l 0.019,-0.103 -0.028,-0.121 0.018,-0.168 v -0.206 l 0.02,-0.056 -0.01,-0.047 -0.075,-0.065 -0.009,-0.084 -0.066,-0.047 -0.065,-0.056 0.047,-0.056 0.018,-0.084 c 0,0 0.01,-0.047 -0.018,-0.094 -0.019,-0.046 -0.019,-0.112 -0.019,-0.112 l 0.019,-0.112 0.121,-0.158 0.094,-0.159 0.046,-0.16 0.047,-0.028 0.019,-0.037 0.111,-0.056 c 0,0 0.141,-0.018 0.178,0 0.047,0.009 0.215,0.159 0.215,0.159 l 0.037,0.159 0.038,0.047 -0.019,0.13 0.029,0.038 v 0.093 l -0.048,0.065 -0.056,0.104 0.01,0.158 0.018,0.112 -0.028,0.196 v 0.103 l -0.009,0.168 -0.037,0.234 -0.038,0.196 -0.009,0.056 -0.019,0.065 0.009,0.132 c 0,0 -0.055,0.271 -0.055,0.28 v 0.14 l -0.009,0.159 v 0.074 l -0.019,0.047 c 0,0 -0.028,0.15 -0.019,0.169 0.009,0.027 -0.038,0.27 -0.038,0.27 l 0.029,0.131 -0.037,0.224 c 0,0 -0.039,0.104 -0.039,0.141 -0.008,0.028 0.01,0.13 0.01,0.13 l -0.018,0.104 -0.01,0.121 -0.009,0.28 0.027,0.112 0.029,0.336 c 0,0 0.01,0.197 0.01,0.253 0.008,0.056 0,0.121 0,0.121 l 0.037,0.187 -0.01,0.103 0.028,0.29 0.038,0.121 -0.009,0.084 c 0,0 0,0.075 0.018,0.262 0.029,0.177 0.075,0.177 0.075,0.177 l 0.074,0.047 -0.009,0.038 0.094,0.083 v 0.084 l 0.046,0.113 v 0.083 l 0.103,0.103 v 0.075 l -0.028,0.047 z"
       id="path13" /><path
       d="m 568.3749,891.86 c 0.046,0.037 0.102,0.084 0.112,0.102 0.028,0.047 0.084,0.131 0.103,0.196 0.028,0.056 -0.047,0.179 -0.075,0.244 -0.038,0.056 -0.028,0.093 -0.019,0.149 0.01,0.066 0.075,0.057 0.103,0.187 0.019,0.121 0.075,0.177 0.075,0.177 l 0.075,0.019 0.009,-0.103 0.019,-0.794 0.047,-0.084 -0.01,-0.112 -0.131,-0.103 -0.206,-0.233 -0.102,-0.075 -0.075,-0.056 -0.14,-0.168 c 0,0 -0.084,-0.14 -0.187,-0.14 -0.103,0 -0.037,0.158 -0.037,0.158 0,0 0.093,0.122 0.14,0.234 0.047,0.102 0.065,0.075 0.149,0.158 0.094,0.094 0.075,0.159 0.094,0.197 0.009,0.009 0.028,0.028 0.056,0.047 m 2.298,2.344 v 0.132 l -0.027,0.13 -0.029,0.113 -0.027,0.112 0.027,0.075 -0.056,0.083 -0.075,0.085 -0.056,0.13 -0.037,0.103 -0.047,0.094 -0.055,0.065 -0.029,0.094 -0.018,0.102 -0.057,0.075 -0.056,0.084 -0.055,0.047 -0.084,0.018 -0.085,0.075 -0.093,-0.065 -0.121,0.019 -0.076,-0.01 -0.139,-0.075 -0.094,-0.083 -0.112,0.009 -0.084,-0.103 -0.113,-0.037 -0.074,-0.075 -0.094,-0.169 -0.102,-0.074 -0.066,-0.131 c 0,0 -0.084,-0.056 -0.094,-0.084 -0.008,-0.028 -0.12,-0.131 -0.12,-0.131 l -0.094,-0.074 -0.019,-0.066 -0.037,-0.047 -0.103,-0.121 -0.094,-0.093 v -0.131 l -0.074,-0.122 -0.084,-0.112 -0.028,-0.084 -0.085,-0.177 -0.112,-0.15 -0.046,-0.215 -0.084,-0.103 -0.084,-0.121 -0.01,-0.122 -0.046,-0.084 v -0.075 l -0.029,-0.027 v -0.047 l -0.102,-0.224 v -0.103 l -0.028,-0.066 -0.019,-0.14 -0.037,-0.121 -0.038,-0.094 c 0,0 -0.027,-0.177 -0.037,-0.243 -0.009,-0.075 -0.084,-0.271 -0.084,-0.299 -0.009,-0.018 -0.084,-0.168 -0.084,-0.215 0,-0.046 -0.084,-0.224 -0.084,-0.224 l -0.075,-0.065 0.019,-0.037 -0.019,-0.075 -0.112,-0.168 -0.066,-0.075 c 0,0 -0.037,0 -0.056,0.047 -0.028,0.037 0.009,0.121 0.009,0.121 0,0 0,0.094 0.01,0.122 0.009,0.018 0.066,0.103 0.066,0.103 l -0.019,0.093 c 0,0 0.009,0.131 0.009,0.158 0,0.029 0.019,0.103 0.019,0.103 l 0.055,0.14 c 0,0 0.011,0.103 0.011,0.14 0,0.038 0.018,0.085 0.018,0.085 l 0.046,0.028 0.038,0.056 c 0,0 0,0.149 -0.009,0.178 0,0.027 0.019,0.158 0.027,0.187 0,0.018 0.029,0.112 0.029,0.112 l 0.018,0.158 0.01,0.112 0.047,0.178 0.018,0.131 c 0,0 0.019,0.112 0.019,0.14 v 0.159 l 0.065,0.205 -0.018,0.093 0.009,0.121 0.028,0.094 0.028,0.14 -0.009,0.15 0.084,0.14 0.018,0.103 0.047,0.13 0.028,0.16 0.019,0.13 0.018,0.075 -0.046,0.094 -0.009,0.093 c 0,0 -0.028,0.084 -0.047,0.122 -0.019,0.037 -0.103,0.028 -0.103,0.028 l -0.084,-0.057 c 0,0 -0.038,-0.084 -0.038,-0.112 0,-0.037 -0.009,-0.084 -0.074,-0.159 l -0.057,-0.084 v -0.177 l -0.037,-0.121 0.01,-0.197 -0.029,-0.074 0.01,-0.113 -0.047,-0.074 0.009,-0.122 -0.074,-0.261 -0.01,-0.15 -0.027,-0.14 -0.029,-0.112 -0.01,-0.131 -0.018,-0.149 -0.028,-0.178 0.009,-0.084 c 0,0 -0.027,-0.093 -0.046,-0.187 -0.019,-0.093 -0.046,-0.318 -0.046,-0.318 l -0.028,-0.168 0.009,-0.084 -0.019,-0.056 -0.009,-0.159 -0.019,-0.121 -0.009,-0.141 0.019,-0.149 -0.085,-0.15 0.037,-0.13 0.01,-0.206 0.019,-0.131 v -0.149 l 0.037,-0.159 c 0,0 0,-0.093 0.019,-0.159 0.009,-0.066 0.168,-0.01 0.168,-0.01 l 0.083,0.076 0.047,0.13 0.076,0.103 0.065,0.122 c 0.028,0.056 0.074,0.14 0.074,0.14 0,0 0.01,0.122 0.019,0.149 0.01,0.019 0.094,0.159 0.094,0.159 l 0.074,0.047 -0.027,0.056 0.055,0.075 0.01,0.093 0.074,0.131 0.047,0.093 0.028,0.178 c 0,0 0.066,0.168 0.075,0.196 l 0.028,0.149 0.038,0.141 0.009,0.215 0.047,0.168 0.055,0.158 0.029,0.15 0.055,0.066 0.103,0.187 c 0,0 0.066,0.093 0.102,0.112 0.038,0.018 0.057,-0.028 0.057,-0.028 0,0 0.037,-0.038 0.047,-0.075 0.019,-0.038 0.037,-0.066 0.066,-0.084 0.037,-0.01 0.084,-0.056 0.111,-0.075 0.019,-0.018 0.028,-0.009 0.028,-0.103 0,-0.102 -0.055,-0.215 -0.074,-0.243 -0.01,-0.027 -0.075,-0.093 -0.075,-0.093 0,0 -0.037,-0.084 -0.066,-0.177 -0.018,-0.085 0,-0.16 0,-0.187 0.01,-0.029 0.029,-0.132 0.029,-0.169 0,-0.028 -0.019,-0.075 -0.066,-0.121 -0.046,-0.047 -0.075,-0.113 -0.093,-0.15 -0.019,-0.028 -0.037,-0.028 -0.094,-0.159 -0.047,-0.121 -0.084,-0.131 -0.102,-0.168 -0.019,-0.028 -0.019,-0.037 -0.047,-0.158 -0.019,-0.131 -0.019,-0.113 -0.038,-0.131 -0.018,-0.019 -0.027,-0.056 -0.027,-0.056 0,0 0.009,-0.029 -0.029,-0.084 -0.027,-0.066 -0.018,-0.113 -0.018,-0.169 0,-0.056 0,-0.121 0.009,-0.206 0.009,-0.083 0.084,-0.055 0.103,-0.046 0.028,0.009 0.112,0.019 0.186,0.056 0.085,0.038 0.066,0.094 0.093,0.122 0.029,0.028 0.094,0.046 0.123,0.084 0.028,0.027 0.074,0.102 0.093,0.121 0.019,0.019 0.093,0.103 0.093,0.103 l 0.066,0.019 0.084,0.019 -0.009,0.055 c 0,0 0.121,0.15 0.14,0.187 0.018,0.038 0.103,0.168 0.103,0.168 0,0 0.046,0.01 0.065,0.038 0.019,0.027 0.028,0.056 0.047,0.083 0.028,0.029 0.084,-0.121 0.084,-0.121 0,0 0.009,-0.112 0,-0.177 0,-0.065 -0.01,-0.056 -0.01,-0.112 -0.009,-0.047 0,-0.056 -0.028,-0.094 -0.027,-0.046 -0.009,-0.056 0,-0.075 0,-0.027 -0.027,-0.046 -0.065,-0.121 -0.037,-0.074 -0.018,-0.093 -0.037,-0.131 -0.01,-0.037 -0.028,-0.103 -0.056,-0.13 -0.019,-0.029 -0.075,-0.075 -0.122,-0.131 -0.037,-0.038 -0.112,-0.093 -0.196,-0.122 -0.019,-0.01 -0.037,-0.019 -0.056,-0.019 -0.112,-0.028 -0.253,-0.083 -0.299,-0.121 -0.038,-0.037 -0.093,-0.019 -0.169,-0.037 -0.083,-0.01 -0.177,-0.01 -0.224,-0.028 -0.046,-0.019 -0.102,-0.038 -0.131,-0.075 -0.018,-0.038 -0.046,-0.112 -0.084,-0.131 -0.028,-0.028 0.01,-0.093 0.01,-0.093 l 0.019,-0.084 c 0,0 0.027,-0.075 0.037,-0.103 0.018,-0.037 0.168,-0.084 0.168,-0.084 0,0 0.103,-0.019 0.149,-0.01 0.056,0 0.197,0.075 0.216,0.094 0.018,0.028 0.074,0.075 0.112,0.112 0.047,0.046 0.242,0.075 0.242,0.075 h 0.01 c 0.018,-0.01 0.075,-0.019 0.102,-0.029 0.048,-0.018 0.075,0.038 0.103,0.085 0.028,0.056 0.094,0.065 0.094,0.065 l 0.112,-0.056 c 0,0 0.084,-0.028 0.131,-0.038 0.056,0 0.103,0.066 0.103,0.066 0,0 0.074,0.084 0.093,0.121 0.019,0.037 -0.047,0.103 -0.056,0.159 -0.009,0.066 -0.103,0 -0.15,0.121 -0.018,0.076 0.029,0.132 0.029,0.16 0.009,0.018 0.028,0.084 0.055,0.112 0.038,0.037 0.103,-0.038 0.103,-0.038 l 0.047,-0.084 c 0,0 -0.009,-0.056 0.019,-0.14 0.028,-0.075 0.102,-0.122 0.158,-0.159 0.048,-0.046 0.075,0 0.103,0.037 0.038,0.029 0.01,0.066 0.019,0.094 0.009,0.028 -0.037,0.084 -0.047,0.121 -0.019,0.029 -0.019,0.085 0,0.131 0.019,0.056 0.01,0.113 0.019,0.141 0.009,0.028 -0.075,0.093 -0.084,0.131 -0.01,0.037 -0.019,0.112 0.009,0.139 0.029,0.038 -0.028,0.103 -0.019,0.15 0,0.047 -0.056,0.14 -0.027,0.234 0.018,0.037 0.075,0.121 0.083,0.139 0.019,0.029 0.104,0.159 0.112,0.215 0.019,0.066 0.029,0.085 0.029,0.141 0,0.056 0,0.121 0.027,0.159 0.038,0.046 0.047,0.074 0.047,0.13 0.009,0.066 -0.047,0.103 -0.065,0.141 -0.028,0.046 -0.177,0 -0.187,-0.029 -0.019,-0.027 -0.065,-0.13 -0.065,-0.177 0,-0.047 -0.019,-0.094 -0.056,-0.159 -0.038,-0.065 -0.084,0 -0.094,0.038 -0.018,0.027 -0.047,0.102 -0.047,0.139 v 0.15 c 0,0.029 -0.009,0.094 -0.009,0.131 0,0.037 0.019,0.103 0.038,0.14 0.028,0.038 0,0.103 -0.01,0.149 -0.009,0.048 0,0.141 0.01,0.206 0.009,0.066 -0.029,0.281 -0.01,0.374 0.028,0.093 0.056,0.149 0.084,0.233 0.019,0.075 -0.093,0.178 -0.112,0.215 -0.018,0.038 -0.102,0.019 -0.14,0.038 -0.037,0.018 -0.121,0.037 -0.177,0.037 -0.066,-0.009 -0.085,-0.056 -0.112,-0.084 -0.038,-0.037 -0.047,-0.075 -0.047,-0.187 0,-0.103 -0.056,-0.093 -0.084,-0.103 -0.019,0 -0.085,-0.018 -0.131,-0.037 -0.019,-0.009 -0.037,-0.009 -0.056,-0.019 -0.038,-0.019 -0.149,-0.075 -0.196,-0.084 -0.057,-0.009 -0.057,0.009 -0.094,0.103 -0.037,0.093 0.103,0.178 0.103,0.178 0,0 0.065,0.102 0.093,0.131 0.019,0.027 0.084,0.121 0.094,0.139 0.009,0.019 0.028,0.066 0.056,0.112 0.009,0.029 0.028,0.057 0.037,0.075 0.019,0.047 0.113,0.14 0.122,0.188 0.018,0.046 0.084,0.083 0.084,0.083 0,0 0.056,0.103 0.075,0.131 0.009,0.028 0.028,0.019 0.056,0.038 0.019,0.028 0.009,0.093 0.019,0.13 0,0.047 0.083,0.094 0.121,0.113 0.028,0.028 0.065,0.028 0.065,0.028 -0.009,0.046 0.01,0.083 0.037,0.121 0.038,0.037 0.131,0.084 0.15,0.112 0.019,0.019 0.121,0.103 0.168,0.149 0.047,0.047 0.14,0.01 0.14,0.01 l 0.112,0.019 c 0.093,0.037 0.141,0.018 0.141,0.018 l 0.093,-0.093 0.112,-0.019 c 0,0 0.093,-0.065 0.112,-0.065 0.028,0 0.037,-0.075 0.037,-0.075 l 0.028,-0.084 0.029,-0.093 0.037,-0.057 c 0,0 0.028,-0.065 0.019,-0.102 -0.009,-0.038 0.009,-0.038 0.018,-0.141 0,-0.093 -0.018,-0.055 -0.027,-0.084 0,-0.027 -0.01,-0.158 -0.01,-0.187 0,-0.028 -0.028,-0.195 -0.028,-0.223 0,-0.019 -0.018,-0.122 -0.018,-0.122 l -0.066,-0.103 v -0.075 l -0.093,-0.084 -0.057,-0.047 -0.112,0.019 h -0.047 l -0.093,-0.112 -0.028,-0.149 v -0.168 l 0.009,-0.178 0.076,-0.046 0.083,0.018 h 0.112 l 0.047,-0.018 v -0.299 l -0.018,-0.085 v -0.42 l -0.019,-0.141 0.009,-0.121 v -0.131 l 0.056,-0.075 0.029,-0.084 -0.02,-0.14 0.038,-0.084 0.009,-0.159 -0.009,-0.083 0.028,-0.057 -0.009,-0.046 0.027,-0.132 v -0.186 l 0.02,-0.262 0.008,-0.224 0.02,-0.187 v -0.122 l -0.028,-0.102 -0.084,-0.028 -0.151,-0.169 -0.065,-0.121 0.065,-0.093 0.122,-0.019 0.056,-0.093 0.085,-0.028 0.056,-0.159 c 0,0 0.074,-0.093 0.111,-0.206 0.047,-0.112 0.113,-0.047 0.169,-0.047 0.046,0 0.121,0.085 0.14,0.112 0.019,0.029 0.047,0.122 0.047,0.122 l -0.019,0.103 c 0,0 -0.018,0.112 -0.018,0.14 0,0.028 -0.019,0.075 -0.019,0.075 l -0.066,0.074 c 0,0 -0.019,0.122 -0.037,0.225 -0.019,0.093 -0.009,0.131 -0.009,0.131 l 0.009,0.112 -0.038,0.112 -0.009,0.131 -0.009,0.159 0.018,0.177 -0.018,0.14 -0.037,0.196 0.027,0.141 c 0,0 0,0.083 -0.009,0.131 -0.009,0.037 -0.038,0.083 -0.038,0.083 v 0.178 c 0.01,0.019 -0.055,0.112 -0.055,0.112 v 0.15 l -0.038,0.139 0.019,0.122 c 0,0 -0.028,0.14 -0.037,0.159 0,0.018 0.027,0.206 0.027,0.206 l -0.018,0.14 0.056,0.224 0.037,0.14 v 0.14 l 0.066,0.094 v 0.149 l 0.103,0.299 0.056,0.093 0.019,0.168 v 0.159 l 0.037,0.066 0.055,0.074 -0.018,0.122 z"
       id="path14" /><path
       d="m 576.2322,892.7659 c 0.018,0.056 0.094,0.14 0.094,0.14 l 0.046,0.028 v 0.075 c 0,0 0.075,0.131 0.104,0.177 0.018,0.038 0.112,0.3 0.139,0.374 0.037,0.066 0.047,0.112 0.047,0.112 l 0.065,0.066 c 0,0 0.047,0.131 0.066,0.177 0.019,0.047 0.056,0.103 0.084,0.122 0.019,0.019 0.047,0.093 0.047,0.093 0,0 0.009,0.103 0.019,0.131 0.018,0.028 0.093,0.177 0.112,0.224 0.018,0.038 0.084,0.159 0.111,0.234 0.028,0.075 0.028,0.084 0.028,0.121 0,0.038 0.019,0.075 0.019,0.112 0.01,0.038 0.057,0.066 0.075,0.122 0.019,0.047 0.019,0.075 0.056,0.103 0.037,0.018 0.066,0.037 0.066,0.065 0,0.028 -0.01,0.094 0.037,0.131 0.056,0.037 0.028,0.102 0.018,0.158 -0.018,0.057 0.01,0.075 0.028,0.094 0.01,0.01 0.029,0.094 0.019,0.159 -0.009,0.065 0.056,0.121 0.075,0.15 0.028,0.027 0.066,0.055 0.056,0.102 0,0.047 -0.028,0.084 -0.065,0.159 -0.028,0.075 -0.131,0.084 -0.168,0.084 -0.048,0 -0.197,-0.028 -0.281,-0.009 -0.084,0.018 -0.112,0.046 -0.14,0.065 -0.038,0.028 -0.112,0.122 -0.14,0.168 -0.019,0.038 -0.075,0.066 -0.084,0.094 -0.019,0.028 -0.028,0 -0.15,0.009 -0.121,0.009 -0.093,-0.093 -0.093,-0.093 0,0 0.01,-0.122 0.01,-0.15 0,-0.037 0.009,-0.084 -0.047,-0.149 -0.066,-0.066 -0.075,-0.094 -0.113,-0.141 -0.037,-0.046 -0.056,-0.13 -0.056,-0.158 0,-0.019 -0.046,-0.056 -0.066,-0.075 -0.018,-0.01 -0.074,-0.075 -0.083,-0.103 -0.019,-0.018 -0.048,0 -0.074,-0.056 -0.029,-0.046 -0.011,-0.112 -0.029,-0.14 -0.01,-0.037 -0.037,-0.066 -0.093,-0.121 -0.056,-0.056 -0.038,-0.094 -0.029,-0.113 0,-0.018 0.085,-0.13 0.122,-0.158 0.047,-0.038 0.093,-0.019 0.112,-0.009 0.019,0.009 0.112,0 0.14,0.009 0.019,0 0.112,0.065 0.112,0.112 0,0.046 0.028,0.065 0.048,0.093 0.009,0.019 -0.01,0.066 0.009,0.103 0.018,0.028 0.056,0.037 0.047,0.093 0,0.047 0.027,0.085 0.037,0.103 0,0.01 0.046,0.056 0.083,0.084 0.029,0.037 0.048,0.066 0.113,0.093 0.056,0.029 0.028,0.085 0.028,0.131 0,0.047 0.056,0.066 0.103,0.056 0.047,0 0.065,-0.028 0.065,-0.056 0.009,-0.018 0.028,-0.065 0.047,-0.131 0.018,-0.074 0,-0.065 -0.01,-0.121 0,-0.056 0.01,-0.186 0.01,-0.215 0,-0.028 -0.038,-0.121 -0.057,-0.168 -0.018,-0.046 -0.046,-0.196 -0.074,-0.262 -0.028,-0.055 -0.094,-0.139 -0.094,-0.177 0,-0.047 -0.056,-0.112 -0.056,-0.112 0,0 -0.009,-0.074 -0.009,-0.094 0,-0.019 -0.066,-0.102 -0.121,-0.168 -0.047,-0.065 -0.009,-0.102 -0.028,-0.177 -0.01,-0.066 -0.019,-0.122 -0.093,-0.224 -0.094,-0.131 -0.104,-0.169 -0.113,-0.216 0,-0.046 0,-0.112 -0.037,-0.167 -0.038,-0.066 -0.056,-0.094 -0.066,-0.131 0,-0.038 -0.084,-0.14 -0.084,-0.14 0,0 -0.028,-0.048 -0.065,-0.075 -0.029,-0.028 -0.018,-0.056 -0.018,-0.122 -0.011,-0.056 -0.048,-0.093 -0.048,-0.093 0,0 -0.018,-0.075 -0.046,-0.15 -0.028,-0.074 -0.113,-0.093 -0.075,-0.14 0.028,-0.037 -0.028,-0.084 -0.046,-0.112 -0.029,-0.028 -0.076,0.037 -0.132,-0.14 -0.046,-0.168 -0.075,-0.075 -0.075,-0.075 0,0 -0.019,0.084 0,0.177 0.019,0.094 0.019,0.094 0.047,0.178 0.028,0.084 -0.028,0.056 -0.028,0.112 -0.009,0.056 0,0.159 0.038,0.197 0.037,0.037 0.046,0.121 0.093,0.215 0.037,0.084 0.15,0.205 0.178,0.242 0.028,0.038 0.046,0.038 0.083,0.038 0.029,0.009 0.02,0.121 0.02,0.168 0.009,0.047 0.046,0.084 0.074,0.122 0.028,0.037 0.074,0.083 0.084,0.102 0.019,0.019 0.047,0.196 0.103,0.299 0.056,0.103 0.009,0.103 0.009,0.131 -0.009,0.028 -0.037,0.037 -0.084,0.056 -0.038,0.028 -0.103,-0.009 -0.112,-0.046 0,-0.038 -0.009,-0.113 -0.009,-0.113 0,0 -0.056,-0.037 -0.065,-0.056 -0.009,-0.018 -0.038,-0.121 -0.038,-0.168 0,-0.047 -0.093,-0.14 -0.149,-0.233 -0.057,-0.094 -0.131,-0.188 -0.169,-0.225 -0.046,-0.037 -0.083,-0.233 -0.112,-0.28 -0.019,-0.047 -0.121,-0.168 -0.14,-0.233 -0.009,-0.057 -0.056,-0.16 -0.056,-0.16 l -0.056,-0.168 -0.084,-0.261 0.009,-0.131 -0.037,-0.093 v -0.169 l -0.028,-0.168 -0.038,-0.14 0.01,-0.103 0.037,-0.131 0.103,-0.065 0.084,-0.046 0.075,0.027 0.056,0.066 0.074,0.056 0.085,0.168 0.102,0.15 c 0,0 0.019,0.102 0.038,0.121 0.018,0.018 0.121,0.187 0.121,0.187 l 0.047,0.028 0.046,0.056 0.011,0.093 0.074,0.121 c 0,0 0.047,0.039 0.065,0.094"
       id="path15" /><path
       d="m 579.8951,893.7938 c 0,0.047 -0.019,0.13 -0.047,0.187 -0.018,0.056 -0.158,0.14 -0.186,0.159 -0.029,0.008 -0.15,0.028 -0.15,0.028 -0.159,0.094 -0.103,0.037 -0.149,0.056 -0.038,0.019 -0.113,0.019 -0.206,0.019 -0.094,0 -0.075,0 -0.112,0.019 -0.038,0.018 -0.075,0.046 -0.168,0.074 -0.104,0.028 -0.113,0.019 -0.141,0.056 -0.019,0.028 -0.177,0.103 -0.233,0.131 -0.056,0.019 -0.066,0.046 -0.103,0.084 -0.028,0.037 -0.056,0.037 -0.103,0.065 -0.037,0.028 -0.046,0.084 -0.046,0.084 0,0 -0.084,0.066 -0.179,0.122 -0.093,0.065 0.029,0.14 0.029,0.14 0,0 0.047,0.075 0.074,0.084 0.038,0.009 0.206,0.047 0.244,0.056 0.028,0.009 0.121,0.019 0.13,0.047 0.01,0.028 0.066,0.084 0.093,0.093 0.029,0 0.113,0.019 0.141,0.047 0.028,0.028 0.065,0.112 0.074,0.131 0.02,0.028 0.094,0.112 0.103,0.149 0.019,0.038 0.056,0.169 0.056,0.224 0,0.066 0.047,0.15 0.084,0.206 0.048,0.047 -0.028,0.178 -0.028,0.178 0,0 -0.158,0.084 -0.187,0.102 -0.028,0.01 -0.046,0.038 -0.102,0.075 -0.047,0.028 -0.066,0.038 -0.047,0.112 0.028,0.075 0.01,0.15 0,0.206 -0.009,0.056 -0.084,0.084 -0.15,0.112 -0.064,0.028 -0.102,0 -0.139,0 -0.047,-0.01 -0.047,-0.075 -0.066,-0.112 -0.028,-0.047 -0.056,-0.094 -0.056,-0.094 0,0 -0.046,-0.028 -0.074,-0.056 -0.028,-0.019 -0.038,-0.056 -0.048,-0.112 -0.009,-0.065 -0.009,-0.103 -0.009,-0.177 0,-0.066 -0.037,-0.056 -0.056,-0.112 -0.018,-0.057 -0.074,-0.075 -0.112,-0.159 -0.037,-0.084 0.028,-0.112 0.01,-0.169 -0.01,-0.055 -0.019,-0.084 -0.019,-0.149 0,-0.065 0.037,-0.075 0.084,-0.075 0.047,0 0.102,0.047 0.159,0.047 0.056,0 0.102,-0.037 0.112,-0.112 0.009,-0.075 -0.028,-0.094 -0.085,-0.112 -0.055,-0.019 -0.008,-0.047 -0.093,-0.094 -0.084,-0.037 -0.102,-0.093 -0.102,-0.093 0,0 -0.056,-0.075 -0.093,-0.094 -0.038,-0.009 -0.047,-0.027 -0.066,-0.083 -0.028,-0.057 -0.084,-0.075 -0.112,-0.104 -0.029,-0.028 -0.122,0.019 -0.196,0.019 -0.085,0 -0.095,-0.009 -0.132,-0.028 -0.046,-0.019 -0.112,-0.065 -0.131,-0.186 -0.009,-0.122 0,-0.085 0,-0.169 0,-0.074 0.075,-0.065 0.188,-0.093 0.121,-0.019 0.13,0.028 0.224,0.046 0.084,0.019 0.103,-0.009 0.159,-0.018 0.046,0 0.084,-0.038 0.112,-0.047 0.027,-0.009 0.103,-0.093 0.103,-0.093 l 0.131,-0.103 c 0,0 0.102,-0.075 0.14,-0.131 0.028,-0.046 0.084,-0.103 0.112,-0.112 0.028,-0.009 0.159,-0.112 0.215,-0.168 0.056,-0.047 0.111,-0.056 0.168,-0.103 0.056,-0.038 0.168,-0.018 0.196,-0.018 0.028,0 0.084,-0.029 0.084,-0.029 l 0.112,-0.037 c 0,0 0.131,-0.075 0.159,-0.122 0.037,-0.037 0.206,-0.13 0.253,-0.168 0.055,-0.028 0.13,-0.009 0.186,0.028 0.047,0.028 0.056,0.122 0,0.196 -0.056,0.066 -0.009,0.094 -0.009,0.15"
       id="path16" /><path
       d="m 574.8779,893.8778 c -0.019,-0.028 -0.084,-0.103 -0.122,-0.131 -0.018,-0.019 -0.065,-0.056 -0.102,-0.084 -0.01,-0.01 -0.028,-0.019 -0.038,-0.019 -0.056,-0.037 -0.102,-0.009 -0.187,0.009 -0.075,0.029 -0.065,0.15 -0.056,0.169 0.01,0.028 0.047,0.112 0.047,0.14 0.009,0.038 0.009,0.112 0.028,0.15 0.018,0.046 0.056,0.093 0.066,0.13 0.009,0.047 0.027,0.038 0.036,0.066 0.01,0.028 0.029,0.038 0.039,0.177 0,0.075 0.037,0.094 0.065,0.094 0.028,0 0.055,-0.019 0.055,-0.019 l 0.029,-0.037 c 0,0 0.074,-0.084 0.093,-0.131 0.019,-0.046 0.047,-0.037 0.028,-0.121 -0.019,-0.075 0.009,-0.038 0.028,-0.094 0.019,-0.065 0.019,-0.149 0.038,-0.186 0.028,-0.048 -0.038,-0.085 -0.047,-0.113 m -0.645,0.458 v -0.065 c 0,0 -0.037,-0.047 -0.056,-0.094 0,-0.01 -0.01,-0.01 -0.01,-0.019 -0.018,-0.028 -0.046,-0.046 -0.065,-0.055 -0.018,-0.01 -0.018,0.139 -0.018,0.139 0,0 0.028,0.16 0.028,0.215 0.009,0.047 0.028,0.085 0.055,0.122 0.038,0.037 0.075,-0.028 0.075,-0.028 0,0 0,-0.047 0.01,-0.075 0,-0.028 -0.019,-0.047 -0.028,-0.084 -0.01,-0.046 0.009,-0.056 0.009,-0.056 m 1.065,-0.654 c 0,0 0.047,0.037 0.056,0.056 0.019,0.028 0.01,0.122 0.01,0.122 l -0.056,0.093 v 0.121 c 0,0.038 -0.056,0.159 -0.056,0.159 l -0.029,0.103 -0.065,0.13 -0.028,0.113 -0.065,0.112 0.018,0.065 -0.038,0.038 -0.018,0.065 0.065,0.122 0.056,0.083 0.084,0.131 0.094,0.159 0.094,0.094 0.027,0.075 c 0,0 0.094,0.074 0.112,0.093 0.01,0.019 0.038,0.074 0.048,0.103 0.009,0.018 0.074,0.046 0.093,0.065 0.028,0.019 0.046,0.103 0.046,0.103 l 0.029,0.074 0.065,0.076 0.01,0.093 v 0.075 l -0.075,0.046 c 0,0 -0.103,0.037 -0.112,0.047 -0.019,0.019 -0.216,0.056 -0.243,0.056 -0.038,0.009 -0.29,-0.028 -0.346,-0.028 -0.047,0 -0.168,-0.065 -0.196,-0.093 -0.038,-0.028 -0.131,-0.057 -0.131,-0.057 0,0 -0.056,-0.046 -0.093,-0.074 -0.02,-0.009 -0.028,-0.019 -0.038,-0.019 -0.047,-0.028 -0.14,-0.103 -0.187,-0.14 -0.046,-0.028 -0.093,-0.075 -0.093,-0.075 l -0.075,-0.009 -0.047,-0.056 c 0,0 -0.018,-0.009 -0.047,-0.029 -0.037,-0.018 -0.074,-0.046 -0.112,-0.055 -0.055,-0.019 -0.093,-0.084 -0.139,-0.122 -0.048,-0.037 -0.225,-0.149 -0.253,-0.177 -0.028,-0.019 -0.149,-0.094 -0.168,-0.103 -0.019,-0.01 -0.094,-0.018 -0.15,0.028 -0.046,0.047 -0.112,0.121 -0.122,0.14 -0.018,0.019 -0.037,0.009 -0.074,0 -0.038,-0.01 -0.028,-0.037 -0.047,-0.065 -0.009,-0.038 0.009,-0.066 0.019,-0.094 0.01,-0.037 0.028,-0.065 0.019,-0.102 0,-0.038 -0.047,-0.066 -0.047,-0.066 -0.028,-0.038 -0.074,-0.075 -0.074,-0.131 -0.01,-0.056 0.027,-0.121 0.056,-0.14 0.036,-0.028 0.018,-0.037 0.018,-0.084 -0.009,-0.047 0,-0.075 0,-0.075 0,0 0.066,-0.084 0.075,-0.112 0.018,-0.028 0.093,-0.065 0.121,-0.065 0.028,0 0.215,0.056 0.215,0.056 0,0 0.113,0.019 0.15,0.056 0.037,0.038 0.028,0.103 0.028,0.168 0,0.066 0.028,0.066 0.065,0.084 0.038,0.01 0.084,0.084 0.084,0.084 l 0.066,0.084 c 0,0 0.074,0.037 0.084,0.047 0.009,0.019 0.112,0.056 0.14,0.065 0.019,0.01 0.028,0.019 0.046,0.037 0.019,0.029 0.038,0.048 0.038,0.048 0,0 0.028,0.074 0.037,0.093 0,0.028 0.075,0.065 0.075,0.065 l 0.047,0.047 c 0,0 0.028,0.056 0.019,0.122 -0.01,0.065 0,0.065 0,0.065 h 0.112 c 0.037,0 0.084,0.075 0.102,0.084 0.019,0.018 0.047,0.084 0.047,0.084 h 0.01 l 0.093,0.038 0.084,0.065 0.065,0.046 c 0,0 0.094,0.048 0.121,0.056 0.028,0 0.113,0.075 0.113,0.075 0,0 0.037,0.047 0.065,0.056 0.028,0 0.065,-0.037 0.065,-0.037 0,0 0.019,-0.046 0.029,-0.065 v -0.066 l -0.047,-0.13 -0.066,-0.066 -0.055,-0.112 -0.066,-0.075 -0.065,-0.112 -0.065,-0.047 -0.029,-0.074 c 0,0 -0.056,-0.085 -0.075,-0.112 -0.018,-0.029 -0.121,-0.206 -0.13,-0.234 0,-0.01 -0.019,-0.028 -0.037,-0.056 l -0.065,-0.065 -0.029,-0.085 -0.056,-0.065 -0.131,0.009 c 0,0 -0.019,0.037 0,0.066 0.01,0.028 -0.046,0.056 -0.046,0.056 l -0.047,0.046 h -0.113 c 0,0 -0.074,-0.009 -0.102,-0.018 -0.029,-0.009 -0.065,-0.113 -0.065,-0.113 l -0.029,-0.037 0.029,-0.046 0.028,-0.075 -0.019,-0.037 -0.009,-0.029 0.009,-0.055 -0.019,-0.038 -0.019,-0.075 -0.028,-0.083 v -0.075 l 0.019,-0.056 -0.009,-0.075 -0.019,-0.084 -0.037,-0.065 v -0.104 l 0.037,-0.065 v -0.075 l 0.047,-0.084 0.028,-0.093 0.056,-0.066 0.102,-0.112 0.019,-0.019 0.038,-0.056 -0.01,-0.093 v -0.094 l -0.047,-0.065 -0.018,-0.177 -0.028,-0.215 -0.019,-0.197 0.01,-0.317 -0.028,-0.206 v -0.103 l -0.01,-0.065 0.01,-0.15 -0.038,-0.149 v -0.14 l -0.037,-0.14 0.009,-0.066 v -0.112 l -0.018,-0.14 -0.029,-0.187 -0.018,-0.205 v -0.15 l -0.047,-0.121 v -0.206 l -0.019,-0.224 -0.028,-0.056 -0.009,-0.112 v -0.075 l 0.018,-0.074 -0.046,-0.094 -0.028,-0.065 -0.019,-0.14 -0.018,-0.075 v -0.085 l 0.018,-0.055 v -0.075 c -0.009,-0.038 0,-0.103 0.01,-0.122 0,-0.018 0.065,-0.168 0.093,-0.196 0.019,-0.028 0.122,-0.14 0.158,-0.187 0.038,-0.047 0.104,-0.056 0.131,-0.056 h 0.01 c 0.028,0 0.075,0.028 0.075,0.028 l 0.018,0.056 0.047,0.075 c 0,0 0.028,0.065 0.028,0.103 0,0.028 -0.018,0.13 -0.028,0.149 0,0.019 -0.037,0.085 -0.047,0.122 0,0.028 -0.046,0.131 -0.046,0.131 0,0 -0.028,0.084 -0.038,0.121 0,0.019 -0.009,0.037 -0.019,0.066 -0.008,0.046 -0.018,0.083 -0.018,0.102 0,0.019 0.01,0.047 0.018,0.066 0.01,0.028 0.029,0.056 0.029,0.074 0,0.028 -0.01,0.065 -0.01,0.065 l 0.01,0.075 c 0,0 -0.01,0.075 -0.01,0.085 0,0.019 0.028,0.065 0.028,0.093 0,0.028 -0.028,0.056 -0.028,0.056 l 0.038,0.075 c 0.009,0.009 0,0.075 0.009,0.102 0.009,0.038 0.028,0.066 0.028,0.094 0,0.028 0.009,0.103 0,0.159 -0.009,0.056 0,0.103 0,0.14 0.009,0.038 0.009,0.131 0.009,0.159 0,0.037 -0.009,0.103 -0.009,0.103 0,0 0.009,0.121 0.009,0.14 0.01,0.018 0,0.121 0,0.121 l 0.01,0.112 0.018,0.15 v 0.121 l 0.01,0.056 c 0,0 0.019,0.093 0.019,0.103 0,0.019 -0.029,0.103 -0.038,0.14 -0.019,0.029 0.028,0.084 0.019,0.168 0,0.085 0.009,0.169 0.009,0.187 0.01,0.019 0.019,0.169 0.019,0.197 0,0.027 0.009,0.112 0.009,0.112 0,0 -0.047,0.018 -0.018,0.074 0.037,0.066 0.075,0.168 0.084,0.187 0.009,0.019 0.018,0.075 0.028,0.112 0.018,0.038 0.009,0.122 0.018,0.159 0.009,0.028 0,0.094 -0.009,0.14 -0.009,0.047 -0.019,0.084 0.009,0.122 0.028,0.037 0.028,0.093 0.009,0.121 -0.009,0.037 -0.037,0.085 -0.064,0.122 -0.019,0.046 0.018,0.074 0.037,0.084 0.009,0.009 0.065,0.047 0.065,0.047 0,0 0.056,0.037 0.085,0.056 0.008,0.009 0.037,0.009 0.065,0.018 0.037,0.01 0.093,0.028 0.102,0.028 0.019,0.01 0.103,0.01 0.122,0.019 0.018,0.01 0.102,0.047 0.121,0.047 0.018,0 0.159,0.037 0.159,0.037 l 0.102,0.065 z"
       id="path17" /><path
       d="m 577.316,890.4304 c 0,0 -0.046,-0.103 -0.056,-0.131 0,-0.038 -0.019,-0.14 -0.028,-0.159 -0.01,-0.01 -0.047,-0.066 -0.084,-0.028 -0.019,0.009 -0.038,0.028 -0.056,0.047 -0.028,0.028 -0.056,0.056 -0.065,0.075 -0.019,0.037 -0.019,0.046 -0.038,0.074 -0.019,0.038 0.009,0.056 -0.037,0.084 -0.047,0.028 -0.103,0.038 -0.112,0.075 -0.019,0.057 0,0.103 0.046,0.168 0.037,0.057 0.076,0.047 0.112,0.075 0.019,0.019 0.066,0.056 0.094,0.084 0.018,0.01 0.028,0.019 0.028,0.028 0.019,0.01 0.084,0.028 0.112,0.01 0.028,-0.019 0.094,-0.028 0.112,-0.075 0.009,-0.047 0.009,-0.075 0,-0.131 0,-0.047 0.009,-0.093 -0.028,-0.196 m 1.635,0.654 c -0.037,0.037 -0.075,0.075 -0.121,0.102 -0.056,0.029 -0.178,0.094 -0.224,0.113 -0.047,0.028 -0.197,0.093 -0.197,0.093 -0.075,0.037 -0.121,-0.019 -0.121,-0.019 0,0 -0.047,-0.009 -0.112,-0.028 -0.159,-0.046 -0.206,-0.009 -0.318,0.028 -0.094,0.029 -0.056,0.169 -0.047,0.215 0.01,0.047 0.019,0.187 0.019,0.234 0,0.047 0.01,0.149 0.01,0.196 0,0.047 -0.019,0.14 -0.01,0.243 0.01,0.094 0,0.243 0,0.29 0.019,0.093 0.075,0.084 0.075,0.084 l 0.037,0.093 c 0,0 0.112,0.066 0.205,0.112 0.104,0.047 0.076,0.094 0.085,0.159 0.009,0.066 -0.15,0.131 -0.215,0.178 -0.065,0.046 -0.121,0.028 -0.121,0.028 0,0 -0.085,-0.019 -0.15,-0.066 -0.076,-0.056 -0.131,-0.186 -0.131,-0.186 0,0 -0.112,-0.057 -0.149,-0.084 -0.037,-0.029 -0.094,-0.113 -0.131,-0.159 -0.028,-0.056 -0.094,-0.075 -0.159,-0.131 -0.028,-0.019 -0.056,-0.047 -0.084,-0.066 -0.037,-0.038 -0.084,-0.075 -0.112,-0.112 -0.057,-0.075 -0.15,-0.028 -0.159,0.047 -0.009,0.065 0.037,0.122 0.037,0.122 l 0.094,0.112 0.103,0.093 0.037,0.103 0.018,0.028 0.075,0.037 0.029,0.065 0.056,0.104 0.214,0.037 c 0,0 0.122,0.028 0.178,0.028 0.047,0 0.093,0.084 0.121,0.122 0.028,0.037 0.094,0.139 0.094,0.139 0,0 -0.103,0.197 -0.197,0.243 -0.083,0.047 -0.12,0.047 -0.12,0.047 l -0.123,-0.028 -0.223,-0.019 -0.085,-0.093 c 0,0 -0.019,-0.01 -0.037,-0.019 -0.028,-0.019 -0.056,-0.037 -0.065,-0.046 -0.029,-0.029 -0.047,-0.038 -0.057,-0.094 -0.008,-0.066 0.028,-0.066 0.057,-0.066 0.009,-0.009 0.037,-0.018 0.065,-0.037 0.018,0 0.028,-0.009 0.037,-0.019 0.028,-0.008 0.037,-0.037 0.028,-0.056 0,-0.018 -0.037,-0.046 -0.065,-0.102 -0.01,-0.01 -0.01,-0.019 -0.019,-0.028 -0.018,-0.084 -0.056,-0.14 -0.075,-0.168 -0.018,-0.028 -0.046,-0.038 -0.046,-0.038 0,0 0,-0.046 -0.019,-0.065 -0.028,-0.028 -0.047,0 -0.075,-0.075 -0.028,-0.075 -0.046,-0.056 -0.121,-0.121 -0.075,-0.075 -0.112,-0.131 -0.168,-0.216 -0.047,-0.083 -0.028,-0.13 -0.028,-0.167 0.009,-0.038 -0.009,-0.094 -0.009,-0.113 0,-0.009 0.037,-0.093 0.037,-0.131 0.009,-0.027 0.028,-0.102 0.093,-0.177 0.056,-0.066 0.15,-0.009 0.168,0 0.019,0.019 0.085,0.093 0.103,0.102 0.009,0.019 0.065,0.038 0.094,0.038 0.018,0.01 0.046,0.075 0.046,0.075 0,0 0.009,0.009 0.019,0.009 0.018,0.009 0.047,0.028 0.065,0.047 0.047,0.028 0.057,0.056 0.057,0.056 0.046,0.206 0.223,0.112 0.223,0.112 0.038,-0.009 0.047,-0.075 0.057,-0.14 0.019,-0.066 -0.01,-0.14 -0.01,-0.168 0,-0.029 -0.018,-0.085 -0.028,-0.122 -0.019,-0.037 -0.008,-0.121 -0.008,-0.121 0,-0.093 -0.019,-0.075 -0.048,-0.131 -0.028,-0.047 -0.019,-0.093 -0.019,-0.131 0,-0.028 -0.009,-0.121 -0.018,-0.149 -0.019,-0.028 -0.065,-0.084 -0.065,-0.131 0,-0.047 -0.01,-0.066 -0.028,-0.122 -0.019,-0.055 -0.122,-0.027 -0.169,-0.046 h -0.009 c -0.047,-0.019 -0.094,-0.038 -0.159,-0.093 -0.066,-0.066 -0.112,-0.038 -0.215,-0.038 -0.112,0 -0.065,0.028 -0.149,0.047 -0.084,0.018 -0.056,0.028 -0.113,0.037 -0.065,0 -0.055,-0.009 -0.139,-0.009 -0.085,0 -0.075,-0.037 -0.104,-0.066 -0.027,-0.019 -0.074,-0.027 -0.093,-0.084 -0.009,-0.056 0,-0.093 0.047,-0.14 0.056,-0.038 0.056,-0.075 0.046,-0.103 0,-0.019 0.029,-0.094 0.094,-0.14 0.037,-0.028 0.112,-0.056 0.178,-0.056 0.056,-0.01 0.13,-0.019 0.196,-0.037 0.074,-0.019 0.093,-0.122 0.103,-0.131 0,-0.019 0.028,-0.085 0.083,-0.122 0.048,-0.037 0.056,-0.056 0.122,-0.14 0.047,-0.056 0.056,-0.047 0.103,-0.112 0.009,-0.018 0.018,-0.037 0.037,-0.065 0.066,-0.14 0.019,-0.094 0.028,-0.131 0.019,-0.047 0.019,-0.103 0.009,-0.15 -0.009,-0.046 0.01,-0.112 0.029,-0.14 0.009,-0.028 -0.01,-0.018 0.037,-0.055 0.047,-0.048 0.047,-0.085 0.112,-0.159 0.028,-0.038 0.056,-0.076 0.159,-0.084 0.103,-0.019 0.188,0.102 0.206,0.177 0.018,0.074 0.027,0.103 0.018,0.196 -0.009,0.094 0,0.103 0,0.131 0.009,0.028 0.028,0.065 0.037,0.112 0.01,0.056 -0.018,0.075 -0.028,0.131 -0.009,0.046 0.038,0.121 0.056,0.168 0.01,0.046 0.029,0.102 0.038,0.168 0.01,0.065 0.01,0.112 0.01,0.14 0.009,0.019 0.018,0.122 0.037,0.205 0.009,0.085 -0.047,0.15 -0.066,0.188 -0.019,0.046 -0.009,0.121 -0.009,0.149 0,0.038 -0.047,0.122 -0.056,0.159 -0.01,0.038 0.028,0.112 0.037,0.159 0.009,0.056 0.047,0.046 0.047,0.046 0.019,0.01 0.056,0.029 0.103,0.019 0.057,0 0.057,-0.028 0.084,-0.037 0.018,0 0.093,-0.009 0.122,-0.038 0.037,-0.018 0.084,-0.065 0.084,-0.065 0,0 -0.01,-0.065 0.037,-0.13 0.047,-0.075 0.074,-0.141 0.102,-0.178 0.019,-0.038 0.019,-0.047 0.019,-0.047 0.019,-0.028 0.019,-0.084 0.028,-0.112 0.01,-0.038 0.01,-0.074 0.029,-0.159 0.027,-0.149 0.102,-0.149 0.149,-0.168 0.046,-0.019 0.121,-0.037 0.206,-0.066 0.075,-0.028 0.196,-0.009 0.196,-0.009 0,0 0.102,0.094 0.074,0.262 -0.018,0.084 -0.009,0.177 0.019,0.224 0.018,0.047 -0.057,0.178 -0.075,0.253 -0.018,0.065 -0.018,0.112 -0.056,0.149"
       id="path18" /><path
       d="m 586.6591,894.8967 c 0.038,0 0.122,0.018 0.122,0.018 l 0.093,0.075 c 0,0 0.075,0.028 0.104,0.028 0.028,0 0.111,-0.019 0.14,-0.019 0.028,0 0.065,-0.13 0.065,-0.13 0,0 0.056,-0.066 0.093,-0.113 0.037,-0.047 0.102,-0.047 0.102,-0.047 l 0.094,0.085 0.066,0.009 0.046,0.075 0.141,0.103 0.027,0.112 -0.009,0.271 c 0,0 -0.122,0.308 -0.149,0.364 -0.029,0.056 -0.15,0.047 -0.15,0.047 l -0.336,0.009 c 0,0 -0.112,0.075 -0.215,0.094 -0.102,0.009 -0.131,-0.066 -0.131,-0.066 l -0.009,-0.084 v -0.177 l 0.047,-0.131 -0.038,-0.084 c 0,0 0.01,-0.084 -0.047,-0.121 -0.056,-0.029 -0.111,-0.104 -0.111,-0.104 0,0 -0.047,-0.13 -0.047,-0.159 0,-0.027 0.074,-0.055 0.102,-0.055"
       id="path19" /><path
       d="m 584.9777,893.9995 c -0.019,-0.075 -0.028,-0.169 -0.037,-0.225 -0.01,-0.056 -0.038,-0.177 -0.047,-0.261 -0.018,-0.075 -0.01,-0.206 -0.029,-0.234 -0.008,-0.028 0,-0.158 0,-0.196 -0.008,-0.037 -0.046,-0.121 -0.055,-0.15 -0.01,-0.037 -0.037,-0.205 -0.037,-0.205 0,0 -0.084,-0.121 -0.122,0.019 -0.038,0.112 -0.112,0.196 -0.112,0.196 l -0.084,0.056 c 0,0 -0.046,0.066 -0.131,0 -0.009,-0.018 -0.019,-0.028 -0.038,-0.047 -0.093,-0.131 -0.055,-0.177 -0.055,-0.252 -0.01,-0.074 0,-0.177 -0.019,-0.206 -0.028,-0.037 -0.037,-0.074 -0.037,-0.149 -0.01,-0.065 -0.028,-0.177 -0.066,-0.215 -0.037,-0.047 -0.084,-0.14 -0.178,-0.149 -0.093,-0.01 -0.167,-0.075 -0.214,-0.019 -0.056,0.046 -0.056,0.056 -0.047,0.121 0,0.066 0.018,0.131 0.066,0.159 0.046,0.038 0.056,0.085 0.083,0.16 0.029,0.074 0.085,0.214 0.085,0.214 l 0.083,0.177 0.075,0.15 0.093,0.103 0.076,0.215 0.093,0.065 0.028,0.028 0.037,0.112 c 0,0 0.085,0.103 0.103,0.121 0.009,0.029 0.131,0.159 0.131,0.159 0,0 -0.01,0.094 0.028,0.131 0.038,0.028 0.028,0.159 0.028,0.159 0,0 0.01,0.057 0.01,0.103 0.009,0.037 0.121,0.168 0.214,0.075 0.093,-0.094 0.093,-0.141 0.075,-0.215 m 3.915,-4.392 -0.019,0.271 c 0,0 -0.01,0.066 -0.037,0.094 -0.029,0.037 -0.14,0.121 -0.177,0.233 -0.029,0.112 -0.057,0.299 -0.066,0.336 -0.019,0.038 -0.028,0.16 -0.038,0.187 -0.009,0.029 -0.055,0.104 -0.102,0.094 -0.057,-0.009 -0.103,-0.037 -0.103,-0.14 0,-0.112 0.009,-0.262 0.019,-0.309 0.019,-0.037 0.019,-0.214 0.019,-0.261 0.008,-0.056 -0.038,-0.121 -0.038,-0.121 l -0.047,-0.113 v -0.112 c 0,0 -0.019,-0.018 -0.065,-0.028 -0.037,-0.019 -0.103,-0.065 -0.178,-0.065 -0.075,0 -0.121,-0.009 -0.178,0.019 -0.046,0.027 -0.111,0.056 -0.158,0.056 -0.047,0.009 -0.214,0.046 -0.271,0.084 -0.046,0.046 -0.14,0.093 -0.14,0.14 0,0.046 0.01,0.084 -0.009,0.14 -0.019,0.056 -0.047,0.103 -0.038,0.178 0.01,0.074 0.057,0.056 0.029,0.158 -0.038,0.103 -0.066,0.215 -0.057,0.262 0.009,0.038 0.009,0.131 0.019,0.187 0.009,0.046 0.038,0.084 0.038,0.131 0,0.046 0,0.121 0.009,0.177 0.019,0.056 0.056,0.103 0.056,0.168 0,0.075 -0.01,0.112 0.009,0.169 0.028,0.056 0.084,0.186 0.103,0.224 0.009,0.037 0,0.112 0.028,0.14 0.028,0.027 0.056,0.046 0.075,0.131 0.018,0.074 0.084,0.112 0.084,0.158 0,0.057 0,0.085 -0.029,0.132 -0.018,0.055 -0.065,0.065 -0.055,0.186 0.009,0.122 0.028,0.122 -0.057,0.122 -0.093,0 -0.131,-0.038 -0.177,-0.047 l -0.15,-0.037 c 0,0 -0.037,-0.103 -0.065,-0.112 -0.038,-0.01 -0.065,-0.028 -0.112,-0.085 -0.047,-0.047 -0.019,-0.018 -0.084,-0.093 -0.065,-0.075 -0.15,-0.131 -0.15,-0.15 0,-0.028 -0.084,-0.111 -0.112,-0.168 -0.028,-0.056 -0.102,-0.13 -0.102,-0.13 0,0 -0.094,-0.075 -0.094,-0.019 0.01,0.065 0.065,0.102 0.056,0.149 -0.009,0.047 -0.019,0.113 -0.019,0.15 0,0.037 0.075,0.168 0.057,0.234 -0.019,0.065 -0.019,0.196 0.009,0.251 0.028,0.066 0.093,0.113 0.121,0.159 0.028,0.047 0.15,0.084 0.177,0.122 0.029,0.047 0.094,0.047 0.104,0.112 0.009,0.065 0.009,0.065 0.028,0.122 0.028,0.056 0.13,0.14 0.14,0.168 0,0.018 0.037,0.084 0.037,0.084 l 0.056,0.028 0.038,0.065 c 0,0 0.047,0.01 0.084,0.019 0.037,0.009 0.093,0.056 0.121,0.056 h 0.066 c 0,0 0.018,0.037 0.065,0.112 0.037,0.084 0.065,0.14 0.103,0.196 0.046,0.065 0.102,0.159 0.102,0.159 0,0 0.038,0.01 0.029,0.131 -0.01,0.112 -0.047,0.187 -0.113,0.206 -0.065,0.018 -0.121,0.018 -0.121,0.018 0,0 -0.14,-0.075 -0.215,-0.121 -0.074,-0.047 -0.215,-0.168 -0.262,-0.253 -0.037,-0.075 -0.102,-0.112 -0.187,-0.158 -0.075,-0.047 -0.14,-0.066 -0.177,-0.094 -0.047,-0.037 -0.113,-0.018 -0.187,-0.065 -0.065,-0.047 -0.159,-0.14 -0.205,-0.15 -0.047,-0.009 -0.131,-0.046 -0.169,-0.075 -0.047,-0.037 -0.037,-0.056 -0.093,-0.065 -0.065,0 -0.149,-0.047 -0.215,-0.084 -0.075,-0.028 -0.206,-0.028 -0.224,-0.028 -0.028,0.009 -0.14,0.028 -0.187,0 -0.046,-0.028 -0.056,-0.075 -0.056,-0.131 0,-0.046 0.01,-0.13 -0.038,-0.159 -0.046,-0.037 -0.083,-0.065 -0.112,-0.075 -0.028,-0.009 -0.103,-0.037 -0.121,-0.056 -0.028,-0.018 -0.093,-0.046 -0.085,0.029 0.011,0.075 0.028,0.168 0.038,0.215 0.019,0.046 -0.027,-0.01 0.038,0.158 0.056,0.159 -0.028,0.084 0.065,0.271 0.084,0.187 0.027,0.215 0.075,0.262 0.037,0.047 0.102,0.103 0.121,0.149 0.029,0.047 0.075,0.122 0.075,0.15 0,0.028 0.01,0.168 0.01,0.168 0,0 -0.028,0.065 -0.038,0.094 -0.009,0.018 -0.038,0.102 -0.047,0.149 -0.009,0.047 -0.102,0.289 -0.102,0.318 0.009,0.037 -0.019,0.065 -0.076,0.084 -0.056,0.018 -0.186,0.028 -0.243,0.009 -0.055,-0.028 -0.093,-0.037 -0.12,-0.093 -0.029,-0.047 -0.076,-0.103 -0.15,-0.159 -0.075,-0.065 -0.075,-0.065 -0.103,-0.121 -0.019,-0.047 -0.122,-0.141 -0.149,-0.197 -0.019,-0.056 -0.01,-0.056 -0.047,-0.122 -0.018,-0.037 -0.056,-0.092 -0.103,-0.149 -0.028,-0.046 -0.065,-0.084 -0.075,-0.122 -0.037,-0.102 -0.074,-0.14 -0.131,-0.27 -0.056,-0.131 -0.074,-0.206 -0.102,-0.262 -0.019,-0.019 -0.019,-0.028 -0.029,-0.037 -0.008,-0.019 -0.018,-0.094 -0.027,-0.15 -0.02,-0.093 -0.038,-0.046 -0.066,-0.159 -0.028,-0.111 -0.075,-0.168 -0.084,-0.196 -0.009,-0.037 -0.074,-0.14 -0.093,-0.177 -0.01,-0.028 -0.085,-0.103 -0.066,0.009 0.019,0.103 0.029,0.075 0.029,0.14 0,0.065 0.037,0.065 0.027,0.14 -0.019,0.066 -0.019,0.141 0,0.178 0.01,0.046 0.047,0.196 0.066,0.271 0.019,0.084 0.075,0.196 0.075,0.252 0.009,0.056 0,0.327 0,0.327 0,0 0.027,0.066 0.046,0.196 0.019,0.131 -0.019,0.159 0.01,0.206 0.046,0.084 0.075,0.215 0.075,0.215 l 0.037,0.158 v 0.178 c 0,0 -0.076,0.084 -0.094,0.15 -0.009,0.065 0.028,0.158 0.047,0.205 0.028,0.038 0.075,0.094 0.075,0.094 0,0 0.018,0.102 0.065,0.112 0.056,0.018 0.14,0 0.14,0 0,0 0.037,0.028 0.075,0.056 0.028,0.019 0.056,0.037 0.075,0.046 0.037,0.029 0.149,0.075 0.187,0.085 0.037,0.009 0.214,0.074 0.252,0.149 0.038,0.065 0.121,0.103 0.158,0.131 0.038,0.028 0.103,0.093 0.15,0.093 0.048,0 0.187,0.028 0.169,0.178 -0.019,0.102 -0.094,0.131 -0.094,0.187 -0.009,0.056 0.047,0.074 -0.027,0.139 l -0.103,0.075 c -0.085,0.066 -0.16,0.178 -0.197,0.187 -0.037,0.009 -0.112,0.057 -0.159,0.038 -0.046,-0.01 -0.112,-0.01 -0.14,-0.094 -0.028,-0.093 0,-0.177 -0.037,-0.196 -0.038,-0.01 -0.066,-0.084 -0.103,-0.121 -0.046,-0.038 -0.122,-0.168 -0.122,-0.168 l -0.009,-0.01 c -0.019,-0.018 -0.075,-0.084 -0.103,-0.13 -0.037,-0.057 -0.13,-0.132 -0.14,-0.169 -0.009,-0.037 -0.046,-0.159 -0.046,-0.159 0,0 -0.085,-0.084 -0.122,-0.093 -0.028,0 -0.103,-0.01 -0.131,-0.066 -0.028,-0.046 -0.094,-0.074 -0.102,-0.14 -0.01,-0.065 -0.019,-0.093 -0.01,-0.186 0.018,-0.094 0.037,-0.122 0.018,-0.178 -0.027,-0.065 -0.008,-0.168 -0.008,-0.224 0,-0.056 -0.038,-0.019 -0.038,-0.215 0,-0.205 -0.066,-0.196 -0.066,-0.281 v -0.308 c 0,-0.037 0,-0.206 -0.018,-0.28 -0.009,-0.084 -0.093,-0.253 -0.102,-0.318 -0.01,-0.065 -0.01,-0.205 -0.01,-0.271 0,-0.065 -0.028,-0.075 -0.028,-0.112 0,-0.037 -0.019,-0.121 -0.019,-0.233 0,-0.113 0.019,-0.178 0,-0.224 -0.018,-0.047 -0.065,-0.085 -0.046,-0.15 0.008,-0.075 0.018,-0.075 -0.019,-0.205 -0.047,-0.132 -0.028,-0.197 -0.028,-0.253 0.009,-0.056 0.028,-0.168 0,-0.215 -0.028,-0.056 -0.019,-0.112 -0.085,-0.15 -0.065,-0.046 -0.252,-0.111 -0.27,-0.111 -0.028,0 -0.141,-0.056 -0.178,-0.075 -0.037,-0.028 -0.102,-0.056 -0.14,-0.056 -0.038,0 -0.085,0.009 -0.159,-0.009 -0.075,-0.01 -0.131,-0.019 -0.186,-0.01 -0.047,0.01 -0.16,0.084 -0.16,0.084 0,0 -0.112,0 -0.065,-0.196 0.047,-0.196 0.009,-0.168 0.019,-0.308 0.018,-0.112 0.046,-0.196 0.084,-0.225 0.046,-0.027 0.112,-0.037 0.168,-0.027 0.056,0.018 0.186,0.018 0.261,0.111 0.066,0.094 0.076,0.15 0.225,0.197 0.149,0.056 0.178,0.093 0.205,0.084 0.037,0 0.094,-0.038 0.065,-0.14 -0.028,-0.112 -0.102,-0.234 -0.102,-0.234 0,0 0.01,-0.093 -0.019,-0.159 -0.037,-0.065 -0.057,-0.112 -0.075,-0.177 -0.009,-0.056 -0.056,-0.131 -0.056,-0.206 0,-0.075 -0.037,-0.065 -0.084,-0.168 -0.046,-0.093 -0.065,-0.149 -0.074,-0.187 0,-0.028 -0.047,-0.047 -0.057,-0.149 -0.009,-0.094 0,-0.224 -0.009,-0.281 0,-0.047 -0.046,-0.13 -0.046,-0.159 0,-0.027 0.046,-0.13 0.046,-0.13 0,0 0.009,-0.094 0.066,-0.056 0.046,0.046 0.037,0.083 0.074,0.13 0.047,0.048 0.056,0.056 0.113,0.112 0,0 0.018,0.047 0.018,0.141 0,0 0.019,0.028 0.027,0.102 0,0.085 0,0.131 0.029,0.225 0.028,0.084 0.038,0.224 0.038,0.224 0,0 0.019,0.084 0.046,0.131 0.028,0.037 0.065,0.112 0.057,0.14 0,0.028 0.065,0.112 0.074,0.158 0,0.038 0.01,0.159 0.019,0.178 0.018,0.029 0.046,0.178 0.046,0.178 l 0.038,0.14 c 0,0 0.019,0.178 0.047,0.215 0.018,0.046 0.075,0.159 0.075,0.159 0,0 -0.047,0.037 0,0.084 0.055,0.056 0.046,0.075 0.13,0.093 0.085,0.019 0.112,0.047 0.196,0.084 0.085,0.047 0.112,0.075 0.159,0.084 0.038,0.009 0.196,0.047 0.131,-0.131 -0.066,-0.177 -0.149,-0.205 -0.149,-0.205 0,0 -0.047,0 -0.075,-0.019 -0.037,-0.028 -0.075,-0.084 -0.103,-0.112 -0.019,-0.018 -0.094,-0.037 -0.094,-0.037 0,0 -0.046,-0.159 0.066,-0.149 0.112,0.008 0.196,0.083 0.271,0.168 0.084,0.093 0.215,0.14 0.215,0.14 l 0.019,0.074 c 0,0 0.046,0.056 0.121,0.103 0.018,0.01 0.037,0.028 0.056,0.037 0.037,0.038 0.065,0.065 0.075,0.094 0,0.046 0.028,0.084 0.065,0.046 0.047,-0.037 0.047,-0.046 0.047,-0.149 0,-0.102 0,-0.177 -0.019,-0.205 -0.018,-0.028 -0.018,-0.075 -0.009,-0.122 0.009,-0.047 -0.009,-0.178 -0.009,-0.196 0,-0.028 -0.028,-0.318 -0.047,-0.364 -0.01,-0.038 -0.028,-0.169 -0.028,-0.215 0,-0.038 -0.019,-0.122 -0.019,-0.159 0,-0.038 -0.028,-0.14 -0.028,-0.196 0.009,-0.047 0,-0.15 -0.009,-0.178 -0.01,-0.019 0.018,-0.047 0.018,-0.084 0,-0.037 -0.009,-0.093 -0.037,-0.112 -0.028,-0.019 -0.093,-0.01 -0.103,-0.056 0,-0.037 0.019,-0.037 0.047,-0.149 0.028,-0.113 0.047,-0.224 0.047,-0.272 0,-0.009 0.009,-0.018 0.009,-0.028 0.019,-0.056 0.075,-0.14 0.075,-0.178 0.01,-0.055 0,-0.149 0,-0.176 0.01,-0.038 0.028,-0.178 0.093,-0.169 0.075,0.019 0.103,0.01 0.15,0.113 0.047,0.102 0.093,0.102 0.103,0.168 0.009,0.064 -0.01,0.158 -0.01,0.186 0,0.037 -0.027,0.084 -0.027,0.113 0.008,0.037 -0.01,0.065 -0.01,0.065 0,0 -0.038,0.028 -0.056,0.093 -0.019,0.066 -0.047,0.094 -0.056,0.159 -0.01,0.066 0.018,0.187 0.009,0.215 -0.019,0.037 -0.019,0.112 -0.019,0.168 0.01,0.056 0.028,0.122 0.037,0.196 0.01,0.075 0.029,0.234 0.01,0.281 -0.01,0.037 0,0.224 0.019,0.28 0.009,0.056 0.037,0.187 0.037,0.262 0,0.074 0.029,0.215 0.037,0.261 0,0.047 0.029,0.084 0.029,0.131 0,0.056 -0.019,0.196 0,0.29 0.019,0.084 0.019,0.112 0.037,0.196 0.028,0.084 0.009,0.14 0.009,0.159 0,0.028 -0.009,0.074 0.056,0.121 0.066,0.037 0.103,0.019 0.149,0.047 0.038,0.028 0.112,0.093 0.15,0.102 0.037,0.02 0.075,0 0.102,0.029 0.038,0.028 0.057,0.084 0.094,0.084 0.038,0 0.075,-0.028 0.113,0.037 0.047,0.066 0.074,0.028 0.102,0.075 0.019,0.038 0,0.084 0.047,0.103 0.047,0.018 0.14,0.037 0.177,0.047 0.038,0 0.113,0 0.169,0.037 0.056,0.037 0.103,0.028 0.131,0.065 0.027,0.037 0.056,0.056 0.093,0.066 0.037,0.009 0.196,0.056 0.252,0.112 0.057,0.056 0.084,0.056 0.122,0.084 0.037,0.019 0.046,-0.01 0.131,0.009 0.102,0.019 0.149,-0.009 0.093,-0.084 -0.047,-0.075 -0.168,-0.159 -0.205,-0.215 -0.029,-0.065 -0.094,-0.13 -0.123,-0.299 -0.008,-0.065 -0.037,-0.14 -0.055,-0.187 -0.019,-0.047 -0.056,-0.121 -0.066,-0.177 -0.009,-0.056 -0.028,-0.243 -0.028,-0.271 -0.009,-0.028 -0.046,-0.169 -0.046,-0.169 l -0.047,-0.093 -0.028,-0.168 -0.085,-0.131 -0.065,-0.224 -0.065,-0.168 -0.084,-0.075 c 0,0 -0.029,-0.14 -0.047,-0.159 -0.009,-0.028 -0.027,-0.14 -0.027,-0.14 0,0 -0.075,-0.159 -0.104,-0.178 -0.018,-0.027 -0.037,-0.158 -0.037,-0.158 0,0 -0.075,-0.085 -0.075,-0.103 -0.009,-0.028 0,-0.112 0,-0.168 0,-0.056 -0.028,-0.187 -0.028,-0.187 l -0.046,-0.14 -0.037,-0.103 -0.019,-0.112 0.019,-0.178 0.074,-0.074 c 0,0 -0.019,-0.038 0.084,0.037 0.103,0.074 0.169,0.15 0.169,0.15 l 0.055,0.121 v 0.187 c -0.01,0.028 0.01,0.121 0.01,0.121 l 0.028,0.168 0.028,0.15 0.037,0.252 0.103,0.197 0.14,0.271 0.009,0.112 c 0,0 0.112,0.27 0.14,0.336 0.029,0.065 0.085,0.131 0.085,0.131 l 0.037,0.065 0.028,0.066 c 0,0 0.113,0.13 0.131,0.176 0.018,0.038 0.186,0.244 0.215,0.272 0.027,0.027 0.084,0.112 0.14,0.056 0.065,-0.084 0.075,-0.038 0.075,-0.187 0,-0.149 -0.047,-0.28 -0.066,-0.336 -0.028,-0.047 -0.028,-0.112 -0.018,-0.168 0.009,-0.056 -0.01,-0.112 -0.02,-0.178 0,-0.075 0.01,-0.224 -0.018,-0.327 -0.028,-0.112 -0.028,-0.318 -0.019,-0.402 0.01,-0.084 -0.037,-0.28 0.037,-0.448 0.066,-0.178 0.113,-0.252 0.131,-0.29 0.019,-0.037 0.094,-0.243 0.094,-0.243 0,0 -0.037,-0.037 0.047,-0.065 l 0.075,-0.029 c 0,0 0.093,-0.055 0.13,-0.065 0.028,-0.009 0.038,0.028 0.122,-0.019 0.085,-0.046 0.149,-0.037 0.252,-0.018 0.094,0.009 0.243,0.009 0.337,-0.028 0.093,-0.047 0.12,0.009 0.149,-0.009 0.028,-0.019 0.094,-0.028 0.121,-0.047 0.038,-0.009 0.178,0.009 0.178,0.009 l 0.056,0.075 0.14,0.056 c 0,0 0.15,0.057 0.15,0.103 0,0.047 0.009,0.112 -0.01,0.149 -0.009,0.029 -0.037,0.112 -0.037,0.112"
       id="path20" /><path
       d="m 599.3571,893.3918 c 0.037,0.075 0.103,0.178 0.149,0.187 0.047,0.019 0.095,0.084 0.112,0.131 0.028,0.056 0.01,0.075 0.038,0.093 0.038,0.019 0.075,0.01 0.102,0.019 0.038,0.009 0.076,0.038 0.113,0.056 0.028,0.028 0.055,0.028 0.093,0.019 0.037,0 0.057,-0.019 0.159,0.028 0.094,0.047 0.084,0.028 0.103,0.084 0.018,0.056 -0.019,0.037 0.056,0.084 0.074,0.047 0.084,0.009 0.093,0.093 0.01,0.075 -0.009,0.122 -0.009,0.206 0,0.074 0.009,0.084 0.009,0.131 0,0.037 0.01,0.111 0,0.158 -0.019,0.047 0.019,0.075 -0.027,0.15 -0.038,0.075 -0.141,0.14 -0.188,0.168 -0.055,0.028 -0.037,0 -0.111,0.028 -0.075,0.037 -0.066,0.047 -0.113,0.047 -0.046,0 -0.102,0.009 -0.131,0.009 -0.028,-0.009 -0.056,-0.056 -0.149,-0.056 -0.094,0 -0.15,0.019 -0.187,0.009 -0.037,0 -0.15,-0.009 -0.14,-0.102 0.018,-0.103 0.009,-0.084 0.009,-0.084 0,0 -0.028,-0.075 0.009,-0.243 0.01,-0.066 -0.13,-0.271 -0.13,-0.271 0,0 -0.075,-0.121 -0.112,-0.187 -0.029,-0.056 -0.122,-0.252 -0.122,-0.252 l -0.075,-0.075 -0.018,-0.121 -0.084,-0.113 c 0,0 -0.122,-0.074 -0.15,-0.121 -0.018,-0.047 0,-0.112 -0.047,-0.168 -0.046,-0.066 -0.186,-0.281 -0.186,-0.281 0,0 -0.187,-0.215 -0.187,-0.243 0,-0.037 -0.103,-0.14 -0.121,-0.177 -0.029,-0.047 -0.179,-0.178 -0.179,-0.178 0,0 -0.102,-0.083 -0.111,-0.121 -0.01,-0.028 -0.047,-0.196 0.009,-0.196 0.057,0 0.214,0.159 0.262,0.252 0.046,0.084 0.13,0.206 0.168,0.243 0.047,0.028 0.131,0.131 0.168,0.15 0.028,0.018 0.103,0.074 0.103,0.13 0,0.056 0.056,0.196 0.093,0.122 0.028,-0.066 0.028,-0.225 0.112,-0.15 0.084,0.075 0.122,0.14 0.168,0.15 0.056,0.018 0.215,0.186 0.253,0.215 0.047,0.037 0.168,0.102 0.196,0.177"
       id="path21" /><path
       d="m 601.7395,890.6732 c -0.009,0.047 0,0.075 -0.037,0.094 -0.028,0.009 -0.057,0.018 -0.057,0.065 -0.009,0.037 0.038,0 -0.046,0.112 -0.075,0.112 -0.112,0.112 -0.141,0.149 -0.018,0.047 -0.074,0.094 -0.102,0.103 -0.028,0 -0.103,0.028 -0.103,0.028 0,0 -0.149,0 -0.159,0.009 -0.009,0 -0.037,0.047 -0.083,0.047 -0.048,0 -0.113,-0.009 -0.169,0.019 -0.056,0.018 -0.112,0.018 -0.121,0 -0.01,-0.009 -0.028,-0.066 -0.028,-0.122 0,-0.046 0,-0.121 0.055,-0.158 0.048,-0.047 0.057,-0.019 0.075,-0.094 0.019,-0.084 0.028,-0.187 0.028,-0.187 0,0 -0.009,-0.075 -0.055,-0.084 -0.037,-0.009 -0.075,-0.028 -0.141,-0.065 -0.065,-0.029 -0.206,-0.056 -0.234,-0.075 -0.027,-0.019 -0.112,-0.075 -0.13,-0.084 -0.028,0 -0.243,-0.103 -0.271,-0.131 -0.028,-0.019 -0.159,-0.094 -0.159,-0.094 l -0.075,-0.008 c 0,0 -0.103,-0.057 -0.121,-0.076 -0.029,-0.018 -0.112,-0.055 -0.141,-0.047 -0.037,0.019 -0.111,0 -0.093,0.113 0.009,0.112 0.14,0.28 0.14,0.28 l 0.075,0.159 0.093,0.028 c 0,0 0.019,0.037 0.029,0.066 0,0.028 0.028,0.121 0.075,0.178 0.046,0.055 0.233,0.289 0.261,0.373 0.028,0.075 0.13,0.177 0.169,0.205 0.027,0.028 0.102,0.122 0.102,0.131 0.009,0.019 0.019,0.065 0.056,0.094 0.037,0.027 0.224,0.196 0.224,0.196 v 0.056 c 0,0 0.066,0.056 0.093,0.084 0.029,0.028 0.048,0.112 0.075,0.15 0.019,0.037 0.037,0.074 0.085,0.102 0.046,0.019 0.065,0.01 0.093,0.066 0.037,0.056 0.093,0.13 0.122,0.14 0.037,0.019 0.084,0.046 0.121,0.065 0.037,0.019 0.084,0.075 0.065,0.168 -0.028,0.085 -0.056,0.169 -0.056,0.169 0,0 0.01,0.018 -0.038,0.065 -0.046,0.038 -0.083,0.056 -0.111,0.084 -0.038,0.028 -0.01,0.047 -0.075,0.047 h -0.131 c -0.047,0 -0.102,0.019 -0.121,0 -0.029,-0.028 -0.029,-0.131 -0.029,-0.131 0,0 -0.009,-0.065 -0.018,-0.093 -0.009,-0.019 -0.019,-0.112 -0.037,-0.15 -0.029,-0.037 -0.094,-0.159 -0.103,-0.196 -0.009,-0.028 -0.056,-0.103 -0.056,-0.103 0,0 -0.066,-0.065 -0.075,-0.093 -0.01,-0.019 -0.065,-0.169 -0.065,-0.169 l -0.075,-0.13 c 0,0 -0.019,-0.028 -0.038,-0.047 -0.028,-0.019 -0.074,-0.084 -0.093,-0.084 -0.019,-0.009 -0.047,-0.047 -0.056,-0.084 0,-0.038 -0.028,-0.056 -0.037,-0.075 -0.01,-0.019 0,-0.075 -0.019,-0.093 -0.019,-0.01 -0.065,-0.066 -0.084,-0.094 -0.019,-0.028 -0.122,-0.149 -0.122,-0.149 l -0.037,-0.085 -0.056,-0.037 -0.009,-0.074 -0.047,-0.047 c 0,-0.019 -0.019,-0.103 -0.028,-0.112 -0.019,-0.01 -0.057,-0.075 -0.075,-0.094 -0.028,-0.009 -0.094,-0.121 -0.094,-0.121 l -0.027,-0.084 c 0,0 -0.084,-0.131 -0.094,-0.159 -0.019,-0.029 -0.047,-0.103 -0.047,-0.103 l -0.093,-0.122 c 0,0 -0.056,-0.102 -0.084,-0.149 -0.019,-0.056 -0.065,-0.168 -0.075,-0.178 -0.009,-0.018 -0.047,-0.121 -0.065,-0.13 -0.009,0 -0.038,-0.057 -0.038,-0.057 0,0 0.009,-0.083 -0.009,-0.14 -0.018,-0.046 0.009,-0.149 0.009,-0.149 0,0 -0.037,-0.075 0.009,-0.131 0.047,-0.055 0.085,-0.065 0.131,-0.065 0.038,0 0.076,-0.038 0.131,0.028 0.057,0.065 0.094,0.084 0.15,0.121 0.056,0.037 0.102,0.056 0.168,0.103 0.056,0.047 0.122,0.075 0.122,0.075 h 0.037 c 0,0 0.047,0.093 0.074,0.112 0.029,0.028 0.094,0.065 0.094,0.065 l 0.103,0.047 0.01,0.065 c 0,0 0.037,0 0.111,0.048 0.066,0.045 0.15,0.102 0.215,0.12 0.065,0.01 0.215,0.113 0.262,0.122 0.046,0.019 0.149,0.084 0.242,0.065 0.085,-0.027 0.178,-0.018 0.206,-0.065 0.028,-0.047 0.047,-0.15 0.084,-0.197 0.039,-0.037 0.039,-0.093 0.039,-0.093 l 0.008,-0.074 c 0,0 0.047,0 0.066,-0.028 0.018,-0.038 0.074,-0.112 0.112,-0.122 0.028,-0.009 0.093,-0.019 0.12,0.01 0.038,0.018 0.094,0.074 0.141,0.083 0.038,0.01 0.103,0.01 0.14,0.038 0.028,0.019 0.103,0.159 0.112,0.196 0.019,0.047 0.019,0.187 0.019,0.215 0,0.028 -0.047,0.103 -0.075,0.159 -0.028,0.056 -0.093,0.168 -0.093,0.215"
       id="path22" /><path
       d="m 602.3286,894.8967 c -0.075,0.037 -0.15,0.055 -0.188,0.075 -0.046,0.018 -0.121,0.064 -0.158,0.102 -0.037,0.028 -0.085,0.028 -0.141,0.037 -0.046,0.01 -0.102,-0.037 -0.102,-0.037 l -0.028,-0.065 c 0,0 -0.009,-0.084 -0.018,-0.103 0,-0.019 0.027,0.028 0.027,-0.159 0,-0.187 0,-0.084 -0.056,-0.121 -0.047,-0.038 -0.056,0.009 -0.084,-0.122 -0.028,-0.131 -0.009,-0.093 0.028,-0.149 0.047,-0.057 0.085,-0.066 0.112,-0.066 0.019,-0.009 0.103,-0.046 0.15,-0.065 0.046,-0.019 0.075,-0.038 0.103,-0.066 0.027,-0.018 0.13,-0.037 0.158,-0.028 0.038,0.01 0.066,0.038 0.131,0.047 0.066,0.009 0.15,0.131 0.169,0.169 0.018,0.027 0.037,0.102 0.056,0.13 0.009,0.028 0.009,0.084 0.027,0.131 0.029,0.056 0,0.14 -0.018,0.177 -0.019,0.038 -0.103,0.075 -0.168,0.113"
       id="path23" /><path
       d="m 608.2424,895.9333 c -0.028,0.047 -0.149,0.206 -0.149,0.206 0,0 -0.084,0.149 -0.16,0.28 -0.074,0.131 -0.335,0.121 -0.439,0.15 -0.112,0.028 -0.298,-0.029 -0.382,-0.047 -0.094,-0.019 -0.448,-0.103 -0.533,-0.14 -0.084,-0.029 -0.159,-0.15 -0.159,-0.15 l -0.401,-0.327 -0.122,-0.01 -0.131,-0.139 -0.103,-0.029 -0.056,-0.074 -0.159,-0.028 -0.084,-0.085 -0.121,-0.074 -0.122,-0.057 c 0,0 -0.14,-0.027 -0.233,-0.046 -0.084,-0.019 -0.112,-0.074 -0.131,-0.122 -0.028,-0.046 -0.046,-0.074 -0.057,-0.13 -0.008,-0.066 0.029,-0.094 0.029,-0.14 0,-0.047 0,-0.085 0.019,-0.122 0.018,-0.037 0.056,-0.121 0.084,-0.149 0.037,-0.028 0.168,-0.009 0.205,-0.009 0.038,-0.01 0.084,-0.019 0.122,-0.019 0.047,0.009 0.112,0.075 0.168,0.093 0.057,0.01 0.121,0.047 0.149,0.056 0.019,0.019 0.075,0.131 0.075,0.131 v 0.122 c 0.01,0.046 0.047,0.14 0.065,0.167 0.019,0.029 0.112,0.048 0.197,0.066 0.075,0.009 0.056,0.009 0.103,0.037 0.037,0.019 0.055,0.084 0.084,0.094 0.028,0.018 0.083,0.046 0.121,0.084 0.037,0.037 0.113,0.084 0.14,0.112 0.028,0.019 0.056,0.037 0.085,0.074 0.027,0.048 0.019,0.048 0.074,0.056 0.047,0.01 0.075,0.019 0.084,0.048 0.01,0.037 0.057,0.046 0.084,0.066 0.038,0.017 0.076,0 0.076,0 0,0 0.064,0.027 0.102,0.092 0.037,0.057 0.055,0.019 0.112,0.038 0.047,0.019 0.168,0.093 0.234,0.121 0.065,0.038 0.074,0.019 0.112,-0.009 0.027,-0.019 0.056,-0.093 0.065,-0.112 0.01,-0.028 0.065,-0.009 0.065,-0.103 0.01,-0.093 0.01,-0.141 0.01,-0.178 -0.01,-0.037 -0.01,-0.074 0,-0.093 0.009,-0.028 0,-0.103 -0.01,-0.187 -0.009,-0.084 -0.009,-0.112 -0.009,-0.149 0,-0.038 -0.019,-0.15 -0.028,-0.178 0,-0.018 0,-0.121 -0.018,-0.224 -0.01,-0.103 -0.019,-0.243 -0.019,-0.243 0,0 -0.01,-0.168 0,-0.196 0.019,-0.028 0.019,-0.169 0,-0.206 -0.01,-0.047 -0.01,-0.112 -0.01,-0.112 v -0.168 c 0,-0.038 0.01,-0.178 0,-0.28 0,-0.103 0.01,-0.262 -0.019,-0.309 -0.037,-0.056 -0.008,-0.14 -0.008,-0.168 v -0.187 c -0.01,-0.065 0,-0.102 -0.01,-0.205 -0.009,-0.103 -0.037,-0.206 -0.037,-0.234 0,-0.028 0.009,-0.103 0,-0.186 -0.01,-0.076 -0.01,-0.16 0.009,-0.244 0.028,-0.074 0,-0.074 0,-0.131 -0.009,-0.056 -0.028,-0.102 -0.028,-0.102 0,0 0.019,-0.075 0.009,-0.093 -0.009,-0.029 0,-0.346 0,-0.393 0,-0.037 -0.009,-0.206 -0.009,-0.262 0,-0.037 0.019,-0.224 0.019,-0.224 v -0.112 c 0,0 0.028,-0.093 0.018,-0.131 -0.009,-0.047 0.01,-0.159 0.01,-0.196 0,-0.029 0.009,-0.159 -0.019,-0.187 -0.019,-0.037 0.019,-0.122 0.019,-0.159 0,-0.037 -0.028,-0.112 -0.056,-0.15 -0.029,-0.027 -0.075,-0.046 -0.075,-0.046 l 0.027,-0.066 -0.027,-0.121 -0.019,-0.14 c 0,0 -0.019,-0.094 -0.019,-0.121 0.01,-0.038 -0.018,-0.15 -0.047,-0.206 -0.018,-0.065 -0.121,0.028 -0.177,0.056 -0.047,0.028 -0.121,0.206 -0.121,0.206 0,0 -0.075,0.027 -0.103,0.037 -0.019,0 -0.103,0.056 -0.14,0.084 -0.028,0.018 -0.056,0 -0.075,0.028 -0.009,0.019 -0.084,0.159 -0.084,0.159 0,0 -0.056,0.047 -0.065,0.075 0,0.018 -0.104,0.055 -0.104,0.055 l -0.056,0.048 c 0,0 -0.139,0.055 -0.195,0.046 -0.047,0 0.009,-0.149 0.009,-0.187 0,-0.028 0.047,-0.065 0.074,-0.093 0.029,-0.028 0.122,-0.075 0.122,-0.075 l 0.075,-0.102 c 0,0 0.14,-0.253 0.178,-0.318 0.037,-0.066 0.149,-0.28 0.168,-0.328 0.019,-0.037 0.139,-0.168 0.196,-0.224 0.066,-0.056 0.056,-0.027 0.111,-0.065 0.057,-0.037 0.113,-0.14 0.123,-0.196 0.009,-0.085 0.018,-0.075 0.018,-0.149 0.009,-0.075 0.187,-0.085 0.243,-0.075 0.065,0.009 0.149,0.093 0.149,0.093 l 0.075,0.159 0.019,0.149 c 0,0 0.009,0.14 0.019,0.188 0.009,0.046 0.009,0.158 0.009,0.205 0,0.056 0.037,0.102 0.056,0.13 0.018,0.019 0.028,0.113 0.066,0.15 0.027,0.028 0,0.084 0,0.14 0,0.047 0.036,0.075 0.036,0.15 0,0.074 0.038,0.177 0.057,0.28 0.009,0.103 -0.028,0.103 -0.075,0.168 -0.037,0.075 -0.103,0.122 -0.093,0.196 0.009,0.065 0.037,0.177 0.056,0.234 0.019,0.065 0.028,0.15 0.028,0.234 0,0.084 0,0.149 0.027,0.243 0.038,0.102 -0.018,0.13 -0.009,0.205 0.009,0.084 0.009,0.29 0.009,0.29 0,0 0.057,0.336 0.066,0.467 0.018,0.131 0.028,0.476 0.046,0.56 0.029,0.075 0,0.243 0,0.318 0,0.075 0.038,0.253 0.038,0.467 0,0.224 0.019,0.234 0.103,0.383 0.094,0.15 0.122,0.337 0.131,0.355 0.009,0.028 0,0.272 0,0.328 0,0.046 0.009,0.261 0.009,0.261 l 0.01,0.14 c 0,0 0.056,0.224 0.074,0.262 0.028,0.047 0.028,0.261 0.113,0.401 0.037,0.084 0.065,0.234 0.074,0.29 0.009,0.047 -0.028,0.149 -0.056,0.187"
       id="path24" /><path
       d="m 605.7758,891.458 c -0.102,-0.028 -0.121,-0.047 -0.121,-0.047 l -0.066,-0.047 c 0,0 -0.018,-0.009 -0.065,-0.019 -0.047,-0.008 -0.056,-0.018 -0.113,-0.074 0,-0.009 -0.009,-0.019 -0.018,-0.028 -0.028,-0.037 -0.037,-0.047 -0.047,-0.093 0,-0.047 -0.037,-0.085 -0.056,-0.112 -0.018,-0.038 -0.009,-0.103 -0.018,-0.122 -0.01,-0.019 -0.028,-0.084 -0.065,-0.084 -0.038,-0.01 -0.131,0 -0.15,0 -0.029,0.009 -0.066,-0.019 -0.075,0.037 -0.019,0.056 -0.019,0.113 -0.009,0.14 0.018,0.029 0.028,0.094 0.028,0.094 l 0.018,0.065 c 0,0 -0.009,0.056 0.009,0.084 0.01,0.028 0.038,0.075 0.075,0.103 0.029,0.038 0.104,0.065 0.131,0.093 0.028,0.038 0.093,0.066 0.093,0.066 l 0.066,0.038 0.066,0.027 c 0,0 0.112,0.038 0.13,0.056 0.019,0.029 0.056,0.029 0.093,0.019 0.029,-0.009 0.104,-0.019 0.112,-0.084 0.01,-0.065 0.076,-0.084 -0.018,-0.112 m 0.346,-0.925 c 0.037,0 0.074,0.028 0.178,0.084 0.111,0.065 0.065,0.093 0.065,0.103 0,0.019 -0.047,0.14 -0.047,0.243 -0.009,0.093 0,0.084 0.047,0.187 0.046,0.112 0.028,0.074 0.046,0.243 0.01,0.168 -0.037,0.186 -0.046,0.224 -0.019,0.037 0,0.075 -0.01,0.112 -0.009,0.037 -0.028,0.084 -0.037,0.131 0,0.056 -0.018,0.065 -0.047,0.14 -0.027,0.084 -0.121,0.177 -0.149,0.196 -0.028,0.019 -0.065,0.01 -0.093,0.019 -0.019,0.009 -0.038,0.028 -0.075,0.037 -0.038,0.009 -0.057,0.009 -0.103,-0.019 -0.038,-0.027 -0.085,-0.009 -0.122,-0.037 -0.037,-0.019 -0.028,-0.056 -0.055,-0.065 -0.01,-0.01 -0.169,-0.084 -0.281,-0.14 -0.047,-0.029 -0.094,-0.047 -0.103,-0.057 -0.028,-0.027 -0.131,-0.037 -0.131,-0.037 v -0.056 l -0.027,-0.075 -0.01,-0.074 c 0,0 -0.046,-0.065 -0.121,-0.113 -0.066,-0.046 -0.112,-0.074 -0.168,-0.074 -0.056,0 -0.103,-0.01 -0.113,0.056 0,0.066 0.057,0.14 0.057,0.14 0,0 0.056,0.112 0.065,0.168 0.009,0.065 0,0.14 0,0.14 l 0.131,0.252 c 0,0 0.018,0.103 0.037,0.15 0.018,0.046 0.074,0.14 0.112,0.187 0.037,0.037 0.131,0.075 0.131,0.075 0,0 0.103,0.046 0.14,0.083 h 0.009 c 0.028,0.038 0.075,0.047 0.103,0.056 0.028,0.019 0.121,0.131 0.14,0.141 0.01,0.019 0,0.131 0,0.131 l 0.075,0.102 c 0,0 0.037,0.085 0.084,0.15 0.047,0.065 0.056,0.075 0.102,0.112 0.038,0.037 0.029,0.084 0.048,0.159 0.018,0.066 0.009,0.131 0.009,0.187 0,0.056 0,0.093 -0.047,0.13 -0.037,0.038 -0.093,0.085 -0.093,0.085 0,0 -0.057,0.065 -0.083,0.093 -0.039,0.019 -0.076,0.009 -0.188,0.009 -0.084,0 -0.112,0 -0.159,0.01 -0.009,0.009 -0.028,0.009 -0.056,0.019 -0.084,0.018 -0.15,0.037 -0.168,0.037 -0.01,0 -0.066,-0.029 -0.085,-0.056 -0.018,-0.038 -0.093,-0.066 -0.121,-0.075 -0.028,-0.009 -0.14,-0.055 -0.149,-0.074 0,-0.019 -0.056,-0.094 -0.056,-0.094 0,0 -0.019,-0.047 -0.028,-0.113 -0.01,-0.065 0.018,-0.084 0.047,-0.112 0.037,-0.037 0.027,-0.102 0.027,-0.13 0,-0.028 -0.037,-0.094 -0.037,-0.094 0,0 -0.019,-0.037 -0.009,-0.056 0.009,-0.009 0.037,-0.074 0.075,-0.112 0.028,-0.038 0.028,-0.149 0.028,-0.149 0,0 0.046,-0.084 0.065,-0.159 0.009,-0.066 0,-0.066 -0.037,-0.131 -0.038,-0.066 -0.019,-0.093 -0.019,-0.093 l -0.047,-0.075 c 0,0 -0.019,-0.093 -0.019,-0.122 -0.009,-0.037 -0.065,-0.065 -0.065,-0.065 0,0 -0.028,-0.056 -0.047,-0.093 -0.019,-0.037 -0.065,-0.094 -0.065,-0.094 l -0.047,-0.103 -0.084,-0.205 -0.037,-0.065 0.009,-0.057 c 0,0 -0.103,-0.205 -0.112,-0.233 -0.009,-0.029 -0.047,-0.159 -0.047,-0.159 0,0 -0.009,-0.103 -0.009,-0.168 0,-0.066 0,-0.047 -0.01,-0.113 -0.009,-0.064 0.019,-0.13 0.01,-0.252 -0.01,-0.112 0.056,-0.224 0.065,-0.252 0,-0.038 0,-0.093 0.066,-0.149 0.065,-0.065 0.121,-0.103 0.149,-0.169 0.037,-0.056 0.037,-0.046 0.075,-0.075 0.028,-0.027 0.056,-0.009 0.103,0 0.056,0 0.084,0.038 0.093,0.094 0.01,0.056 0.038,0.047 0.094,0.056 0.056,0.01 0.139,0.01 0.177,0 0.037,0 0.056,-0.019 0.085,-0.038 0.027,-0.008 0.055,-0.018 0.102,-0.065 0.028,-0.028 0.065,-0.047 0.084,-0.065 0.028,-0.009 0.047,-0.009 0.056,-0.019 0.028,0 0.14,-0.018 0.177,-0.018 0.038,0 0.103,0.074 0.122,0.093 0.018,0.018 0.158,0.112 0.215,0.159 0.047,0.047 0.121,0.056 0.159,0.056"
       id="path25" /><path
       d="m 593.3684,896.1298 c 0.018,-0.028 0.028,-0.056 0.037,-0.113 0.009,-0.046 -0.019,-0.102 -0.009,-0.139 0,-0.029 0.065,-0.075 0.083,-0.085 0.029,0 0.104,-0.093 0.15,-0.13 0.037,-0.047 0.112,-0.103 0.14,-0.113 0.028,-0.009 0.094,-0.009 0.149,-0.046 0.066,-0.028 0.113,0.112 0.123,0.159 0,0.056 0,0.084 0.019,0.112 0.017,0.018 0.008,0.121 0.008,0.159 0.009,0.037 -0.047,0.083 -0.065,0.111 -0.019,0.038 -0.103,0.15 -0.112,0.169 -0.009,0.028 -0.019,0.112 -0.019,0.131 -0.009,0.009 -0.056,0.103 -0.075,0.159 -0.018,0.065 -0.121,0.112 -0.158,0.187 -0.038,0.074 -0.112,0.056 -0.141,0.056 -0.028,-0.01 -0.084,-0.019 -0.102,-0.075 -0.01,-0.047 -0.019,-0.14 -0.019,-0.14 l -0.009,-0.057 c 0,0 -0.029,-0.121 -0.019,-0.186 0.009,-0.065 -0.01,-0.131 0.019,-0.159"
       id="path26" /><path
       d="m 596.7413,894.121 c -0.057,0.065 -0.066,0.094 -0.132,0.168 -0.065,0.075 -0.112,0.196 -0.158,0.252 -0.047,0.056 -0.112,0.113 -0.196,0.178 -0.084,0.065 -0.113,0.131 -0.113,0.131 0,0 -0.13,0.084 -0.196,0.139 -0.074,0.057 -0.196,0.057 -0.196,0.057 l -0.159,0.121 -0.168,0.065 c 0,0 -0.234,-0.037 -0.355,0 h -0.271 l -0.262,-0.112 -0.158,-0.018 -0.234,-0.066 -0.131,-0.047 -0.159,-0.074 -0.131,-0.018 -0.093,-0.085 c 0,0 -0.187,-0.112 -0.252,-0.149 -0.066,-0.028 -0.243,-0.131 -0.243,-0.131 l -0.065,-0.009 c 0,0 -0.094,-0.066 -0.169,-0.094 -0.074,-0.037 -0.234,-0.159 -0.234,-0.159 0,0 -0.13,-0.094 -0.205,-0.121 -0.075,-0.028 -0.298,-0.178 -0.373,-0.224 -0.075,-0.056 -0.262,-0.187 -0.328,-0.224 -0.065,-0.038 -0.205,-0.16 -0.205,-0.16 l -0.113,-0.037 -0.064,-0.102 -0.085,-0.038 c 0,0 -0.056,-0.084 -0.112,-0.065 -0.056,0.018 -0.083,0.103 -0.083,0.168 0,0.065 0.167,0.186 0.167,0.186 0,0 0.131,0.131 0.188,0.16 0.055,0.037 0.102,0.083 0.102,0.083 0,0 0.056,0.131 0.075,0.169 0.028,0.046 0.084,0.224 0.093,0.29 0.01,0.065 0.065,0.111 0.065,0.111 0,0 -0.037,-0.018 0.028,0.169 0.076,0.177 0.038,0.168 -0.083,0.224 -0.122,0.056 -0.178,-0.15 -0.225,-0.196 -0.037,-0.047 -0.215,-0.215 -0.299,-0.271 -0.084,-0.047 -0.177,-0.075 -0.177,-0.075 0,0 -0.038,-0.131 -0.057,-0.168 -0.008,-0.038 -0.13,-0.14 -0.168,-0.187 -0.037,-0.047 -0.074,-0.066 -0.074,-0.131 0,-0.065 -0.047,-0.14 -0.084,-0.178 -0.028,-0.046 -0.037,-0.056 -0.028,-0.149 0.009,-0.102 -0.084,-0.187 -0.141,-0.289 -0.055,-0.094 -0.018,-0.112 -0.018,-0.159 0,-0.056 -0.028,-0.15 -0.019,-0.225 0,-0.074 0.16,-0.158 0.225,-0.215 0.065,-0.055 0.187,-0.074 0.187,-0.074 l 0.149,-0.047 c 0.019,0.066 0.318,0.309 0.355,0.318 0.046,0.018 0.075,0.084 0.083,0.13 0.011,0.057 0.178,0.141 0.178,0.141 l 0.094,0.187 0.102,0.112 h 0.132 l 0.074,0.093 0.13,0.01 0.197,0.121 c 0,0 0.094,0.094 0.141,0.121 0.046,0.019 0.102,0.122 0.102,0.122 l 0.093,0.009 0.122,0.075 0.131,0.112 h 0.075 l 0.083,0.112 0.141,0.066 0.084,0.046 c 0.037,0.038 0.149,0.047 0.149,0.047 l 0.113,0.075 c 0,0 0.139,0.074 0.168,0.103 0.027,0.028 0.205,0.121 0.205,0.121 0,0 0.159,0.084 0.196,0.103 0.038,0.028 0.262,0.112 0.328,0.121 0.065,0.019 0.121,0 0.158,0.01 0.029,0.019 0.122,0.065 0.122,0.065 l 0.121,0.028 0.327,-0.037 h 0.262 c 0.065,0 0.093,-0.028 0.121,-0.066 0.038,-0.028 0.187,-0.075 0.187,-0.075 0,0 0.102,-0.093 0.14,-0.139 0.028,-0.047 0.224,-0.187 0.234,-0.271 0.028,-0.14 -0.093,-0.104 -0.14,-0.122 -0.057,-0.018 -0.159,-0.168 -0.281,-0.187 -0.065,-0.009 -0.28,-0.121 -0.355,-0.15 -0.074,-0.027 -0.224,-0.056 -0.28,-0.083 -0.047,-0.019 -0.066,-0.056 -0.066,-0.131 0.01,-0.075 0.132,-0.047 0.168,-0.047 0.029,0 0.113,-0.009 0.16,0 0.037,0.009 0.122,0.075 0.149,0.093 0.038,0.029 0.103,-0.018 0.103,-0.018 0,0 0.028,-0.103 0.056,-0.131 0.028,-0.038 0.103,0.047 0.103,0.047 l 0.159,-0.019 c 0,0 0.018,0.028 0.084,0.046 0.066,0.019 0.513,0.01 0.672,0.01 0.169,-0.01 0.178,0.196 0.169,0.233 -0.01,0.038 -0.066,0.16 -0.112,0.225"
       id="path27" /><path
       d="m 592.0782,892.0185 c 0.01,0.038 0.075,0.047 0.075,0.047 l 0.122,-0.009 0.112,0.083 0.111,0.15 0.207,0.066 0.121,0.027 0.14,0.075 0.056,0.01 c 0,0 0.103,0.084 0.14,0.14 0.038,0.047 0.262,0.186 0.327,0.242 0.066,0.057 0.121,0.131 0.141,0.178 0.018,0.047 0.064,0.206 0.083,0.243 0.009,0.046 0.075,0.14 0.075,0.196 0,0.066 -0.094,0.159 -0.131,0.169 -0.027,0.009 -0.131,0.055 -0.224,0.149 -0.102,0.084 -0.178,-0.056 -0.187,-0.122 -0.009,-0.056 0,-0.112 0,-0.149 0,-0.047 -0.037,-0.066 -0.065,-0.112 -0.038,-0.037 -0.01,-0.075 -0.038,-0.112 -0.018,-0.029 -0.065,-0.029 -0.065,-0.029 0,0 -0.027,-0.111 -0.093,-0.195 -0.066,-0.094 -0.047,-0.112 -0.215,-0.159 -0.168,-0.047 -0.187,-0.188 -0.225,-0.234 -0.028,-0.037 -0.092,-0.065 -0.139,-0.131 -0.057,-0.056 -0.16,-0.111 -0.197,-0.121 -0.028,-0.019 -0.065,-0.131 -0.065,-0.131 0,0 -0.112,-0.093 -0.15,-0.14 -0.046,-0.056 -0.046,-0.103 -0.046,-0.159 0.009,-0.056 0.112,0 0.13,0.028"
       id="path28" /><path
       d="m 594.6946,893.3733 c -0.019,0.009 -0.094,0.094 -0.094,0.094 l -0.102,0.102 c -0.038,0.038 -0.103,0.056 -0.131,0.066 -0.037,0.018 -0.177,0.046 -0.177,0.046 l -0.065,-0.056 v -0.093 l 0.008,-0.122 0.019,-0.074 c 0,0 0.094,-0.14 0.103,-0.178 0.009,-0.028 0.094,-0.103 0.094,-0.103 l 0.056,-0.084 c 0,0 0.037,-0.074 0.055,-0.103 0.019,-0.027 0.075,-0.009 0.113,0 0.027,0 0.168,0.019 0.168,0.019 l 0.056,0.066 c 0,0 0.028,0.083 0.028,0.149 -0.01,0.056 -0.047,0.103 -0.084,0.149 -0.038,0.057 -0.029,0.113 -0.047,0.122"
       id="path29" /><path
       d="m 594.4607,889.8694 c -0.018,0.112 -0.178,0.149 -0.233,0.149 -0.066,0 -0.085,0.02 -0.121,0.02 -0.038,-0.01 -0.122,-0.103 -0.122,-0.103 -0.085,0 -0.215,-0.066 -0.253,-0.066 -0.037,0 -0.093,-0.037 -0.158,-0.075 -0.075,-0.046 -0.168,-0.075 -0.271,-0.028 -0.094,0.048 0.112,0.131 0.14,0.159 0.019,0.019 0.187,0.122 0.206,0.15 0.018,0.037 0.083,0.065 0.139,0.102 0.066,0.038 0.104,0.141 0.104,0.141 0,0 0.102,0.14 0.121,0.168 0.018,0.028 0.065,0.112 0.047,0.168 -0.029,0.056 -0.009,0.094 0,0.14 0.018,0.047 -0.018,0.141 0.009,0.187 0.018,0.047 0.065,0.205 0.056,0.29 -0.009,0.084 0.018,0.074 0.028,0.102 0,0.029 0.038,0.066 0.038,0.066 0,0 0,0.084 -0.038,0.159 -0.028,0.074 -0.037,0.14 -0.056,0.206 -0.028,0.065 -0.121,0.036 -0.215,0.027 -0.103,-0.009 -0.103,-0.037 -0.215,-0.047 -0.112,-0.009 -0.112,-0.065 -0.112,-0.065 0,0 -0.037,-0.047 -0.093,-0.056 -0.047,-0.018 -0.187,-0.112 -0.243,-0.112 -0.047,0.009 -0.113,0 -0.113,0 0,0 -0.055,-0.066 -0.102,-0.066 -0.047,-0.009 -0.15,0 -0.206,-0.018 -0.056,-0.019 -0.075,-0.122 -0.075,-0.122 l 0.066,-0.037 c 0,0 0.056,-0.037 0.084,-0.103 0.028,-0.056 0.094,-0.075 0.122,-0.093 0.028,-0.009 0.111,-0.028 0.149,-0.056 0.046,-0.019 0.056,0.009 0.084,0.037 0.028,0.037 0.066,0.047 0.103,0.066 0.027,0.018 0.084,0.018 0.14,0.027 0.056,0 0.093,-0.037 0.112,-0.074 0.028,-0.038 0.018,-0.15 0.018,-0.15 0,0 -0.055,-0.121 -0.102,-0.186 -0.037,-0.066 -0.066,-0.132 -0.084,-0.188 -0.019,-0.046 -0.103,-0.074 -0.177,-0.149 -0.085,-0.075 -0.019,-0.14 -0.019,-0.14 0,0 -0.029,-0.084 -0.056,-0.103 -0.028,-0.019 -0.066,-0.121 -0.14,-0.149 -0.066,-0.038 -0.14,-0.206 -0.159,-0.262 -0.019,-0.056 -0.056,-0.028 -0.112,-0.037 -0.047,-0.01 -0.075,-0.047 -0.103,-0.075 -0.028,-0.028 -0.075,-0.018 -0.15,-0.009 -0.075,0.009 -0.177,-0.019 -0.177,-0.019 0,0 -0.029,-0.065 -0.169,-0.15 -0.139,-0.084 -0.102,-0.102 -0.084,-0.13 0.02,-0.028 0.057,-0.141 0.084,-0.197 0.019,-0.065 0.14,-0.112 0.225,-0.177 0.084,-0.065 0.337,-0.056 0.393,-0.038 0.055,0.019 0.289,0.038 0.345,0.085 0.065,0.056 0.253,-0.047 0.392,0.018 0.066,0.028 0.141,0.019 0.206,0 0.074,-0.018 0.243,0 0.308,0.009 0.056,0.01 0.14,-0.027 0.206,-0.046 0.074,-0.01 0.196,0.027 0.252,0.084 0.028,0.028 0.094,0.224 0.103,0.29 0.009,0.074 -0.019,0.187 -0.057,0.243 -0.028,0.056 -0.046,0.112 -0.065,0.233"
       id="path30" /><path
       d="m 553.5194,893.5599 c -0.029,-0.009 -0.14,-0.018 -0.188,-0.018 -0.037,-0.01 -0.037,0.009 -0.056,0.018 -0.008,0.019 -0.008,0.084 -0.008,0.121 0,0.048 -0.057,0.066 -0.076,0.094 -0.009,0.019 -0.037,0.028 -0.028,0.047 0,0.019 -0.027,0.131 -0.037,0.169 -0.009,0.027 -0.065,0.064 -0.093,0.093 -0.028,0.018 -0.075,0.056 -0.084,0.083 -0.019,0.029 -0.084,0.075 -0.113,0.094 -0.018,0.028 -0.055,0.047 -0.093,0.075 -0.028,0.028 -0.037,0.074 -0.103,0.103 -0.056,0.027 -0.102,-0.029 -0.121,-0.056 -0.019,-0.029 -0.057,-0.113 -0.047,-0.178 0,-0.065 -0.01,-0.084 -0.028,-0.168 -0.019,-0.075 0.018,-0.046 0.046,-0.113 0.029,-0.064 -0.028,-0.083 -0.046,-0.13 -0.019,-0.047 0.01,-0.084 0.018,-0.113 0.01,-0.018 0.066,-0.13 0.113,-0.223 0.047,-0.103 0.019,-0.113 0.019,-0.159 -0.01,-0.047 0.009,-0.076 0.018,-0.131 0,-0.056 0.038,-0.122 0.065,-0.159 0.029,-0.037 0.038,-0.075 0.047,-0.14 0.01,-0.066 0.075,-0.103 0.075,-0.103 0.028,-0.019 0.121,-0.047 0.206,-0.084 0.074,-0.038 0.224,0 0.262,0.009 0.046,0.01 0.027,0.038 0.055,0.047 0.028,0.019 0.075,0.019 0.094,0.028 0.028,0.009 0.065,0.046 0.083,0.075 0.02,0.019 0.01,0.159 0.01,0.159 0,0 -0.065,0.196 -0.085,0.242 -0.018,0.047 0,0.066 0.011,0.094 0,0.028 0.064,0.075 0.102,0.112 0.047,0.038 0.075,0.084 0.065,0.103 -0.009,0.028 -0.065,0.019 -0.083,0.009"
       id="path31" /><path
       d="m 557.3403,894.6626 c -0.047,-0.037 -0.066,-0.065 -0.075,-0.074 -0.019,0 -0.065,-0.047 -0.065,-0.066 0,-0.019 0.01,-0.056 -0.065,-0.094 -0.066,-0.037 -0.169,-0.167 -0.225,-0.205 -0.056,-0.028 -0.075,-0.093 -0.131,-0.112 -0.037,-0.01 -0.121,-0.066 -0.187,-0.103 -0.037,-0.028 -0.065,-0.046 -0.075,-0.046 -0.037,-0.019 -0.12,-0.066 -0.149,-0.075 -0.028,-0.01 -0.056,-0.019 -0.103,-0.01 -0.056,0.019 -0.186,0.028 -0.186,0.028 0,0 -0.159,0.103 -0.197,0.112 -0.046,0.01 -0.074,0.066 -0.056,0.131 0.019,0.065 0.056,0.271 0.056,0.308 0,0.038 0.01,0.038 0.019,0.076 0.01,0.036 -0.009,0.074 -0.019,0.102 0,0.038 0,0.103 0.01,0.141 0.009,0.037 0.037,0.139 0.019,0.176 -0.01,0.048 -0.029,0.123 -0.038,0.141 -0.019,0.019 -0.028,0.056 -0.009,0.103 0.009,0.037 0.018,0.103 0.074,0.121 0.047,0.01 0.141,0.038 0.169,0.075 0.018,0.037 0.177,0.037 0.242,0.047 0.066,0 0.15,0.037 0.188,0.037 h 0.055 c 0.066,0 0.14,-0.009 0.14,-0.009 0,0 0.131,-0.028 0.206,-0.038 0.075,-0.018 0.112,-0.056 0.131,-0.074 0.019,-0.01 0.093,-0.066 0.103,-0.113 0,-0.046 0.038,-0.084 0.074,-0.167 0.038,-0.075 0.066,-0.104 0.094,-0.16 0.028,-0.056 0.047,-0.224 0,-0.252 m 0.514,0.308 c -0.019,0.019 -0.028,0.075 -0.037,0.113 0,0.037 0,0.112 -0.01,0.149 -0.009,0.028 -0.019,0.084 -0.055,0.094 -0.048,0.018 -0.123,0.102 -0.141,0.121 -0.028,0.019 -0.093,0.14 -0.112,0.159 -0.019,0.028 -0.084,0.14 -0.122,0.196 -0.028,0.056 -0.112,0.15 -0.14,0.158 -0.037,0.01 -0.065,0 -0.093,-0.018 -0.028,-0.019 -0.178,0 -0.197,0 -0.027,-0.009 -0.065,0 -0.093,-0.009 -0.028,-0.01 -0.131,-0.066 -0.159,-0.075 h -0.168 c -0.028,0 -0.187,-0.037 -0.187,-0.037 0,0 -0.047,0 -0.065,0.009 -0.019,0.01 -0.066,-0.009 -0.075,-0.009 -0.009,-0.01 -0.037,-0.038 -0.075,-0.038 -0.037,0 -0.158,-0.065 -0.196,-0.093 -0.037,-0.028 -0.065,-0.019 -0.093,0 -0.037,0.028 -0.01,0.103 0.009,0.112 0.019,0.009 0.019,0.065 0.009,0.093 0,0.038 0.01,0.065 0.019,0.094 0.009,0.028 0.019,0.046 0.028,0.056 0,0.009 0.019,0.065 0.01,0.112 -0.01,0.047 -0.029,0.056 -0.029,0.075 0,0.018 0,0.084 0.01,0.112 0,0.019 -0.028,0.056 -0.047,0.085 -0.019,0.027 0.009,0.074 0.019,0.092 0.018,0.019 0.037,0.028 0.065,0.028 0.028,0 0.094,0.048 0.113,0.075 0.018,0.028 0.027,0.038 0.037,0.056 0.018,0.019 0.037,0.075 0.046,0.094 0.019,0.018 0.01,0.13 0.019,0.168 0.009,0.037 -0.028,0.065 -0.037,0.103 -0.019,0.028 -0.028,0.131 -0.028,0.158 0,0.029 -0.056,0.066 -0.066,0.084 -0.009,0.019 -0.018,0.084 -0.028,0.104 0,0.018 -0.009,0.009 -0.047,0.111 -0.037,0.113 -0.195,0.122 -0.205,0.122 -0.019,0 -0.159,0.009 -0.252,0.019 -0.084,0.009 -0.178,-0.141 -0.178,-0.141 l -0.009,-0.074 v -0.103 c 0.009,-0.038 0,-0.028 0.075,-0.093 0.065,-0.066 0.028,-0.029 0.018,-0.085 0,-0.056 -0.009,-0.13 -0.028,-0.158 -0.028,-0.028 0.01,-0.094 0.038,-0.15 0.027,-0.056 -0.01,-0.047 -0.028,-0.084 -0.019,-0.037 0.009,-0.084 0.009,-0.121 0,-0.029 -0.019,-0.047 -0.028,-0.066 -0.01,-0.019 0.009,-0.047 0.009,-0.065 0,-0.019 -0.065,-0.103 -0.065,-0.122 0,-0.018 0.019,-0.112 0.028,-0.131 0.009,-0.028 0.047,-0.018 0.018,-0.084 -0.037,-0.056 -0.009,-0.149 0,-0.196 0.019,-0.037 0.038,-0.047 0.038,-0.093 -0.009,-0.037 -0.009,-0.122 0,-0.141 0.019,-0.027 0.019,-0.046 0.019,-0.112 0,-0.065 -0.01,-0.112 -0.038,-0.158 -0.019,-0.056 -0.046,-0.14 -0.103,-0.225 -0.056,-0.074 -0.093,-0.158 -0.112,-0.167 -0.027,-0.01 -0.131,-0.048 -0.159,-0.066 -0.018,-0.019 -0.186,-0.131 -0.28,-0.196 -0.084,-0.056 -0.14,-0.056 -0.196,-0.168 -0.065,-0.103 -0.15,-0.085 -0.177,-0.085 -0.029,-0.009 -0.112,0.009 -0.122,-0.027 -0.009,-0.029 -0.019,-0.066 -0.047,-0.094 -0.037,-0.019 -0.056,-0.047 -0.084,-0.15 -0.028,-0.112 -0.01,-0.075 -0.075,-0.112 -0.065,-0.037 -0.13,-0.131 -0.14,-0.168 0,-0.046 -0.046,-0.094 -0.055,-0.187 -0.01,-0.102 0.074,-0.037 0.111,-0.019 0.038,0.019 0.028,0.019 0.103,0.085 0.084,0.065 0.14,0.018 0.168,0.018 0.029,0 0.131,0.057 0.149,0.075 0.029,0.019 0.056,0.065 0.066,0.112 0.01,0.038 0.103,0.121 0.112,0.131 0,0.009 0.047,0.038 0.131,0.121 0.084,0.084 0.187,0.159 0.187,0.168 0.009,0.01 0.056,0.056 0.131,0.056 0.084,0 0.046,0.038 0.056,0.057 0,0.019 0.046,0.075 0.075,0.121 0.028,0.047 0.065,0.112 0.139,0.103 0.076,-0.009 0.094,-0.037 0.122,-0.056 0.028,-0.018 0.047,-0.066 0.056,-0.121 0.009,-0.066 0.019,-0.057 -0.009,-0.131 -0.019,-0.085 -0.009,-0.075 0,-0.159 0.018,-0.084 0,-0.084 -0.009,-0.121 -0.01,-0.029 -0.019,-0.076 -0.01,-0.131 0,-0.066 0.01,-0.057 0,-0.103 0,-0.047 -0.018,-0.084 -0.009,-0.113 0.019,-0.027 0.019,-0.102 0.019,-0.13 -0.01,-0.028 -0.019,-0.038 -0.019,-0.084 0,-0.047 0.009,-0.085 0.009,-0.131 0,-0.056 -0.018,-0.047 -0.018,-0.084 0,-0.038 0.009,-0.084 0.009,-0.112 0,-0.019 -0.075,-0.084 -0.131,-0.122 -0.056,-0.028 -0.205,-0.055 -0.234,-0.065 -0.028,-0.009 -0.112,-0.103 -0.158,-0.131 -0.047,-0.038 -0.14,-0.056 -0.15,-0.093 -0.018,-0.037 -0.159,-0.094 -0.159,-0.094 0,0 -0.056,-0.019 -0.102,-0.037 -0.048,-0.019 -0.104,-0.075 -0.131,-0.131 -0.028,-0.046 -0.075,-0.018 -0.075,-0.018 0,0 -0.037,-0.048 -0.047,-0.075 -0.009,-0.028 -0.065,-0.038 -0.094,-0.038 -0.037,-0.009 -0.055,-0.009 -0.111,-0.018 -0.047,-0.01 -0.047,-0.057 -0.047,-0.085 0,-0.019 -0.01,-0.14 -0.01,-0.168 0,-0.027 -0.027,-0.056 -0.037,-0.093 -0.009,-0.038 0.01,-0.066 0.019,-0.084 0.018,-0.019 0.047,-0.075 0.075,-0.15 0.028,-0.084 0.103,-0.074 0.131,-0.084 0.028,-0.009 0.074,0.01 0.121,0.028 0.056,0.019 0.075,0.056 0.131,0.056 0.056,0 0.084,0.019 0.121,0.047 0.037,0.019 0.131,0.13 0.131,0.13 0,0 0.103,0.075 0.14,0.104 0.047,0.027 0.065,0.084 0.094,0.14 0.037,0.055 0.037,0.065 0.112,0.093 0.075,0.028 0.037,0.056 0.056,0.047 0.01,0 0.046,0.019 0.065,0.047 0.029,0.018 0.056,0.018 0.075,0 0.018,-0.019 0.074,-0.038 0.084,-0.075 0,-0.038 -0.018,-0.14 -0.018,-0.187 0,-0.056 0,-0.131 0.008,-0.169 0,-0.037 0.01,-0.382 0,-0.467 0,-0.074 -0.018,-0.112 -0.008,-0.205 0.008,-0.093 0.037,-0.028 -0.01,-0.093 -0.038,-0.075 -0.009,-0.121 -0.009,-0.14 -0.01,-0.029 -0.01,-0.075 0.019,-0.103 0.018,-0.028 0.018,-0.065 0.018,-0.084 0.009,-0.028 -0.01,-0.028 -0.037,-0.066 -0.019,-0.028 -0.01,-0.084 0.019,-0.149 0.018,-0.065 -0.019,-0.103 -0.038,-0.131 -0.019,-0.029 -0.019,-0.066 -0.028,-0.094 -0.009,-0.028 -0.009,-0.056 0.009,-0.121 0.019,-0.065 -0.018,-0.065 -0.046,-0.15 -0.02,-0.075 -0.02,-0.14 -0.02,-0.14 0,0 -0.008,-0.112 -0.008,-0.14 v -0.196 c -0.01,-0.028 0.019,-0.103 0.019,-0.168 0,-0.075 -0.048,-0.15 -0.057,-0.187 -0.009,-0.047 -0.009,-0.149 -0.009,-0.196 0,-0.038 0.018,-0.065 0.018,-0.103 0,-0.037 -0.065,-0.14 -0.065,-0.159 0,-0.019 0.019,-0.131 0.009,-0.159 -0.009,-0.028 0.02,-0.056 0.029,-0.112 0.009,-0.055 0,-0.103 0.009,-0.131 0.018,-0.019 0.028,-0.046 0.028,-0.075 0,-0.027 0.047,-0.009 0.084,-0.083 0.037,-0.066 -0.019,-0.112 -0.009,-0.216 0.009,-0.102 0.046,-0.13 0.102,-0.28 0.038,-0.083 0.253,-0.14 0.253,-0.14 0.196,-0.009 0.215,0.15 0.215,0.159 0,0.009 0.019,0.093 0.027,0.141 0.01,0.046 -0.008,0.102 -0.018,0.149 -0.009,0.056 0,0.084 -0.028,0.13 -0.028,0.047 -0.01,0.057 0,0.122 0,0.065 0.028,0.103 0.046,0.178 0.029,0.074 0,0.177 0,0.224 0,0.047 -0.056,0.093 -0.083,0.159 -0.038,0.065 -0.038,0.083 -0.056,0.14 -0.019,0.047 -0.094,0.028 -0.122,0.037 -0.028,0.01 -0.028,0.047 -0.028,0.075 0,0.019 0.009,0.056 0.047,0.14 0.037,0.094 0.009,0.084 -0.01,0.131 -0.018,0.047 -0.018,0.103 -0.009,0.14 0.009,0.037 0.093,0.065 0.122,0.093 0.037,0.019 0.037,0.075 0.056,0.14 0.018,0.066 0,0.113 -0.01,0.141 0,0.018 -0.009,0.074 0,0.103 0,0.037 -0.019,0.102 -0.038,0.149 -0.027,0.056 -0.008,0.075 0.01,0.102 0.028,0.038 0,0.085 -0.018,0.122 -0.01,0.028 -0.057,0.019 -0.038,0.056 0.019,0.028 0.019,0.122 0,0.187 -0.019,0.065 0.019,0.037 0.019,0.094 0.009,0.065 -0.038,0.112 -0.056,0.149 -0.01,0.047 0.009,0.065 0.018,0.074 0,0.019 0.01,0.085 0,0.113 -0.009,0.037 -0.018,0.075 -0.018,0.093 0,0.019 0.028,0.075 0.046,0.093 0.01,0.029 0.019,0.122 0.019,0.132 0,0.018 0.047,0.112 0.075,0.149 0.018,0.037 0.018,0.103 0.028,0.122 0.009,0.018 0.028,0.065 0.038,0.121 0.008,0.056 -0.029,0.149 -0.038,0.168 -0.01,0.019 0,0.028 0,0.056 0,0.019 0,0.094 -0.019,0.122 -0.028,0.037 -0.028,0.083 -0.018,0.13 0,0.038 0,0.094 -0.038,0.188 -0.037,0.084 -0.037,0.149 -0.018,0.224 0.027,0.084 0.139,0.074 0.168,0.074 0.019,0 0.093,-0.027 0.112,-0.037 0.028,0 0.065,0 0.084,0.01 0.009,0.009 0.14,0.083 0.159,0.093 0.028,0 0.037,0 0.056,0.028 0.028,0.018 0.084,0.112 0.093,0.14 0.009,0.019 0.047,0.046 0.14,0.084 0.093,0.047 0.159,0.131 0.159,0.187 -0.009,0.047 -0.018,0.084 -0.009,0.093 0.009,0 0.009,0 0.018,0.01 0.037,0.018 0.094,0.056 0.122,0.074 0.028,0.028 0.084,0.047 0.102,0.057 0.019,0.009 0.066,0.018 0.094,0.027 0.037,0 0.094,0.01 0.112,0.019 0.028,0.019 0.084,0.103 0.094,0.112 0.009,0.01 0.065,0.01 0.094,0.028 0.017,0.009 0.102,0.066 0.102,0.066 0,0 0.103,0.074 0.112,0.093 0.01,0.009 0.084,0.028 0.103,0.047 0.018,0.019 0.102,0.093 0.121,0.131 0.019,0.027 0.066,0.037 0.075,0.046 0.009,0.01 0.065,0.066 0.094,0.084 0.018,0.019 0.037,0.056 0.037,0.075 0,0.019 0,0.056 0.018,0.075 0.01,0.01 0.029,0.066 0.01,0.103 -0.028,0.037 0.009,0.075 0.009,0.075 0,0 0.018,0.075 0.029,0.093 0,0.028 -0.011,0.112 -0.011,0.112 -0.008,0.038 -0.027,0.046 -0.055,0.065"
       id="path32" /></g></svg>
