<?xml version="1.0" encoding="UTF-8" standalone="no"?>
<!-- Created with Inkscape (http://www.inkscape.org/) -->
<svg
   xmlns:dc="http://purl.org/dc/elements/1.1/"
   xmlns:cc="http://creativecommons.org/ns#"
   xmlns:rdf="http://www.w3.org/1999/02/22-rdf-syntax-ns#"
   xmlns:svg="http://www.w3.org/2000/svg"
   xmlns="http://www.w3.org/2000/svg"
   xmlns:sodipodi="http://sodipodi.sourceforge.net/DTD/sodipodi-0.dtd"
   xmlns:inkscape="http://www.inkscape.org/namespaces/inkscape"
   id="svg2457"
   sodipodi:version="0.32"
   inkscape:version="0.46"
   width="280"
   height="200"
   version="1.0"
   sodipodi:docname="Cargolux Logo.svg"
   inkscape:output_extension="org.inkscape.output.svg.inkscape">
  <metadata
     id="metadata2462">
    <rdf:RDF>
      <cc:Work
         rdf:about="">
        <dc:format>image/svg+xml</dc:format>
        <dc:type
           rdf:resource="http://purl.org/dc/dcmitype/StillImage" />
      </cc:Work>
    </rdf:RDF>
  </metadata>
  <defs
     id="defs2460">
    <inkscape:perspective
       sodipodi:type="inkscape:persp3d"
       inkscape:vp_x="177.27994 : 277.84749 : 1"
       inkscape:vp_y="4.4979686e-14 : 553.03945 : 0"
       inkscape:vp_z="591.41192 : 294.58928 : 1"
       inkscape:persp3d-origin="318.10666 : 197.58964 : 1"
       id="perspective2464" />
  </defs>
  <sodipodi:namedview
     inkscape:window-height="744"
     inkscape:window-width="1280"
     inkscape:pageshadow="2"
     inkscape:pageopacity="0.0"
     guidetolerance="10.0"
     gridtolerance="10.0"
     objecttolerance="10.0"
     borderopacity="1.0"
     bordercolor="#666666"
     pagecolor="#ffffff"
     id="base"
     showgrid="false"
     showguides="true"
     inkscape:guide-bbox="true"
     inkscape:zoom="1"
     inkscape:cx="130.0828"
     inkscape:cy="-34.880385"
     inkscape:window-x="-4"
     inkscape:window-y="-4"
     inkscape:current-layer="layer1" />
  <g
     inkscape:groupmode="layer"
     id="layer1"
     inkscape:label="Cargolux Logo"
     sodipodi:insensitive="true">
    <path
       style="fill:#d40000"
       d="M 97.27205,114.2726 L 82.5,105.73696 L 82.77205,87.667209 L 83.0441,69.597439 L 95.5441,62.422579 L 108.0441,55.247719 L 108.5441,39.969939 L 109.0441,24.692159 L 124.64193,15.849629 L 140.23976,7.0070987 L 155.8492,15.753549 L 171.45864,24.499989 L 171.50137,39.680789 L 171.5441,54.861599 L 185.0441,62.481799 L 198.5441,70.101999 L 198.5441,87.482899 L 198.5441,104.8638 L 195.7941,106.76601 C 191.90107,109.45886 167.68406,123 166.76119,123 C 166.33982,123 160.42408,119.85 153.61509,116 C 146.8061,112.15 140.75932,108.99999 140.1778,108.99999 C 139.59627,108.99999 133.59314,112.15 126.8375,116 C 120.08186,119.85 113.98967,122.95685 113.29931,122.90411 C 112.60894,122.85137 105.39668,118.96719 97.27205,114.2726 z M 108.53348,99.749989 L 108.52286,90.499989 L 101.06575,86.249989 C 96.96433,83.912489 93.14411,81.999989 92.57636,81.999989 C 91.94364,81.999989 91.5441,85.460729 91.5441,90.941209 L 91.5441,99.882419 L 99.7941,104.42276 C 104.3316,106.91994 108.1566,108.9714 108.2941,108.98154 C 108.4316,108.99169 108.53932,104.83749 108.53348,99.749989 z M 127.59069,104.41247 L 135.5441,99.824949 L 135.5441,90.392239 L 135.5441,80.959539 L 130.2941,84.039589 C 127.4066,85.733619 123.5816,87.851059 121.7941,88.745029 L 118.5441,90.370419 L 118.5441,99.685199 C 118.5441,104.80834 118.59193,109.28881 118.74694,109.03124 C 118.95382,108.68749 123.21632,106.93561 127.59069,104.41247 z M 161.5441,99.698949 L 161.5441,90.397919 L 154.164,86.198949 C 150.10494,83.889529 146.50494,81.999989 146.164,81.999989 C 145.82305,81.999989 145.54549,86.162489 145.54719,91.249989 L 145.55028,100.49999 L 153.29719,104.72592 C 157.55799,107.05018 161.1566,108.96268 161.2941,108.97592 C 161.4316,108.98916 161.5441,104.81452 161.5441,99.698949 z M 180.59069,104.41247 L 188.5441,99.824949 L 188.5441,90.392239 L 188.5441,80.959539 L 183.2941,84.039589 C 180.4066,85.733619 176.5816,87.851059 174.7941,88.745029 L 171.5441,90.370419 L 171.5441,99.685199 C 171.5441,104.80834 171.79007,108.99999 172.09069,108.99999 C 172.39132,108.99999 176.21632,106.93561 180.59069,104.41247 z M 121.5441,77.709109 C 125.6691,75.360059 128.9062,73.002039 128.73766,72.469059 C 128.56912,71.936069 125.10806,69.699989 121.04643,67.499989 L 113.66164,63.499989 L 107.35287,66.914679 C 96.16248,72.971599 96.31745,72.217739 105.19895,77.392729 C 109.51378,79.906849 113.2691,81.967519 113.5441,81.971979 C 113.8191,81.976439 117.4191,80.058149 121.5441,77.709109 z M 174.14712,77.943119 C 178.1892,75.711839 181.73738,73.496279 182.03196,73.019639 C 182.63034,72.051439 168.58089,63.974439 166.42099,64.044929 C 165.6637,64.069639 161.72331,66.045529 157.66457,68.435799 L 150.28503,72.781739 L 158.16457,77.372799 C 162.49831,79.897889 166.2137,81.971989 166.42099,81.981929 C 166.62828,81.991859 170.10504,80.174399 174.14712,77.943119 z M 135.5441,54.685199 L 135.5441,45.370419 L 132.2941,43.745029 C 130.5066,42.851059 126.6816,40.733619 123.7941,39.039589 L 118.5441,35.959539 L 118.5441,45.390019 L 118.5441,54.820499 L 126.2941,59.361859 C 130.5566,61.859599 134.3816,63.924989 134.7941,63.951599 C 135.2066,63.978219 135.5441,59.808339 135.5441,54.685199 z M 154.2941,59.099399 L 161.5441,54.911769 L 161.5441,45.530009 L 161.5441,36.148239 L 153.5441,40.680749 L 145.5441,45.213249 L 145.5441,54.665639 C 145.5441,59.864449 145.8816,63.931049 146.2941,63.702519 C 146.7066,63.473999 150.3066,61.402589 154.2941,59.099399 z M 148.88435,32.142129 C 157.70577,27.211559 157.88556,28.007249 146.5441,21.784999 L 140.0441,18.218919 L 131.82199,22.938729 L 123.59988,27.658549 L 131.82199,32.313959 C 136.34415,34.874439 140.27888,36.863759 140.56584,36.734679 C 140.85279,36.605599 144.59612,34.538949 148.88435,32.142129 z"
       id="path2702"
       sodipodi:nodetypes="cccccccccccccccccccsssssccccscccscccccccccsccccscccscccccccccsccscccssccsscccscccccccccsccccccccscccccccsc" />
    <path
       transform="matrix(1.1611373,0,0,1.141035,213.018,249.40594)"
       style="font-size:40px;font-style:normal;font-weight:normal;fill:#000000;fill-opacity:1;stroke:none;stroke-width:1px;stroke-linecap:butt;stroke-linejoin:miter;stroke-opacity:1;font-family:Bitstream Vera Sans"
       d="M -148.4135,-85.262013 L -155.76097,-83.935755 C -156.00856,-85.403461 -156.57,-86.508675 -157.44531,-87.251401 C -158.32066,-87.994083 -159.45682,-88.365435 -160.8538,-88.365458 C -162.71057,-88.365435 -164.19156,-87.724411 -165.29676,-86.442383 C -166.40199,-85.160314 -166.9546,-83.016198 -166.95459,-80.01003 C -166.9546,-76.667848 -166.39315,-74.30711 -165.27024,-72.92781 C -164.14735,-71.548495 -162.63984,-70.858842 -160.7477,-70.858847 C -159.33304,-70.858842 -158.17478,-71.26114 -157.2729,-72.065742 C -156.37107,-72.870332 -155.73446,-74.25406 -155.36309,-76.216931 L -148.04214,-74.970248 C -148.80256,-71.610387 -150.26144,-69.072816 -152.4188,-67.357525 C -154.5762,-65.642231 -157.46744,-64.784584 -161.09253,-64.784584 C -165.21278,-64.784584 -168.49748,-66.084316 -170.94663,-68.683783 C -173.39579,-71.283244 -174.62036,-74.881822 -174.62036,-79.479527 C -174.62036,-84.130254 -173.39136,-87.750936 -170.93336,-90.341583 C -168.47537,-92.93218 -165.15089,-94.227491 -160.9599,-94.22752 C -157.52933,-94.227491 -154.80166,-93.489208 -152.77689,-92.012669 C -150.75216,-90.536076 -149.29769,-88.28586 -148.4135,-85.262013 L -148.4135,-85.262013 z M -137.16682,-84.996762 L -143.93074,-86.216919 C -143.17036,-88.940146 -141.86178,-90.956057 -140.00502,-92.264658 C -138.14826,-93.573204 -135.38965,-94.227491 -131.72916,-94.22752 C -128.40469,-94.227491 -125.92902,-93.834035 -124.30212,-93.04715 C -122.67526,-92.26021 -121.53026,-91.261096 -120.86711,-90.049806 C -120.20401,-88.838467 -119.87244,-86.614776 -119.87241,-83.378726 L -119.95199,-74.678471 C -119.95202,-72.202782 -119.83265,-70.376968 -119.5939,-69.201024 C -119.3552,-68.025073 -118.90869,-66.765128 -118.25438,-65.421188 L -125.62838,-65.421188 C -125.82291,-65.916324 -126.06164,-66.650186 -126.34456,-67.622777 C -126.46836,-68.06486 -126.55678,-68.356637 -126.60981,-68.498107 C -127.88303,-67.260264 -129.24466,-66.331884 -130.69468,-65.712965 C -132.14474,-65.094044 -133.69204,-64.784584 -135.33659,-64.784584 C -138.23668,-64.784584 -140.52226,-65.571497 -142.19334,-67.145324 C -143.86443,-68.719147 -144.69997,-70.708533 -144.69997,-73.113486 C -144.69997,-74.704987 -144.31978,-76.124082 -143.55939,-77.370776 C -142.799,-78.617446 -141.73358,-79.572351 -140.36311,-80.235494 C -138.99265,-80.898608 -137.01652,-81.47774 -134.43473,-81.972893 C -130.95111,-82.627163 -128.53732,-83.237241 -127.19336,-83.803129 L -127.19336,-84.545834 C -127.19338,-85.978172 -127.54705,-86.99939 -128.25437,-87.609491 C -128.96172,-88.219547 -130.29682,-88.524586 -132.25967,-88.524609 C -133.58594,-88.524586 -134.62042,-88.263755 -135.36311,-87.742117 C -136.10583,-87.220433 -136.70706,-86.305316 -137.16682,-84.996762 L -137.16682,-84.996762 z M -127.19336,-78.949023 C -128.14829,-78.630708 -129.66022,-78.250514 -131.72916,-77.808441 C -133.79814,-77.366343 -135.15092,-76.933099 -135.78752,-76.508708 C -136.76011,-75.819043 -137.24641,-74.943714 -137.2464,-73.882716 C -137.24641,-72.839386 -136.85737,-71.937531 -136.07929,-71.177149 C -135.30123,-70.416756 -134.31096,-70.036562 -133.10847,-70.036567 C -131.76455,-70.036562 -130.4825,-70.478648 -129.26232,-71.362825 C -128.36049,-72.03479 -127.76809,-72.857069 -127.48514,-73.829666 C -127.29064,-74.466261 -127.19338,-75.677576 -127.19336,-77.463614 L -127.19336,-78.949023 z M -105.36315,-65.421188 L -112.81672,-65.421188 L -112.81672,-93.590916 L -105.89365,-93.590916 L -105.89365,-89.585616 C -104.70887,-91.477718 -103.64345,-92.7244 -102.69737,-93.325664 C -101.75132,-93.926873 -100.67705,-94.227491 -99.47456,-94.22752 C -97.776968,-94.227491 -96.141251,-93.75888 -94.567404,-92.821686 L -96.875094,-86.32302 C -98.130637,-87.136437 -99.297743,-87.543156 -100.37642,-87.543178 C -101.41975,-87.543156 -102.30393,-87.2558 -103.02893,-86.68111 C -103.75397,-86.106377 -104.32426,-85.067476 -104.73981,-83.564403 C -105.15538,-82.061293 -105.36316,-78.913643 -105.36315,-74.121443 L -105.36315,-65.421188 z M -92.074039,-63.564426 L -83.55946,-62.529945 C -83.418005,-61.539676 -83.090861,-60.858864 -82.578029,-60.487507 C -81.870705,-59.957009 -80.756649,-59.691757 -79.235858,-59.691752 C -77.290697,-59.691757 -75.831814,-59.983534 -74.859205,-60.567082 C -74.204939,-60.956122 -73.709803,-61.583884 -73.373796,-62.450369 C -73.143933,-63.069292 -73.028991,-64.209873 -73.028969,-65.872116 L -73.028969,-69.983517 C -75.257103,-66.941963 -78.068768,-65.421188 -81.463972,-65.421188 C -85.248239,-65.421188 -88.24558,-67.021538 -90.456004,-70.222243 C -92.188985,-72.750969 -93.055473,-75.898619 -93.055471,-79.665203 C -93.055473,-84.386664 -91.919313,-87.994083 -89.646986,-90.487471 C -87.374672,-92.98081 -84.549744,-94.227491 -81.172195,-94.22752 C -77.688574,-94.227491 -74.815017,-92.697875 -72.551516,-89.638666 L -72.551516,-93.590916 L -65.575397,-93.590916 L -65.575397,-68.312431 C -65.575426,-64.987944 -65.84952,-62.503422 -66.397677,-60.858859 C -66.945892,-59.214305 -67.715121,-57.923415 -68.705367,-56.986185 C -69.695665,-56.048971 -71.017501,-55.315109 -72.670879,-54.784596 C -74.324302,-54.254103 -76.415367,-53.988852 -78.944081,-53.988841 C -83.718623,-53.988852 -87.104999,-54.806711 -89.103221,-56.442419 C -91.101454,-58.078145 -92.100568,-60.151526 -92.100564,-62.66257 C -92.100568,-62.910141 -92.091726,-63.210759 -92.074039,-63.564426 L -92.074039,-63.564426 z M -85.416222,-80.089606 C -85.416232,-77.101092 -84.8371,-74.912768 -83.678824,-73.524627 C -82.520571,-72.136469 -81.092634,-71.442395 -79.395009,-71.442401 C -77.573632,-71.442395 -76.035174,-72.154153 -74.77963,-73.577677 C -73.524127,-75.001185 -72.896365,-77.109933 -72.896343,-79.903929 C -72.896365,-82.82168 -73.497602,-84.9879 -74.700054,-86.402596 C -75.902548,-87.817249 -77.423323,-88.524586 -79.262383,-88.524609 C -81.048425,-88.524586 -82.520571,-87.830511 -83.678824,-86.442383 C -84.8371,-85.054213 -85.416232,-82.936623 -85.416222,-80.089606 L -85.416222,-80.089606 z M -59.89901,-79.903929 C -59.899012,-82.379595 -59.288934,-84.775699 -58.068773,-87.09225 C -56.848621,-89.408757 -55.120066,-91.1771 -52.883103,-92.397283 C -50.646159,-93.617413 -48.148375,-94.227491 -45.389743,-94.22752 C -41.128054,-94.227491 -37.635577,-92.843763 -34.912302,-90.076331 C -32.189081,-87.30885 -30.827457,-83.811952 -30.827426,-79.585627 C -30.827457,-75.323907 -32.202344,-71.791643 -34.95209,-68.988823 C -37.70189,-66.185996 -41.163421,-64.784584 -45.336693,-64.784584 C -47.91849,-64.784584 -50.380907,-65.368138 -52.723952,-66.535245 C -55.067016,-67.70235 -56.848621,-69.413222 -58.068773,-71.667865 C -59.288934,-73.922496 -59.899012,-76.667848 -59.89901,-79.903929 L -59.89901,-79.903929 z M -52.259762,-79.506052 C -52.259772,-76.712056 -51.596643,-74.572362 -50.270374,-73.086961 C -48.944129,-71.601546 -47.308412,-70.858842 -45.363218,-70.858847 C -43.418058,-70.858842 -41.786762,-71.601546 -40.469325,-73.086961 C -39.151931,-74.572362 -38.493223,-76.72974 -38.4932,-79.559102 C -38.493223,-82.317703 -39.151931,-84.439714 -40.469325,-85.925143 C -41.786762,-87.41053 -43.418058,-88.153234 -45.363218,-88.153257 C -47.308412,-88.153234 -48.944129,-87.41053 -50.270374,-85.925143 C -51.596643,-84.439714 -52.259772,-82.300019 -52.259762,-79.506052 L -52.259762,-79.506052 z M -24.965363,-65.421188 L -24.965363,-104.30708 L -17.511791,-104.30708 L -17.511791,-65.421188 L -24.965363,-65.421188 z M 8.6420284,-65.421188 L 8.6420284,-69.63869 C 7.6163671,-68.135594 6.2680058,-66.950804 4.5969403,-66.084317 C 2.925838,-65.217828 1.1619161,-64.784584 -0.69483068,-64.784584 C -2.5869705,-64.784584 -4.2845796,-65.200145 -5.7876629,-66.031267 C -7.2907622,-66.862387 -8.378293,-68.029493 -9.0502585,-69.532589 C -9.7222335,-71.035676 -10.058219,-73.113479 -10.058215,-75.766003 L -10.058215,-93.590916 L -2.6046428,-93.590916 L -2.6046428,-80.646634 C -2.604654,-76.685531 -2.4676074,-74.258481 -2.1935027,-73.365476 C -1.9194211,-72.472455 -1.4198643,-71.765117 -0.69483068,-71.243462 C 0.030176741,-70.721795 0.94971497,-70.460965 2.0637868,-70.46097 C 3.3369777,-70.460965 4.4775588,-70.810212 5.4855334,-71.508714 C 6.4934695,-72.207203 7.1831232,-73.073691 7.5544965,-74.10818 C 7.9258271,-75.142652 8.1115031,-77.675803 8.111525,-81.707641 L 8.111525,-93.590916 L 15.565097,-93.590916 L 15.565097,-65.421188 L 8.6420284,-65.421188 z M 19.729542,-65.421188 L 29.888681,-79.930455 L 20.153944,-93.590916 L 29.252077,-93.590916 L 34.238808,-85.845567 L 39.490792,-93.590916 L 48.244097,-93.590916 L 38.695037,-80.248757 L 49.119428,-65.421188 L 39.968245,-65.421188 L 34.238808,-74.147968 L 28.456322,-65.421188 L 19.729542,-65.421188 z"
       id="flowRoot2704" />
  </g>
</svg>
