<?xml version="1.0" encoding="UTF-8" standalone="no"?>
<!-- Created with Inkscape (http://www.inkscape.org/) -->

<svg
   xmlns:dc="http://purl.org/dc/elements/1.1/"
   xmlns:cc="http://creativecommons.org/ns#"
   xmlns:rdf="http://www.w3.org/1999/02/22-rdf-syntax-ns#"
   xmlns:svg="http://www.w3.org/2000/svg"
   xmlns="http://www.w3.org/2000/svg"
   xmlns:sodipodi="http://sodipodi.sourceforge.net/DTD/sodipodi-0.dtd"
   xmlns:inkscape="http://www.inkscape.org/namespaces/inkscape"
   width="464.37601"
   height="82.608002"
   viewBox="0 0 122.86614 21.8567"
   version="1.1"
   id="svg8"
   inkscape:version="0.92.0 r15299"
   sodipodi:docname="copa.svg">
  <defs
     id="defs2">
    <clipPath
       id="clipPath3696"
       clipPathUnits="userSpaceOnUse">
      <path
         inkscape:connector-curvature="0"
         id="path3694"
         d="m 0,461.543 433.789,-3.786 2.62,300.209 L 0,761.774 Z" />
    </clipPath>
    <clipPath
       id="clipPath3710"
       clipPathUnits="userSpaceOnUse">
      <path
         inkscape:connector-curvature="0"
         id="path3708"
         d="M 0,0 H 595.276 V 841.89 H 0 Z" />
    </clipPath>
    <clipPath
       id="clipPath3722"
       clipPathUnits="userSpaceOnUse">
      <path
         inkscape:connector-curvature="0"
         id="path3720"
         d="M 74.2169,660.248 H 604.78 V 357.361 H 74.2169 Z" />
    </clipPath>
    <clipPath
       id="clipPath3738"
       clipPathUnits="userSpaceOnUse">
      <path
         inkscape:connector-curvature="0"
         id="path3736"
         d="M -9.50385,541.794 H 76.2169 V 490.511 H -9.50385 Z" />
    </clipPath>
    <clipPath
       id="clipPath3766"
       clipPathUnits="userSpaceOnUse">
      <path
         inkscape:connector-curvature="0"
         id="path3764"
         d="M 0,0 H 595.276 V 841.89 H 0 Z" />
    </clipPath>
    <clipPath
       id="clipPath3784"
       clipPathUnits="userSpaceOnUse">
      <path
         inkscape:connector-curvature="0"
         id="path3782"
         d="M 0,0 H 595.276 V 841.89 H 0 Z" />
    </clipPath>
    <clipPath
       id="clipPath3836"
       clipPathUnits="userSpaceOnUse">
      <path
         inkscape:connector-curvature="0"
         id="path3834"
         d="M 0,0 H 595.276 V 841.89 H 0 Z" />
    </clipPath>
    <clipPath
       id="clipPath3860"
       clipPathUnits="userSpaceOnUse">
      <path
         inkscape:connector-curvature="0"
         id="path3858"
         d="M 0,0 H 595.276 V 841.89 H 0 Z" />
    </clipPath>
    <clipPath
       id="clipPath3876"
       clipPathUnits="userSpaceOnUse">
      <path
         inkscape:connector-curvature="0"
         id="path3874"
         d="M 0,0 H 595.276 V 841.89 H 0 Z" />
    </clipPath>
    <clipPath
       id="clipPath3896"
       clipPathUnits="userSpaceOnUse">
      <path
         inkscape:connector-curvature="0"
         id="path3894"
         d="m 406.111,354.283 c 0,-44.357 35.957,-80.316 80.315,-80.316 v 0 c 44.356,0 80.315,35.959 80.315,80.316 v 0 c 0,44.357 -35.959,80.315 -80.315,80.315 v 0 c -44.358,0 -80.315,-35.958 -80.315,-80.315" />
    </clipPath>
    <clipPath
       id="clipPath3908"
       clipPathUnits="userSpaceOnUse">
      <path
         inkscape:connector-curvature="0"
         id="path3906"
         d="m 406.111,354.283 c 0,-44.357 35.957,-80.316 80.315,-80.316 v 0 c 44.356,0 80.315,35.959 80.315,80.316 v 0 c 0,44.357 -35.959,80.315 -80.315,80.315 v 0 c -44.358,0 -80.315,-35.958 -80.315,-80.315" />
    </clipPath>
    <clipPath
       id="clipPath3978"
       clipPathUnits="userSpaceOnUse">
      <path
         inkscape:connector-curvature="0"
         id="path3976"
         d="m 406.299,542.835 c 0,-44.357 35.958,-80.315 80.315,-80.315 v 0 c 44.357,0 80.316,35.958 80.316,80.315 v 0 c 0,44.357 -35.959,80.316 -80.316,80.316 v 0 c -44.357,0 -80.315,-35.959 -80.315,-80.316" />
    </clipPath>
    <clipPath
       id="clipPath3990"
       clipPathUnits="userSpaceOnUse">
      <path
         inkscape:connector-curvature="0"
         id="path3988"
         d="m 406.299,542.835 c 0,-44.357 35.958,-80.315 80.315,-80.315 v 0 c 44.357,0 80.316,35.958 80.316,80.315 v 0 c 0,44.357 -35.959,80.316 -80.316,80.316 v 0 c -44.357,0 -80.315,-35.959 -80.315,-80.316" />
    </clipPath>
    <clipPath
       id="clipPath4004"
       clipPathUnits="userSpaceOnUse">
      <path
         inkscape:connector-curvature="0"
         id="path4002"
         d="m 406.111,94.961 h 160.63 v 46.157 h -160.63 z" />
    </clipPath>
    <clipPath
       id="clipPath4016"
       clipPathUnits="userSpaceOnUse">
      <path
         inkscape:connector-curvature="0"
         id="path4014"
         d="m 406.111,94.961 h 160.63 v 46.157 h -160.63 z" />
    </clipPath>
    <clipPath
       id="clipPath4070"
       clipPathUnits="userSpaceOnUse">
      <path
         inkscape:connector-curvature="0"
         id="path4068"
         d="M 0,0 H 595.276 V 841.89 H 0 Z" />
    </clipPath>
    <clipPath
       id="clipPath4174"
       clipPathUnits="userSpaceOnUse">
      <path
         inkscape:connector-curvature="0"
         id="path4172"
         d="M 0,0 H 595.276 V 841.89 H 0 Z" />
    </clipPath>
    <clipPath
       id="clipPath4238"
       clipPathUnits="userSpaceOnUse">
      <path
         inkscape:connector-curvature="0"
         id="path4236"
         d="M 0,0 H 595.276 V 841.89 H 0 Z" />
    </clipPath>
    <clipPath
       id="clipPath5441"
       clipPathUnits="userSpaceOnUse">
      <path
         inkscape:connector-curvature="0"
         id="path5439"
         d="M 0,612 H 792 V 0 H 0 Z" />
    </clipPath>
    <clipPath
       id="clipPath5481"
       clipPathUnits="userSpaceOnUse">
      <path
         inkscape:connector-curvature="0"
         id="path5479"
         d="m 280.093,84.878 h 226.334 v 33.807 H 280.093 Z" />
    </clipPath>
    <clipPath
       id="clipPath5553"
       clipPathUnits="userSpaceOnUse">
      <path
         inkscape:connector-curvature="0"
         id="path5551"
         d="M 0,0 H 792 V 612 H 0 Z" />
    </clipPath>
    <clipPath
       id="clipPath5561"
       clipPathUnits="userSpaceOnUse">
      <path
         inkscape:connector-curvature="0"
         id="path5559"
         d="M 27.3465,86.2805 H 764.654 V 83.2368 H 27.3465 Z" />
    </clipPath>
    <clipPath
       id="clipPath5597"
       clipPathUnits="userSpaceOnUse">
      <path
         inkscape:connector-curvature="0"
         id="path5595"
         d="M 28.346,60.583 H 45.205 V 72.208 H 28.346 Z" />
    </clipPath>
    <clipPath
       id="clipPath5613"
       clipPathUnits="userSpaceOnUse">
      <path
         inkscape:connector-curvature="0"
         id="path5611"
         d="M 28.346,41.67 H 42.454 V 55.777 H 28.346 Z" />
    </clipPath>
    <clipPath
       id="clipPath5625"
       clipPathUnits="userSpaceOnUse">
      <path
         inkscape:connector-curvature="0"
         id="path5623"
         d="M 368.643,193.546 H 421.6 v 20.632 h -52.957 z" />
    </clipPath>
    <clipPath
       id="clipPath5689"
       clipPathUnits="userSpaceOnUse">
      <path
         inkscape:connector-curvature="0"
         id="path5687"
         d="m 273.644,174.118 h 53.934 v 6.133 h -53.934 z" />
    </clipPath>
    <linearGradient
       id="linearGradient5775"
       spreadMethod="pad"
       gradientTransform="matrix(41.891075,0,0,-41.891075,405.96179,159.24508)"
       gradientUnits="userSpaceOnUse"
       y2="0"
       x2="1"
       y1="0"
       x1="0">
      <stop
         id="stop5771"
         offset="0"
         style="stop-opacity:1;stop-color:#e16b03" />
      <stop
         id="stop5773"
         offset="1"
         style="stop-opacity:1;stop-color:#fdf1e7" />
    </linearGradient>
    <linearGradient
       id="linearGradient5795"
       spreadMethod="pad"
       gradientTransform="matrix(34.768821,0,0,-34.768821,408.84999,160.96264)"
       gradientUnits="userSpaceOnUse"
       y2="0"
       x2="1"
       y1="0"
       x1="0">
      <stop
         id="stop5791"
         offset="0"
         style="stop-opacity:1;stop-color:#e16b03" />
      <stop
         id="stop5793"
         offset="1"
         style="stop-opacity:1;stop-color:#fdf1e7" />
    </linearGradient>
    <linearGradient
       id="linearGradient5815"
       spreadMethod="pad"
       gradientTransform="matrix(28.528487,0,0,-28.528487,411.30316,162.34905)"
       gradientUnits="userSpaceOnUse"
       y2="0"
       x2="1"
       y1="0"
       x1="0">
      <stop
         id="stop5811"
         offset="0"
         style="stop-opacity:1;stop-color:#e16b03" />
      <stop
         id="stop5813"
         offset="1"
         style="stop-opacity:1;stop-color:#fdf1e7" />
    </linearGradient>
    <linearGradient
       id="linearGradient5835"
       spreadMethod="pad"
       gradientTransform="matrix(23.630082,0,0,-23.630082,413.73821,163.55308)"
       gradientUnits="userSpaceOnUse"
       y2="0"
       x2="1"
       y1="0"
       x1="0">
      <stop
         id="stop5831"
         offset="0"
         style="stop-opacity:1;stop-color:#e16b03" />
      <stop
         id="stop5833"
         offset="1"
         style="stop-opacity:1;stop-color:#fdf1e7" />
    </linearGradient>
    <linearGradient
       id="linearGradient5855"
       spreadMethod="pad"
       gradientTransform="matrix(19.088539,0,0,-19.088539,416.22795,164.65415)"
       gradientUnits="userSpaceOnUse"
       y2="0"
       x2="1"
       y1="0"
       x1="0">
      <stop
         id="stop5851"
         offset="0"
         style="stop-opacity:1;stop-color:#e16b03" />
      <stop
         id="stop5853"
         offset="1"
         style="stop-opacity:1;stop-color:#fdf1e7" />
    </linearGradient>
    <linearGradient
       id="linearGradient5875"
       spreadMethod="pad"
       gradientTransform="matrix(15.779918,0,0,-15.779918,418.23148,165.52198)"
       gradientUnits="userSpaceOnUse"
       y2="0"
       x2="1"
       y1="0"
       x1="0">
      <stop
         id="stop5871"
         offset="0"
         style="stop-opacity:1;stop-color:#e16b03" />
      <stop
         id="stop5873"
         offset="1"
         style="stop-opacity:1;stop-color:#fdf1e7" />
    </linearGradient>
    <clipPath
       id="clipPath5905"
       clipPathUnits="userSpaceOnUse">
      <path
         inkscape:connector-curvature="0"
         id="path5903"
         d="m 405.962,149.503 h 41.891 v 16.491 h -41.891 z" />
    </clipPath>
    <clipPath
       id="clipPath5953"
       clipPathUnits="userSpaceOnUse">
      <path
         inkscape:connector-curvature="0"
         id="path5951"
         d="m 465.292,175.936 h 51.306 v 2.496 h -51.306 z" />
    </clipPath>
    <clipPath
       id="clipPath6017"
       clipPathUnits="userSpaceOnUse">
      <path
         inkscape:connector-curvature="0"
         id="path6015"
         d="m 365.759,140.882 h 33.819 v 27.013 h -33.819 z" />
    </clipPath>
    <clipPath
       id="clipPath6055"
       clipPathUnits="userSpaceOnUse">
      <path
         inkscape:connector-curvature="0"
         id="path6053"
         d="m 365.759,143.811 h 33.819 v 24.083 h -33.819 z" />
    </clipPath>
    <clipPath
       id="clipPath6069"
       clipPathUnits="userSpaceOnUse">
      <path
         inkscape:connector-curvature="0"
         id="path6067"
         d="m 365.759,140.882 h 33.819 v 27.013 h -33.819 z" />
    </clipPath>
    <clipPath
       id="clipPath6155"
       clipPathUnits="userSpaceOnUse">
      <path
         inkscape:connector-curvature="0"
         id="path6153"
         d="m 401.746,174.42 h 50.504 v 5.528 h -50.504 z" />
    </clipPath>
    <clipPath
       id="clipPath6227"
       clipPathUnits="userSpaceOnUse">
      <path
         inkscape:connector-curvature="0"
         id="path6225"
         d="m 340.619,172.624 h 48.087 v 9.119 h -48.087 z" />
    </clipPath>
    <clipPath
       id="clipPath6379"
       clipPathUnits="userSpaceOnUse">
      <path
         inkscape:connector-curvature="0"
         id="path6377"
         d="m 318.601,153.067 h 40.775 v 9.381 h -40.775 z" />
    </clipPath>
    <clipPath
       id="clipPath6395"
       clipPathUnits="userSpaceOnUse">
      <path
         inkscape:connector-curvature="0"
         id="path6393"
         d="m 318.601,153.049 h 40.775 v 9.398 h -40.775 z" />
    </clipPath>
    <clipPath
       id="clipPath6433"
       clipPathUnits="userSpaceOnUse">
      <path
         inkscape:connector-curvature="0"
         id="path6431"
         d="m 318.601,153.067 h 40.775 v 9.381 h -40.775 z" />
    </clipPath>
    <clipPath
       id="clipPath6449"
       clipPathUnits="userSpaceOnUse">
      <path
         inkscape:connector-curvature="0"
         id="path6447"
         d="m 318.601,153.049 h 40.775 v 9.398 h -40.775 z" />
    </clipPath>
    <clipPath
       id="clipPath6465"
       clipPathUnits="userSpaceOnUse">
      <path
         inkscape:connector-curvature="0"
         id="path6463"
         d="m 454.236,153.442 h 62.362 v 8.612 h -62.362 z" />
    </clipPath>
  </defs>
  <sodipodi:namedview
     id="base"
     pagecolor="#ffffff"
     bordercolor="#666666"
     borderopacity="1.0"
     inkscape:pageopacity="0.0"
     inkscape:pageshadow="2"
     inkscape:zoom="1.7345191"
     inkscape:cx="232.188"
     inkscape:cy="41.304003"
     inkscape:document-units="mm"
     inkscape:current-layer="layer1"
     showgrid="false"
     fit-margin-top="0"
     fit-margin-left="0"
     fit-margin-right="0"
     fit-margin-bottom="0"
     units="px"
     inkscape:window-width="1280"
     inkscape:window-height="744"
     inkscape:window-x="-4"
     inkscape:window-y="-4"
     inkscape:window-maximized="1" />
  <metadata
     id="metadata5">
    <rdf:RDF>
      <cc:Work
         rdf:about="">
        <dc:format>image/svg+xml</dc:format>
        <dc:type
           rdf:resource="http://purl.org/dc/dcmitype/StillImage" />
        <dc:title></dc:title>
      </cc:Work>
    </rdf:RDF>
  </metadata>
  <g
     inkscape:label="Layer 1"
     inkscape:groupmode="layer"
     id="layer1"
     transform="translate(-95.257301,-310.32489)">
    <g
       id="g10760"
       transform="matrix(0.26458333,0,0,0.26458333,90.445061,309.36366)">
	<path
   style="fill:#0060a9"
   inkscape:connector-curvature="0"
   d="m 456.924,76.77 c -4.504,-1.293 -10.02,-1.377 -15.951,-0.246 -6.119,1.164 -12.529,3.613 -18.553,7.07 -0.914,0.527 -1.816,1.072 -2.697,1.646 h 47.604 c -0.152,-0.359 -0.313,-0.709 -0.488,-1.045 -1.88,-3.531 -5.316,-6.101 -9.915,-7.425 z"
   id="path10744" />

	<path
   style="fill:#0060a9"
   inkscape:connector-curvature="0"
   d="m 469.154,72.641 c -2.266,-4.258 -6.395,-7.352 -11.938,-8.941 -5.418,-1.566 -12.059,-1.668 -19.203,-0.305 -7.355,1.402 -15.074,4.344 -22.316,8.512 -5.465,3.141 -10.447,6.836 -14.73,10.914 v 2.42 h 16.014 c 1.865,-1.475 3.85,-2.865 5.941,-4.174 7.506,-4.707 15.838,-7.873 23.467,-8.922 7.553,-1.039 14.055,0.039 18.309,3.047 3.336,2.352 5.199,5.762 5.555,10.049 h 0.563 l 0.203,-2.025 c 0.401,-3.941 -0.232,-7.499 -1.865,-10.575 z"
   id="path10746" />

	<path
   style="fill:#0060a9"
   inkscape:connector-curvature="0"
   d="m 402.703,49.793 c -0.584,0.34 -1.164,0.676 -1.736,1.023 v 6.777 c 16.498,-12.058 34.352,-16.255 49.057,-17.203 -12.389,-3.567 -30.231,-0.423 -47.321,9.403 z"
   id="path10748" />

	<path
   style="fill:#0060a9"
   inkscape:connector-curvature="0"
   d="m 457.311,41.959 c 0.59,0.494 1.16,1.014 1.695,1.572 0,0 3.916,4.056 5.211,7.892 l -1.256,-1.982 c -1.986,-3.133 -4.83,-5.562 -8.342,-7.287 -15.934,1.326 -36.18,6.279 -53.652,20.705 v 1.09 c 4.676,-3.73 9.717,-6.975 15.012,-9.666 5.658,-2.877 11.373,-5.006 16.99,-6.326 5.65,-1.328 10.934,-1.785 15.721,-1.352 9.195,0.828 15.789,4.852 19.078,11.648 0,0 2.52,5.105 2.742,10.291 l -0.707,-2.955 c -0.369,-1.523 -0.914,-2.984 -1.639,-4.336 -2.51,-4.711 -7.076,-8.141 -13.213,-9.898 -5.996,-1.725 -13.34,-1.84 -21.24,-0.336 -8.15,1.557 -16.689,4.809 -24.695,9.418 -2.814,1.611 -5.5,3.355 -8.049,5.217 v 15.943 c 2.82,-2.934 5.973,-5.709 9.441,-8.281 5.109,-3.805 10.66,-7.004 16.48,-9.512 11.695,-5.039 23.139,-6.613 31.393,-4.336 7.648,2.121 12.203,7.391 13.178,15.246 0,0 0.523,5.02 -0.479,10.525 h 10.584 V 43.004 c -2.839,-0.476 -12.082,-1.785 -24.253,-1.045 z"
   id="path10750" />

	<g
   id="g10756">
		<path
   style="fill:#0060a9"
   inkscape:connector-curvature="0"
   d="m 416.639,26.75 c -5.133,0.879 -10.451,2.531 -15.672,4.852 v 2.008 c 6.988,-3.633 14.006,-5.996 20.686,-7.479 -1.633,0.119 -3.303,0.323 -5.014,0.619 z"
   id="path10752" />

		<path
   style="fill:#0060a9"
   inkscape:connector-curvature="0"
   d="m 400.967,4.633 v 21.496 c 0,0 9.066,-3.129 18.695,-1.668 l -3.836,0.148 c -4.715,0.176 -9.789,1.266 -14.859,3.148 v 2.387 c 7.895,-3.629 17.176,-5.467 25.238,-4.902 20.188,-3.418 36.264,0.75 36.264,0.75 -3.135,-0.525 -15.484,-2.262 -30.705,0.039 1.439,0.334 3.727,1.016 6.043,2.367 l -1.881,-0.672 c -1.842,-0.656 -3.848,-1.121 -5.98,-1.402 -9.166,1.563 -19.252,4.621 -28.979,10.279 v 1.189 c 14.654,-8.004 30.42,-11 41.855,-6.887 18.311,-1.32 31.785,2.408 31.785,2.408 -3.074,-0.518 -14.012,-2.066 -28.105,-0.752 0.789,0.439 4.219,2.441 5.676,4.492 l -0.836,-0.676 c -1.906,-1.525 -4.135,-2.738 -6.621,-3.641 -13.291,1.449 -29.125,5.492 -43.754,15.238 v 1.102 c 1.258,-0.816 2.535,-1.605 3.832,-2.361 10.455,-6.119 21.494,-9.855 31.082,-10.519 7.533,-0.521 13.992,0.85 18.984,3.988 15.152,-0.303 25.984,2.617 26.699,2.814 V 4.633 Z"
   id="path10754" />

	</g>

	<path
   style="fill:#0060a9"
   inkscape:connector-curvature="0"
   d="m 400.967,39.268 v 4.396 c 12.895,-7.672 26.211,-11.121 37.918,-12.398 -10.739,-1.697 -24.526,1.074 -37.918,8.002 z"
   id="path10758" />

</g>
    <g
       id="g10786"
       transform="matrix(0.26458333,0,0,0.26458333,90.445061,309.36366)">
	<path
   style="fill:#0060a9"
   inkscape:connector-curvature="0"
   d="m 187.848,23.133 h 10.137 c 1.768,3.801 16.346,35.251 16.346,35.251 h -9.25 l -3.826,-8.223 H 184.46 l -3.715,8.23 h -9.303 v 0 z m 10.506,20.592 -5.438,-12.076 -5.5,12.076 z"
   id="path10762" />

	<path
   style="fill:#0060a9"
   inkscape:connector-curvature="0"
   d="m 307.596,31.016 c -5.883,0 -8.727,3.086 -8.727,3.086 l -0.488,-2.547 h -7.902 c 0.297,0.953 0.836,2.75 0.836,4.309 v 22.529 h 7.813 V 42.809 c 0,-4.238 2.586,-6.402 8.469,-6.402 3.23,0 5.193,1.074 5.193,6.402 v 15.583 h 7.814 V 42.809 c 0,-8.019 -2.586,-11.793 -13.008,-11.793 z"
   id="path10764" />

	<path
   style="fill:#0060a9"
   inkscape:connector-curvature="0"
   d="m 342.748,31.1 c -13.307,0 -16.277,6.252 -16.277,13.895 0,7.712 2.902,13.96 16.928,13.96 5.135,0 9.916,-0.951 11.014,-1.184 0.207,-1.354 0.658,-4.326 0.809,-5.342 -0.738,0.076 -6.813,1.191 -11.822,1.191 -6.504,0 -8.266,-2.473 -8.789,-5.926 h 22.521 V 44.993 C 357.131,35.354 351.998,31.1 342.748,31.1 Z m -8.139,11.197 c 0.459,-3.336 1.959,-5.861 8.139,-5.861 4.545,0 6.18,2.912 6.438,5.861 z"
   id="path10766" />

	<path
   style="fill:#0060a9"
   inkscape:connector-curvature="0"
   d="m 78.611,31.079 c -9.773,0 -16.285,4.309 -16.285,13.949 0,9.707 6.512,13.958 16.285,13.958 9.773,0 16.277,-4.252 16.277,-13.958 10e-4,-9.641 -6.503,-13.949 -16.277,-13.949 z m 0,22.577 c -6.535,0 -8.465,-3.236 -8.465,-8.628 0,-5.318 1.93,-8.559 8.465,-8.559 6.508,0 8.465,3.24 8.465,8.559 0,5.392 -1.957,8.628 -8.465,8.628 z"
   id="path10768" />

	<path
   style="fill:#0060a9"
   inkscape:connector-curvature="0"
   d="m 165.584,39.649 c 0,-5.402 -5.793,-8.633 -14.32,-8.633 -4.393,0 -9.801,1.707 -11.666,2.344 -0.18,1.141 -0.738,4.688 -0.848,5.432 1.701,-0.375 8.369,-2.385 12.514,-2.385 4.281,0 6.502,1.459 6.502,3.564 v 2.299 c 0,0 -5.26,-0.535 -7.154,-0.535 -8.527,0 -13.686,3.063 -13.686,8.625 0,7.016 7.77,8.566 11.721,8.566 5.355,0 8.143,-1.441 9.449,-2.631 l 0.449,2.098 h 7.842 c -0.1,-0.416 -0.803,-2.279 -0.803,-4.797 z m -7.818,8.554 c 0,4.961 -4.732,5.393 -9.119,5.393 -1.496,0 -3.885,-0.318 -3.885,-3.236 0,-1.938 2.646,-3.232 5.85,-3.232 h 7.154 z"
   id="path10770" />

	<path
   style="fill:#0060a9"
   inkscape:connector-curvature="0"
   d="m 40.52,22.09 c 9.164,-0.006 14.881,2.883 18.037,7.465 v 0 l -8.195,3.15 c -1.777,-2.484 -4.754,-4.146 -9.729,-4.174 v 0 h -0.215 c -4.896,0.023 -7.838,1.584 -9.629,3.973 v 0 c -1.568,2.109 -2.43,4.801 -2.43,7.855 v 0 0.516 h -0.004 c 0.033,2.926 0.893,5.718 2.434,7.773 v 0 c 1.789,2.387 4.732,3.938 9.623,3.965 v 0 l 0.217,-0.006 c 4.893,-0.021 7.855,-1.619 9.639,-4.037 v 0 l 8.289,3.164 c -3.172,4.496 -8.941,7.252 -17.996,7.252 v 0 c -0.016,0 -0.031,0 -0.047,0 v 0 C 32.459,58.99 27.041,56.855 23.729,53.197 v 0 C 20.721,49.922 19.186,45.531 19.188,40.688 v 0 -0.328 c -0.002,-4.734 1.539,-9.133 4.541,-12.404 v 0 c 3.312,-3.647 8.722,-5.868 16.791,-5.866 z"
   id="path10772" />

	<path
   style="fill:#0060a9"
   inkscape:connector-curvature="0"
   d="M 267.854,54.143 V 23.149 h -7.824 v 30.994 c 0,1.889 0.656,3.799 0.818,4.25 h 7.826 c -0.121,-0.444 -0.82,-2.272 -0.82,-4.25 z"
   id="path10774" />

	<path
   style="fill:#0060a9"
   inkscape:connector-curvature="0"
   d="m 241.717,42.743 c 0.031,-4.148 3.068,-6.336 8.463,-6.336 0.891,0 4.43,0.465 5.951,0.645 -0.09,-0.688 -0.631,-4.043 -0.855,-5.398 -1.109,-0.207 -3.607,-0.637 -5.096,-0.637 -4.58,0 -7.156,1.674 -8.596,2.959 l -0.664,-2.42 h -7.848 c 0.148,0.543 0.813,2.363 0.826,4.246 v 22.585 h 7.818 V 42.743 Z"
   id="path10776" />

	<path
   style="fill:#0060a9"
   inkscape:connector-curvature="0"
   d="m 117.045,31.047 c -4.891,0 -8.668,2.859 -8.668,2.859 0,0 -0.418,-1.59 -0.586,-2.316 h -7.867 c 0.281,0.961 0.826,2.842 0.826,4.85 v 30.494 h 7.82 V 56.328 c 1.564,1.141 4.502,2.629 8.475,2.629 13.096,0 14.988,-6.244 14.988,-13.957 0,-7.64 -1.892,-13.953 -14.988,-13.953 z m 0,22.58 c -6.656,0 -8.475,-3.775 -8.475,-8.626 0.127,-5.168 1.818,-8.561 8.475,-8.561 6,0 7.176,3.771 7.176,8.561 0,4.851 -1.176,8.626 -7.176,8.626 z"
   id="path10778" />

	<path
   style="fill:#0060a9"
   inkscape:connector-curvature="0"
   d="m 385.322,32.45 v 6.082 c -1.533,-0.82 -3.129,-1.445 -4.787,-1.863 -1.662,-0.42 -3.326,-0.629 -4.994,-0.629 -1.855,0 -3.258,0.225 -4.211,0.676 -0.941,0.451 -1.418,1.121 -1.418,2.01 0,1.266 2.029,2.299 6.086,3.088 l 0.316,0.074 2.383,0.477 c 3.037,0.605 5.258,1.57 6.668,2.91 1.412,1.339 2.115,3.154 2.115,5.421 0,2.746 -1.068,4.809 -3.225,6.176 -2.15,1.367 -5.389,2.059 -9.707,2.059 -1.914,0 -3.879,-0.141 -5.887,-0.422 -2.008,-0.277 -4.047,-0.682 -6.111,-1.242 v -6.09 c 1.836,0.875 3.709,1.535 5.619,1.996 1.902,0.469 3.742,0.699 5.525,0.699 1.951,0 3.428,-0.242 4.438,-0.721 1.006,-0.479 1.504,-1.162 1.504,-2.07 0,-0.881 -0.357,-1.563 -1.066,-2.045 -0.709,-0.475 -2.404,-0.98 -5.076,-1.52 l -2.301,-0.426 c -3.184,-0.594 -5.506,-1.544 -6.971,-2.824 -1.453,-1.281 -2.186,-3.01 -2.186,-5.16 0,-2.566 1.105,-4.564 3.33,-5.992 2.215,-1.426 5.334,-2.137 9.352,-2.137 1.803,0 3.596,0.123 5.389,0.363 1.793,0.248 3.526,0.618 5.215,1.11 z"
   id="path10780" />

	<path
   style="fill:#0060a9"
   inkscape:connector-curvature="0"
   d="M 283.492,54.143 V 31.54 h -7.818 v 22.603 c 0,2.002 0.744,3.975 0.85,4.25 h 7.793 c -0.139,-0.506 -0.825,-2.323 -0.825,-4.25 z m -3.935,-24.654 c 1.699,0 2.852,-0.23 3.484,-0.695 0.627,-0.465 0.936,-1.309 0.936,-2.523 0,-1.168 -0.303,-1.984 -0.904,-2.443 -0.613,-0.451 -1.758,-0.684 -3.451,-0.684 -1.723,0 -2.883,0.236 -3.5,0.709 -0.609,0.473 -0.92,1.32 -0.92,2.537 0,1.17 0.301,1.977 0.887,2.424 0.599,0.448 1.753,0.675 3.468,0.675 z"
   id="path10782" />

	<path
   style="fill:#0060a9"
   inkscape:connector-curvature="0"
   d="M 226.064,54.143 V 31.54 h -7.816 v 22.603 c 0,2.002 0.742,3.975 0.852,4.25 h 7.791 c -0.139,-0.506 -0.827,-2.323 -0.827,-4.25 z m -3.929,-24.654 c 1.693,0 2.85,-0.23 3.48,-0.695 0.625,-0.465 0.939,-1.309 0.939,-2.523 0,-1.168 -0.305,-1.984 -0.904,-2.443 -0.621,-0.451 -1.758,-0.684 -3.453,-0.684 -1.723,0 -2.883,0.236 -3.502,0.709 -0.607,0.473 -0.92,1.32 -0.92,2.537 0,1.17 0.297,1.977 0.885,2.424 0.604,0.448 1.758,0.675 3.475,0.675 z"
   id="path10784" />

</g>
  </g>
</svg>
