<?xml version="1.0" encoding="UTF-8"?> <svg xmlns="http://www.w3.org/2000/svg" id="Layer_2" viewBox="0 0 775.1 319.26"><defs><style>.cls-1{fill:#f15a24;fill-rule:evenodd;}</style></defs><g id="Camada_1"><g><path class="cls-1" d="M436.88,110.69c2.88-.63,4.86-3.2,4.86-6s-2.08-5.44-4.88-6.05c-1.19-.26-2.45-.18-3.7-.18h-86.95c-1.08,0-2.19-.07-3.25,.09-3.21,.5-5.29,2.88-5.39,6.02-.09,3.19,1.8,5.61,5.07,6.22,1.35,.26,2.77,.24,4.16,.24,9.92,.02,19.83,.02,29.75,.02h5.85v99c0,1.56-.09,3.12,.15,4.64,.54,3.53,3.71,6.13,7.17,6.09,3.32-.04,6.28-2.39,6.91-5.79,.34-1.82,.3-3.7,.3-5.55,.02-30.81,.02-61.63,.02-92.44v-5.74c2.23-.11,3.88-.24,5.55-.24,10.07-.02,20.15,0,30.21-.02,1.39,0,2.82,0,4.16-.3Zm101.36,97.6c-14.95-34.52-29.9-69.04-44.85-103.55-.37-.86-.71-1.71-1.13-2.55-1.23-2.4-3.18-3.79-5.9-3.83-2.93-.04-4.99,1.41-6.26,4.01-.41,.84-.76,1.69-1.13,2.54-14.95,34.52-29.9,69.03-44.85,103.55-.54,1.26-1.15,2.56-1.43,3.9-.72,3.58,.95,6.63,4.18,7.85,3.23,1.22,6.54,.07,8.39-3.03,.63-1.06,1.04-2.25,1.54-3.38,5.33-12.18,10.64-24.38,15.99-36.58,.67-1.52,1.45-3.01,2.17-4.53h42.53c.78,1.67,1.54,3.17,2.21,4.7,5.33,12.2,10.66,24.4,15.99,36.6,.48,1.13,.93,2.32,1.58,3.36,1.91,3.03,5.29,4.1,8.49,2.8,3.01-1.24,4.66-4.12,4.03-7.54-.26-1.48-.93-2.93-1.54-4.34Zm-67.32-48.67c5.13-12.03,10.08-23.7,15.49-36.42,5.39,12.66,10.36,24.35,15.51,36.42h-30.99Zm186.67,49.41c-14.99-34.65-30.03-69.3-45.05-103.95-.56-1.28-1.04-2.62-1.82-3.75-2.71-3.95-8.23-3.94-10.97,.02-.59,.87-1,1.91-1.43,2.9-15.15,34.93-30.29,69.86-45.42,104.81-.43,1-.87,2-1.11,3.04-.84,3.6,.65,6.68,3.82,8.04,3.32,1.43,6.83,.26,8.77-3.05,.63-1.06,1.04-2.25,1.54-3.38,5.48-12.48,10.92-24.96,16.4-37.44,.56-1.24,1.21-2.43,1.82-3.64h42.43c.91,2.01,1.69,3.68,2.4,5.4,5.27,12.05,10.55,24.1,15.82,36.16,.56,1.26,1.08,2.6,1.88,3.71,1.84,2.58,4.9,3.45,7.84,2.4,2.97-1.08,4.74-3.62,4.4-6.86-.15-1.5-.69-3.03-1.3-4.42Zm-66.76-49.49c.3-3.31,9.92-26.82,14.8-35.88,5.18,12.13,10.14,23.77,15.3,35.88h-30.1Zm184.14,8.13c-.06-6.13-2.06-8.04-8.14-8.06-9.62-.04-19.22,0-28.84,0-2.01,.02-4.05-.1-6.04,.11-3.45,.35-5.55,2.95-5.42,6.35,.15,3.51,2.47,5.78,6.44,5.85,6.2,.11,12.41,.03,18.61,.03h8.47v29.12c-6.87,3.79-14.67,6.2-24.55,6.59-19.39,.78-35.97-5.68-48.71-20.58-8.95-10.46-11.59-22.84-8.67-36.14,4.22-19.28,17.01-30.9,35.23-36.6,14.82-4.63,29.68-3.75,44.07,2.52,2.69,1.17,5.46,2.21,8.24,3.14,3.42,1.13,6.39-.13,7.82-3.07,1.34-2.78,.54-5.75-2.23-7.72-1.13-.82-2.38-1.47-3.62-2.1-15.1-7.69-31.01-10.53-47.78-7.72-19.13,3.21-35.08,12.03-46.76,27.73-11.83,15.89-14.24,33.39-7.19,51.87,6.81,17.9,20.33,29.53,37.68,36.36,22.62,8.91,44.96,6.73,66.56-4.1,3.62-1.82,4.98-4.83,4.96-8.73-.07-11.62-.02-23.23-.13-34.85Z"></path><path class="cls-1" d="M159.63,0C70.95-.01,0,70.94,0,159.63s70.95,159.63,159.63,159.63,159.63-72.21,159.63-159.63S247.05,0,159.63,0Zm8.79,9.13c22.66,1.33,43.98,7.73,62.85,18.13-16.56-6.96-39.42-6.8-57.7-5.72-16.47,1.27-44.34,13.94-54.48,22.8-6.33,5.07-15.21,8.87-19,19-15.21,10.14-19,21.54-21.54,27.87-2.53,6.33,2.54,36.74,2.54,41.81-1.27,5.07-7.6,13.93-11.4,21.54-5.07,8.87-16.47,29.14-19,34.2-1.27,6.34,2.53,16.47,3.8,19.01,5.06,3.8,8.86-2.53,8.86-3.8,1.26-1.27,2.53-3.8,5.07-5.06,2.53,0,1.26-5.07,1.26-8.87-1.26-2.53,1.27-5.06,3.81-5.06,1.26,0,3.8,5.06,6.33,7.6,2.54,2.53,7.6,2.53,10.14-10.13,0-5.07,25.34-35.48,27.87-38.01,2.53-2.53,3.8,0,5.07,1.26,2.54,1.27,1.27,3.8,0,5.07-1.27,1.27-5.07,5.07-5.07,7.6s-5.06,16.46-7.6,20.27c-2.53,2.54-5.07,6.34-6.33,8.87-1.26,2.53-7.6,7.6-10.14,10.14-2.53,1.27-3.8,3.8,0,3.8,6.34-2.52,10.14-8.86,19.01-15.2,8.87-7.6,25.33,26.6,27.87,32.94,0,3.8-1.27,43.07,0,55.75,81.08,0,117.82-57.02,122.89-100.09-1.27-15.2-50.68-55.75-78.55-68.41,1.26-5.07,8.87-11.41,7.6-21.54-6.34,3.8-20.27,6.33-25.34,3.8,8.87-13.94,19-16.47,35.47-16.47,16.47,0,70.94,16.46,70.94,82.35,0,41.81-26.6,126.69-125.42,126.69-59.54,0-120.35-41.81-120.35-117.82,0-34.09,12.6-129.81,140.54-154.3Zm-41.72,122.62c-1.27,2.53-5.07,3.8-6.34,1.27-2.53-1.27-5.06-3.8-5.06-5.07s0-5.07,2.53-5.07c2.53-1.26,5.07,1.27,7.6,3.8,1.27,1.27,3.8,3.8,1.27,5.07Zm-20.28,1.27c0,1.26-1.27,6.33-3.8,7.6-2.53,0-5.07-2.54-5.07-6.34s0-10.13,1.26-13.94c1.27-2.53,3.8-5.07,7.6-5.07,5.07,0,1.27,7.6,0,8.87-1.27,2.53,0,6.33,0,8.87Zm53.21,176.1c-83.62,0-150.76-67.15-150.76-149.49S69.39,15.71,147.08,9.38c-14.42,2.9-31.2,7.96-43.38,13.59C57.23,48.32,19,81.08,17.74,169.76c0,38,36.74,124.15,141.9,124.15,73.48,0,176.1-68.42,124.16-193.83-10.14-25.34-72.22-82.35-139.36-34.21-3.81,2.53-7.61-1.27-2.54-3.8,62.02-44.3,136.63-16.95,161.19,54.96,3.92,13.5,6.04,27.79,6.04,42.6,0,82.35-67.14,149.49-149.49,149.49Z"></path></g></g></svg> 