<?xml version="1.0" encoding="utf-8"?>
<!-- Generator: Adobe Illustrator 27.6.1, SVG Export Plug-In . SVG Version: 6.00 Build 0)  -->
<svg version="1.1" id="Layer_1" xmlns="http://www.w3.org/2000/svg" xmlns:xlink="http://www.w3.org/1999/xlink" x="0px" y="0px"
	 viewBox="0 0 992.4 123.5" style="enable-background:new 0 0 992.4 123.5;" xml:space="preserve">
<style type="text/css">
	.st0{fill:#1F2B80;}
	.st1{fill:#FFFFFF;}
</style>
<g>
	<polygon class="st0" points="613.3,23.7 568.1,23.7 568.1,41.9 601.1,41.9 601.1,98.9 625.1,98.9 625.1,41.9 661.8,41.9 
		661.8,23.7 615.2,23.7 	"/>
	<path class="st0" d="M539.3,51.6h-54.5c-3.2,0-5-1.6-5-4.9c0-2.8,2.1-4.8,5.8-4.8h75.2V23.7h-75.6c-8,0-25.1,0-27.7,18.2
		c-0.2,1.6-0.4,3.3-0.4,5.2c0,1.6,0.1,3.1,0.3,4.5c1.5,12.7,9.7,18.8,23.6,18.8h55.6c3.3,0,5.1,1.6,5.1,4.9c0,2.9-2.1,4.9-6,4.9H460
		v18.8h78.6c14.3,0,25-3.7,25-24.9C563.6,58.4,556.2,51.6,539.3,51.6z"/>
	<polygon class="st0" points="714.4,23.7 670.3,23.7 670.3,28.1 670.3,41.9 670.3,52.2 670.3,70.4 670.3,80.8 670.3,98.9 
		693.4,98.9 714.4,98.9 716.3,98.9 761.7,98.9 761.7,80.8 716.3,80.8 714.4,80.8 693.4,80.8 693.4,70.4 714.4,70.4 716.3,70.4 
		761.7,70.4 761.7,52.2 716.3,52.2 714.4,52.2 693.4,52.2 693.4,41.9 714.4,41.9 716.3,41.9 761.7,41.9 761.7,23.7 716.3,23.7 	"/>
	<polygon class="st0" points="277.4,23.7 233.3,23.7 233.3,28.1 233.3,41.9 233.3,52.2 233.3,70.4 233.3,80.8 233.3,98.9 
		256.4,98.9 277.4,98.9 279.2,98.9 324.6,98.9 324.6,80.8 279.2,80.8 277.4,80.8 256.4,80.8 256.4,70.4 277.4,70.4 279.2,70.4 
		324.6,70.4 324.6,52.2 279.2,52.2 277.4,52.2 256.4,52.2 256.4,41.9 277.4,41.9 279.2,41.9 324.6,41.9 324.6,23.7 279.2,23.7 	"/>
	<path class="st0" d="M879.6,50.6c0-12.8-3.5-26.7-25.1-26.9c-0.2,0-0.4,0-0.6,0h-82v19.4v36v19.8h22.7V79.1v-8.7h52.7
		c4.2,0,7.6,3.4,7.6,7.6v21h22.3V78c0-7.3-9.2-9.7-9.4-9.8v0l0,0c0,0,0,0,0,0C874.8,65.3,879.6,59.3,879.6,50.6z M852,52.2h-57.4
		v-9.1v-1.2h56.9c4.9,0,5.7,3.1,5.7,6C857.2,50.7,854.9,52.2,852,52.2z"/>
	<polygon class="st0" points="971.7,23.7 971.7,73.4 922,23.7 907.4,23.7 886.8,23.7 886.8,98.9 907.4,98.9 907.4,40.8 967.9,98.9 
		977.2,98.9 992.4,98.9 992.4,23.7 	"/>
	<path class="st0" d="M411.2,23.7h-33l-49.3,75.2H352l7.3-10.8h63.3l6.3,10.8h27.4L411.2,23.7z M371.3,70.4L389.2,44l4.6-6.8
		l18.3,33.2H371.3z"/>
	<g>
		<path class="st0" d="M156.5,61.7c0,34.1-35,61.7-78.3,61.7c-27.2,0-50.3-10.3-64.2-26C9.2,92,5.5,85.9,3.1,79.3
			C1.1,73.7,0,67.8,0,61.7C0,27.6,35,0,78.3,0C123.4,0,156.5,27.6,156.5,61.7z"/>
		<path class="st1" d="M141.5,97.4H14C9.2,92,5.5,85.9,3.1,79.3h64.4L26.9,15.6H52l40.6,63.7h37.3L141.5,97.4z"/>
	</g>
</g>
</svg>
