<?xml version="1.0" encoding="UTF-8" standalone="no"?>
<!-- Generator: Adobe Illustrator 25.0.1, SVG Export Plug-In . SVG Version: 6.00 Build 0)  -->

<svg
   xmlns:dc="http://purl.org/dc/elements/1.1/"
   xmlns:cc="http://creativecommons.org/ns#"
   xmlns:rdf="http://www.w3.org/1999/02/22-rdf-syntax-ns#"
   xmlns:svg="http://www.w3.org/2000/svg"
   xmlns="http://www.w3.org/2000/svg"
   xmlns:sodipodi="http://sodipodi.sourceforge.net/DTD/sodipodi-0.dtd"
   xmlns:inkscape="http://www.inkscape.org/namespaces/inkscape"
   version="1.1"
   id="Layer_1"
   x="0px"
   y="0px"
   viewBox="0 0 178.4 50"
   xml:space="preserve"
   inkscape:version="0.48.1 "
   width="100%"
   height="100%"
   sodipodi:docname="flyb.svg"><metadata
   id="metadata3125"><rdf:RDF><cc:Work
       rdf:about=""><dc:format>image/svg+xml</dc:format><dc:type
         rdf:resource="http://purl.org/dc/dcmitype/StillImage" /></cc:Work></rdf:RDF></metadata><defs
   id="defs3123">
	
	
</defs><sodipodi:namedview
   pagecolor="#ffffff"
   bordercolor="#666666"
   borderopacity="1"
   objecttolerance="10"
   gridtolerance="10"
   guidetolerance="10"
   inkscape:pageopacity="0"
   inkscape:pageshadow="2"
   inkscape:window-width="1280"
   inkscape:window-height="657"
   id="namedview3121"
   showgrid="false"
   inkscape:zoom="4.9481985"
   inkscape:cx="98.6775"
   inkscape:cy="30.290833"
   inkscape:window-x="0"
   inkscape:window-y="0"
   inkscape:window-maximized="1"
   inkscape:current-layer="Layer_1" />
<style
   type="text/css"
   id="style3057">
	.st0{fill:#FDBE12;}
</style>
<g
   id="g3061"
   transform="matrix(1.0832224,0,0,1.0832224,-7.3099064,-12.923319)">
		<g
   id="g3063">
			<path
   style="fill:#fdbe12"
   inkscape:connector-curvature="0"
   id="path3065"
   d="m 96.6,23.7 c -6.9,0 -12.4,5.6 -12.4,12.4 0,6.8 5.6,12.4 12.4,12.4 6.9,0 12.4,-5.6 12.4,-12.4 0,-6.8 -5.5,-12.4 -12.4,-12.4 z m 0,19.9 c -4.1,0 -7.4,-3.3 -7.4,-7.4 0,-4.1 3.3,-7.4 7.4,-7.4 4.1,0 7.4,3.3 7.4,7.4 0,4.1 -3.3,7.4 -7.4,7.4 z"
   class="st0" />
			<path
   style="fill:#fdbe12"
   inkscape:connector-curvature="0"
   id="path3067"
   d="m 156.1,12.9 v 13.3 c -2.1,-1.5 -4.6,-2.5 -7.4,-2.5 -6.9,0 -12.4,5.6 -12.4,12.4 0,6.8 5.6,12.4 12.4,12.4 6.9,0 12.4,-5.6 12.4,-12.4 V 12.9 h -5 z m -7.4,30.7 c -4.1,0 -7.4,-3.3 -7.4,-7.4 0,-4.1 3.3,-7.4 7.4,-7.4 4.1,0 7.4,3.3 7.4,7.4 0,4.1 -3.4,7.4 -7.4,7.4 z"
   class="st0" />
			<rect
   style="fill:#fdbe12"
   id="rect3069"
   height="23.200001"
   width="5"
   class="st0"
   y="24.299999"
   x="165.10001" />
			<rect
   style="fill:#fdbe12"
   id="rect3071"
   height="34.599998"
   width="5"
   class="st0"
   y="12.9"
   x="24.299999" />
			<circle
   style="fill:#fdbe12"
   sodipodi:ry="2.7"
   sodipodi:rx="2.7"
   sodipodi:cy="18.9"
   sodipodi:cx="167.7"
   d="m 170.4,18.9 c 0,1.491168 -1.20883,2.7 -2.7,2.7 -1.49117,0 -2.7,-1.208832 -2.7,-2.7 0,-1.491169 1.20883,-2.7 2.7,-2.7 1.49117,0 2.7,1.208831 2.7,2.7 z"
   id="circle3073"
   r="2.7"
   cy="18.9"
   cx="167.7"
   class="st0" />
			<path
   style="fill:#fdbe12"
   inkscape:connector-curvature="0"
   id="path3075"
   d="M 122.8,23.7 C 116.3,23.7 111,29 111,35.6 v 11.9 h 5 v -2.2 -9.7 c 0,-3.9 2.9,-6.9 6.7,-6.9 3.9,0 6.7,3 6.7,6.9 v 9.7 2.2 h 5 V 35.6 c 0.2,-6.5 -5.1,-11.9 -11.6,-11.9 z"
   class="st0" />
			<path
   style="fill:#fdbe12"
   inkscape:connector-curvature="0"
   id="path3077"
   d="m 17.2,18 h 3.7 v -5 h -1.2 -1 -1.4 C 12,13 7.7,17.3 7.7,22.6 v 25.1 h 5 V 32.8 h 5.1 v -5 h -5.1 v -5.3 c 0,-2.5 2,-4.5 4.5,-4.5 z"
   class="st0" />
			<polygon
   style="fill:#fdbe12"
   id="polygon3079"
   points="54.6,24.6 49.1,24.6 43.4,38.6 37.7,24.3 32.2,24.3 40.6,45.4 35.7,57.3 41.2,57.3 "
   class="st0" />
			<path
   style="fill:#fdbe12"
   inkscape:connector-curvature="0"
   id="path3081"
   d="m 69.3,23.7 c -2.8,0 -5.3,0.9 -7.4,2.5 V 12.9 h -5 v 23.2 c 0,1.9 0.5,3.8 1.2,5.4 1.1,0.2 2.5,0.4 3.1,0.5 0.1,0 0.2,0 0.2,0 0.8,-0.6 2.9,-2 3.7,-2.7 0,0 0,0 0,-0.1 -0.2,-0.1 -1.6,-1 -4.1,-2.4 -0.5,-0.3 -0.6,-0.3 -0.1,-0.7 0.3,-0.2 0.6,-0.5 0.8,-0.7 0.3,-0.3 0.6,-0.4 1,-0.4 1.3,0 4.8,1.2 6.2,1.2 0.2,0 0.4,-0.1 0.5,-0.2 1,-0.6 3.2,-1.9 4.3,-2.4 0.9,-0.5 3.3,-1.7 4.2,-0.4 0.3,0.4 0.9,1.3 -1.7,3.2 -1,0.8 -11.8,7 -15.3,9 2.2,2 5.1,3.2 8.4,3.2 6.9,0 12.4,-5.6 12.4,-12.4 0,-6.8 -5.6,-12.5 -12.4,-12.5 z"
   class="st0" />
		</g>
	</g>
</svg>