<?xml version="1.0" encoding="UTF-8" standalone="no"?>
<!-- Created with Inkscape (http://www.inkscape.org/) -->

<svg
   xmlns:dc="http://purl.org/dc/elements/1.1/"
   xmlns:cc="http://creativecommons.org/ns#"
   xmlns:rdf="http://www.w3.org/1999/02/22-rdf-syntax-ns#"
   xmlns:svg="http://www.w3.org/2000/svg"
   xmlns="http://www.w3.org/2000/svg"
   xmlns:sodipodi="http://sodipodi.sourceforge.net/DTD/sodipodi-0.dtd"
   xmlns:inkscape="http://www.inkscape.org/namespaces/inkscape"
   width="250.00002"
   height="30.70434"
   viewBox="0 0 66.145835 8.1238564"
   version="1.1"
   id="svg3006"
   inkscape:version="0.92.0 r15299"
   sodipodi:docname="lufthansa cargo.svg">
  <defs
     id="defs3000">
    <clipPath
       id="clip8">
      <path
         inkscape:connector-curvature="0"
         id="path4647"
         d="m 409,765.60937 h 13 V 779 h -13 z m 0,0" />
    </clipPath>
    <clipPath
       id="clip9">
      <path
         inkscape:connector-curvature="0"
         id="path4650"
         d="m 512,769 h 7.19141 v 8 H 512 Z m 0,0" />
    </clipPath>
  </defs>
  <sodipodi:namedview
     id="base"
     pagecolor="#ffffff"
     bordercolor="#666666"
     borderopacity="1.0"
     inkscape:pageopacity="0.0"
     inkscape:pageshadow="2"
     inkscape:zoom="3.6169356"
     inkscape:cx="124"
     inkscape:cy="14.35217"
     inkscape:document-units="mm"
     inkscape:current-layer="layer1"
     showgrid="false"
     fit-margin-top="0"
     fit-margin-left="0"
     fit-margin-right="0"
     fit-margin-bottom="0"
     units="px"
     inkscape:window-width="1280"
     inkscape:window-height="744"
     inkscape:window-x="-4"
     inkscape:window-y="-4"
     inkscape:window-maximized="1" />
  <metadata
     id="metadata3003">
    <rdf:RDF>
      <cc:Work
         rdf:about="">
        <dc:format>image/svg+xml</dc:format>
        <dc:type
           rdf:resource="http://purl.org/dc/dcmitype/StillImage" />
        <dc:title></dc:title>
      </cc:Work>
    </rdf:RDF>
  </metadata>
  <g
     inkscape:label="Layer 1"
     inkscape:groupmode="layer"
     id="layer1"
     transform="translate(-90.411905,-322.15564)">
    <g
       id="g3071"
       style="fill:#05164d;fill-opacity:1"
       transform="translate(0.26458619,-0.26457671)">
      <path
         inkscape:connector-curvature="0"
         id="path11492"
         d="m 93.356733,326.31583 -0.04418,0.0907 c -0.174457,-0.0372 -0.493128,-0.15817 -0.823434,-0.30936 l -0.04651,0.0837 0.137234,0.0744 c 0.483827,0.2489 0.642004,0.30239 0.921135,0.30239 0.558261,0 0.981611,-0.31635 1.176999,-0.87461 0.346587,-0.0698 0.793196,-0.10002 1.321219,-0.10002 0.453589,0 0.8467,0.0233 1.351458,0.0837 l -0.127933,0.15817 c -0.234934,-0.0302 -0.665263,-0.0605 -0.974632,-0.0605 -0.369846,0 -0.604781,0.009 -0.723412,0.0163 l -0.0628,0.13492 c 0.311697,-0.0139 0.42335,-0.0139 0.665263,-0.0139 0.409392,0 0.732713,0.0139 0.997892,0.0372 l -0.130261,0.16515 c -0.474526,-0.0139 -0.693179,-0.0209 -1.049067,-0.0209 -0.195395,0 -0.339608,0.007 -0.57222,0.0139 l -0.06048,0.13492 c 0.202368,-0.0139 0.481499,-0.021 0.776916,-0.021 0.27913,0 0.611759,0.007 0.807148,0.0139 l -0.127933,0.16748 c -0.134912,-0.009 -0.400085,-0.009 -0.604781,-0.009 -0.323327,0 -0.732719,0.0163 -0.942071,0.0465 l -0.06048,0.12096 c 0.383804,-0.0372 0.625717,-0.0535 1.049067,-0.0535 0.16515,0 0.272152,0 0.460568,0.0163 l -0.144219,0.17213 c -0.255872,-0.0139 -0.339608,-0.0139 -0.437302,-0.0139 -0.716439,0 -1.186308,0.10467 -1.653854,0.36984 0.430329,0.43033 1.146762,0.72341 1.788765,0.72341 0.05347,0 0.08374,0 0.220977,-0.007 l -0.311698,0.30937 c -1.705023,-0.44429 -2.007413,-0.56525 -3.570545,-1.49336 -0.618739,-0.35589 -1.123502,-0.5978 -1.532894,-0.71876 l 0.05353,-0.18841 c 0.0977,0.0163 0.30937,0.0768 0.504758,0.14421 l 0.09304,-0.20469 z m -2.574982,0.1512 c 0,1.8725 1.525915,3.39841 3.398416,3.39841 1.886459,0 3.412374,-1.51893 3.412374,-3.39143 0,-1.9167 -1.509628,-3.41936 -3.435633,-3.41936 -1.849242,0 -3.375157,1.53988 -3.375157,3.41238 z m 7.180642,0 c 0,2.09115 -1.684092,3.76826 -3.782226,3.76826 -2.077197,0 -3.768262,-1.68409 -3.768262,-3.76128 0,-2.1214 1.691065,-3.78921 3.835724,-3.78921 2.037651,0 3.714764,1.71433 3.714764,3.78223"
         style="clip-rule:nonzero;fill:#05164d;fill-opacity:1;fill-rule:nonzero;stroke:none;stroke-width:0.59547895" />
      <path
         style="fill:#05164d;fill-opacity:1;fill-rule:nonzero;stroke:none;stroke-width:0.33072916"
         d="m 133.37944,327.24394 c -0.1512,0.0465 -0.2047,0.0605 -0.32566,0.10002 -0.12793,0.021 -0.27215,0.0512 -0.43265,0.0977 -0.38148,0.0977 -0.57222,0.24889 -0.57222,0.48383 0,0.23261 0.18144,0.36752 0.48383,0.36752 0.57455,0 0.8467,-0.25587 0.8467,-0.79087 z m -2.26562,-0.73039 c 0.007,-0.81646 0.64899,-1.30726 1.72829,-1.30726 1.12583,0 1.67711,0.46754 1.67711,1.41891 v 1.84924 c 0,0.30937 0,0.30937 0.0977,0.50709 h -1.10256 l -0.0605,-0.30239 c -0.4373,0.35589 -0.69317,0.45359 -1.177,0.45359 -0.80948,0 -1.38867,-0.47685 -1.38867,-1.13281 0,-0.54431 0.35356,-0.92811 1.04906,-1.12583 0.10468,-0.0302 0.45359,-0.10467 1.04906,-0.20934 0.2489,-0.0535 0.35357,-0.13724 0.35357,-0.3117 0,-0.20237 -0.21167,-0.33961 -0.52104,-0.33961 -0.38381,0 -0.61874,0.19074 -0.61874,0.50011 z m -1.65384,-0.0233 c -0.0303,-0.33961 -0.17446,-0.46755 -0.535,-0.46755 -0.29542,0 -0.47686,0.11165 -0.47686,0.30007 0,0.17446 0.17446,0.28146 0.56757,0.34194 l 0.40707,0.0744 c 0.86065,0.14422 1.26074,0.50476 1.26074,1.1328 0,0.76994 -0.65596,1.26075 -1.68409,1.26075 -1.21654,0 -1.87948,-0.48383 -1.87948,-1.35844 h 1.15607 v 0.0442 c 0,0.30239 0.24889,0.4908 0.64898,0.4908 0.34658,0 0.55825,-0.12794 0.55825,-0.33263 0,-0.21168 -0.19771,-0.33263 -0.65828,-0.41405 l -0.37683,-0.0605 c -0.86065,-0.1512 -1.2305,-0.46057 -1.2305,-1.03511 0,-0.7839 0.65829,-1.26074 1.7376,-1.26074 0.75365,0 1.22119,0.20469 1.4631,0.64199 0.10701,0.18144 0.12096,0.24192 0.1512,0.64201 z m -4.99877,-1.1328 0.0395,0.40706 c 0.27913,-0.35357 0.61177,-0.51174 1.04907,-0.51174 0.50476,0 0.91415,0.21865 1.12583,0.59548 0.14887,0.27913 0.17911,0.4373 0.17911,1.03511 v 2.09813 h -1.18398 v -2.05394 c 0,-0.535 -0.1512,-0.75365 -0.52105,-0.75365 -0.38613,0 -0.58152,0.25587 -0.58152,0.75365 v 2.05394 h -1.1863 v -3.62404 z m -2.63314,1.88645 c -0.15119,0.0465 -0.19771,0.0605 -0.31867,0.10002 -0.14189,0.0372 -0.26982,0.0675 -0.43032,0.0977 -0.38381,0.0977 -0.57222,0.24889 -0.57222,0.48383 0,0.2326 0.18143,0.36752 0.47452,0.36752 0.57454,0 0.84669,-0.25587 0.84669,-0.79087 z m -2.25863,-0.73039 c 0,-0.82344 0.642,-1.30726 1.71433,-1.30726 1.12583,0 1.68409,0.46754 1.68409,1.41891 v 1.84924 c 0,0.31868 0,0.31868 0.0977,0.50709 h -1.09559 l -0.0675,-0.30239 c -0.37683,0.33263 -0.70015,0.45359 -1.177,0.45359 -0.80017,0 -1.3817,-0.47685 -1.3817,-1.13281 0,-0.54431 0.35357,-0.92811 1.04907,-1.12583 0.10467,-0.0303 0.45358,-0.0977 1.04906,-0.20934 0.25587,-0.0535 0.3559,-0.13724 0.3559,-0.3117 0,-0.20237 -0.21168,-0.33961 -0.52803,-0.33961 -0.38613,0 -0.61176,0.18144 -0.62106,0.50011 z m -2.79363,-2.568 v 1.819 c 0.22098,-0.35357 0.53035,-0.51174 0.99091,-0.51174 0.49779,0 0.89787,0.20935 1.11653,0.59548 0.15817,0.27913 0.18143,0.43032 0.18143,1.03511 v 2.09813 h -1.17932 v -2.05394 c 0,-0.52104 -0.15818,-0.75365 -0.52105,-0.75365 -0.39078,0 -0.5885,0.25587 -0.5885,0.75365 v 2.05394 h -1.18398 v -5.03598 z m -2.17257,0.27913 v 1.13281 h 0.66992 v 0.80017 h -0.66992 v 1.43519 c 0.007,0.52803 0.0372,0.55827 0.49081,0.55827 h 0.2326 v 0.83041 h -0.89089 c -0.70248,0 -1.01883,-0.32565 -1.01883,-1.06535 v -1.75852 h -0.49778 v -0.80017 h 0.49778 v -1.13281 z m -1.82132,0.52104 h -0.1954 c -0.4373,0 -0.55128,0.107 -0.55128,0.50709 v 0.10468 h 0.70248 v 0.80017 h -0.70248 v 2.82387 h -1.18398 v -2.82387 h -0.51407 v -0.80017 h 0.51407 v -0.10468 c 0,-0.95137 0.35357,-1.30726 1.284,-1.30726 h 0.64666 z m -3.76594,4.23581 -0.0372,-0.35357 c -0.29542,0.30937 -0.62805,0.45127 -1.04209,0.45127 -0.51407,0 -0.92811,-0.21168 -1.13979,-0.57455 -0.1605,-0.27215 -0.18143,-0.40706 -0.18143,-1.00254 v -2.14465 h 1.18398 v 2.09812 c 0,0.52803 0.15119,0.74901 0.52104,0.74901 0.39311,0 0.5885,-0.2582 0.5885,-0.74901 v -2.09812 h 1.18631 v 3.62404 z m -4.76384,-5.03598 v 4.03809 h 2.12838 v 0.99789 h -3.38912 v -5.03598"
         id="path11494"
         inkscape:connector-curvature="0" />
      <path
         style="fill:#05164d;fill-opacity:1;fill-rule:nonzero;stroke:none;stroke-width:0.33072916"
         d="m 141.34397,327.23697 c -0.0163,0.43963 -0.12793,0.76993 -0.39311,1.10256 -0.40707,0.52802 -1.04907,0.7932 -1.88646,0.7932 -0.75365,0 -1.33052,-0.2047 -1.78178,-0.63503 -0.52802,-0.49778 -0.80716,-1.19328 -0.80716,-2.00043 0,-0.82344 0.29309,-1.59337 0.80716,-2.07488 0.43032,-0.40939 1.04906,-0.62804 1.81202,-0.62804 0.82344,0 1.4352,0.27216 1.85622,0.83042 0.24424,0.32565 0.35589,0.64897 0.39311,1.0886 h -1.27702 c -0.0884,-0.58152 -0.48151,-0.93741 -1.03279,-0.93741 -0.75598,0 -1.22352,0.62804 -1.22352,1.63757 0,1.05837 0.46754,1.67711 1.26772,1.67711 0.56757,0 0.90717,-0.29541 0.98859,-0.85367"
         id="path11496"
         inkscape:connector-curvature="0" />
      <path
         style="fill:#05164d;fill-opacity:1;fill-rule:nonzero;stroke:none;stroke-width:0.33072916"
         d="m 144.01664,327.24394 c -0.14421,0.0465 -0.19538,0.0605 -0.32564,0.10002 -0.0442,0.007 -0.0442,0.007 -0.42103,0.10468 -0.38613,0.0907 -0.57454,0.24889 -0.57454,0.48382 0,0.22564 0.18143,0.36985 0.48382,0.36985 0.31635,0 0.62572,-0.13724 0.74668,-0.33263 0.0628,-0.0977 0.0907,-0.23493 0.0907,-0.46754 z m -2.25863,-0.73039 c 0,-0.81646 0.65131,-1.30726 1.72131,-1.30726 0.74202,0 1.27005,0.23493 1.51894,0.66526 0.12095,0.21865 0.15817,0.40009 0.15817,0.75365 v 2.00974 c 0,0.14189 0.007,0.17213 0.0977,0.34659 h -1.09327 l -0.0698,-0.30239 c -0.41404,0.34659 -0.68619,0.45359 -1.177,0.45359 -0.80715,0 -1.38169,-0.47685 -1.38169,-1.13281 0,-0.55128 0.35588,-0.92811 1.04906,-1.12583 0.0907,-0.0302 0.4373,-0.0977 1.05139,-0.20934 0.24889,-0.0535 0.35589,-0.14422 0.35589,-0.31868 0,-0.2047 -0.214,-0.33263 -0.53732,-0.33263 -0.38614,0 -0.60479,0.18144 -0.61176,0.50011"
         id="path11498"
         inkscape:connector-curvature="0" />
      <path
         style="fill:#05164d;fill-opacity:1;fill-rule:nonzero;stroke:none;stroke-width:0.33072916"
         d="m 146.6428,325.35749 0.0395,0.38612 c 0.2396,-0.31867 0.57222,-0.4908 0.96533,-0.4908 0.0442,0 0.14422,0.007 0.2489,0.021 v 0.98859 c -0.0907,-0.0139 -0.12794,-0.021 -0.1954,-0.021 -0.33262,0 -0.60478,0.13491 -0.77923,0.3838 -0.12794,0.19772 -0.16516,0.36287 -0.16516,0.77924 v 1.57709 h -1.18398 v -3.62404"
         id="path11500"
         inkscape:connector-curvature="0" />
      <path
         style="fill:#05164d;fill-opacity:1;fill-rule:nonzero;stroke:none;stroke-width:0.33072916"
         d="m 149.03635,327.02529 c 0,0.54431 0.31867,0.91415 0.77924,0.91415 0.46755,0 0.72341,-0.32333 0.72341,-0.90485 0,-0.58152 -0.27216,-0.91415 -0.73737,-0.91415 -0.46289,0 -0.76528,0.36287 -0.76528,0.90485 z m 2.67267,-1.6678 v 3.32863 c 0,0.59781 -0.0442,0.74668 -0.29308,1.02813 -0.36985,0.39078 -0.86996,0.56524 -1.64687,0.56524 -0.57455,0 -0.98161,-0.13491 -1.30494,-0.43033 -0.22796,-0.21167 -0.33263,-0.42334 -0.35357,-0.73969 h 1.19794 c 0.0837,0.25586 0.24191,0.35589 0.57454,0.35589 0.46057,0 0.6955,-0.24192 0.6955,-0.70946 v -0.2582 c -0.3117,0.23494 -0.57454,0.32333 -0.96067,0.32333 -1.02581,0 -1.72828,-0.70713 -1.72828,-1.7562 0,-1.05139 0.70945,-1.80504 1.70037,-1.80504 0.4373,0 0.73969,0.12096 1.00952,0.41404 l 0.0395,-0.31634"
         id="path11502"
         inkscape:connector-curvature="0" />
      <path
         inkscape:connector-curvature="0"
         id="path11506"
         d="m 153.18841,327.16253 c 0,0.69317 0.27913,1.06302 0.81646,1.06302 0.535,0 0.82344,-0.36985 0.82344,-1.05605 0,-0.70945 -0.27914,-1.07232 -0.83042,-1.07232 -0.53035,0 -0.80948,0.37683 -0.80948,1.06535 z m 2.84016,0.007 c 0,1.23748 -0.7397,1.96322 -2.01672,1.96322 -1.26074,0 -2.00742,-0.72574 -2.00742,-1.95624 0,-1.26074 0.7397,-1.9702 2.03766,-1.9702 1.24678,0 1.98648,0.7397 1.98648,1.96322"
         style="clip-rule:nonzero;fill:#05164d;fill-opacity:1;fill-rule:nonzero;stroke:none;stroke-width:0.59547895" />
    </g>
  </g>
</svg>
