<?xml version="1.0" encoding="utf-8"?>
<!-- Generator: Adobe Illustrator 23.0.3, SVG Export Plug-In . SVG Version: 6.00 Build 0)  -->
<svg version="1.1" id="Camada_1" xmlns="http://www.w3.org/2000/svg" xmlns:xlink="http://www.w3.org/1999/xlink" x="0px" y="0px"
	 viewBox="0 0 1130.2 647.8" style="enable-background:new 0 0 1130.2 647.8;" xml:space="preserve">
<style type="text/css">
	.st0{opacity:0.25;fill:#37322D;enable-background:new    ;}
	.st1{fill:#FF7020;}
</style>
<title>Logo Preferencial Fundo Claro</title>
<g id="Logo">
	<path class="st0" d="M664,113.6c-14.1,0-28.1,1.3-41.9,3.9c105.2,19.7,184.9,104,184.9,214.9c0,79-64,151-143,151
		c-79,0-143-64-143.1-142.9c0-62.9,41-118.4,101.2-136.8c-13.6-4.1-27.7-6.2-41.9-6.2c-79,0-143,72-143,151
		c0,110.9,79.7,195.3,184.9,214.9c13.8,2.6,27.9,3.9,42,3.9c97.1,0,180-61,212.3-146.9V260.5C843.9,174.7,761.1,113.6,664,113.6z"/>
	<path class="st1" d="M622.1,117.5c-13.8-2.6-27.8-3.9-41.9-3.9c-108.8,0-199.7,76.6-221.7,178.8c-0.8,3.5-3.8,5.9-7.4,5.9H240.7
		c-4.2,0-7.6,3.4-7.6,7.5c0,0,0,0,0,0v68.6c0,4.2,3.4,7.6,7.6,7.6h96.9c4.2,0,7.6,3.4,7.6,7.6v34c0,3.6-1.3,7.1-3.7,9.9
		c-51.5,59.8-141.7,66.6-201.6,15.1s-66.6-141.7-15.1-201.6c42.2-49,111.9-63.6,170.2-35.6c3.5,1.8,7.8,0.5,9.9-2.9l35.2-59.2
		c2.1-3.6,1-8.2-2.6-10.4c-0.1-0.1-0.2-0.1-0.4-0.2c-32.1-16.6-67.8-25.3-104-25.2C107.9,113.6,6.4,215.2,6.4,340.4
		s101.5,226.8,226.8,226.8c64,0.1,124.9-26.9,167.9-74.3c2.8-3.1,7.6-3.3,10.7-0.5c0.2,0.2,0.4,0.3,0.5,0.5
		c53,58.3,132.4,84.9,209.8,70.5c-105.2-19.6-184.9-104-184.9-214.9c0-79,64-151,143-151c79,0,143,64,143,143
		c0,62.9-41,118.3-101.1,136.8c13.6,4.2,27.7,6.3,41.9,6.2c79,0,143-72,143-151C806.9,221.5,727.3,137.2,622.1,117.5z M1116.2,477
		H967.5c-4.2,0-7.6-3.4-7.6-7.6V127.7c0-4.2-3.4-7.6-7.5-7.6c0,0,0,0,0,0h-68.6c-4.2,0-7.6,3.4-7.6,7.6v417.9
		c0,8.4,6.8,15.1,15.1,15.1h224.9c4.2,0,7.6-3.4,7.6-7.6v-68.6C1123.8,480.4,1120.4,477,1116.2,477z"/>
</g>
</svg>
