<?xml version="1.0" encoding="utf-8"?>
<!-- Generator: Adobe Illustrator 26.3.1, SVG Export Plug-In . SVG Version: 6.00 Build 0)  -->
<svg version="1.1" id="Layer_1" xmlns="http://www.w3.org/2000/svg" xmlns:xlink="http://www.w3.org/1999/xlink" x="0px" y="0px"
	 viewBox="0 0 2606.3 621.7" style="enable-background:new 0 0 2606.3 621.7;" xml:space="preserve">
<style type="text/css">
	.st0{fill:#02A9E0;}
	.st1{fill:#70BF4A;}
</style>
<g>
	<path class="st0" d="M409.3,251.5H93.4c0-79.4,70.7-143.7,157.9-143.7c41.6,0,79.4,14.6,107.7,38.6c7,5.9,17.5,6.4,25,1l0.3-0.2
		c9.1-6.5,9.7-18.9,1.2-26.1c-35.1-29.9-82.3-48.2-134.2-48.2c-108.5,0-196.4,80-196.4,178.7H18.4C8.2,251.5,0,259,0,268.3v0
		c0,9.3,8.2,16.8,18.4,16.8h40c17.2,82.7,97.1,145.2,192.9,145.2S427,367.7,444.3,285c2.3-10.9,3.5-22.1,3.5-33.5H409.3z
		 M251.3,395.2c-74.5,0-137-47-153.6-110.2h307.2C388.3,348.2,325.9,395.2,251.3,395.2z"/>
	<path class="st0" d="M509.1,384.8V90.5c0-9.8-8.7-17.7-19.5-17.7h0c-10.8,0-19.5,7.9-19.5,17.7v329.7h19.5h19.5h216.4
		c10.8,0,19.5-7.9,19.5-17.7v0c0-9.8-8.7-17.7-19.5-17.7H509.1z"/>
	<path class="st1" d="M1811.4,384.8V90.5c0-9.8-8.7-17.7-19.5-17.7h0c-10.8,0-19.5,7.9-19.5,17.7v329.7h19.5h19.5h216.4
		c10.8,0,19.5-7.9,19.5-17.7v0c0-9.8-8.7-17.7-19.5-17.7H1811.4z"/>
	<path class="st0" d="M891.5,72.8c-108.6,0-196.7,80.1-196.7,178.9c0,98.8,88,178.9,196.7,178.9s196.7-80.1,196.7-178.9
		C1088.1,152.9,1000.1,72.8,891.5,72.8z M891.5,395.3c-87.1,0-157.7-64.3-157.7-143.5c0-79.3,70.6-143.5,157.7-143.5
		c87.1,0,157.7,64.3,157.7,143.5C1049.2,331,978.6,395.3,891.5,395.3z"/>
	<path class="st1" d="M1331.2,230.1c21.7,0,50.2-34.1,50.2-72.2c0-48.4-46.4-85.1-101.8-85.1c-55.4,0-135.5,0-135.5,0h-38.9v347.4
		h38.9c0,0,66.6,0,139.3,0c72.6,0,125.8-32.7,125.8-102.9C1409.1,247.1,1331.2,230.1,1331.2,230.1z M1278.4,384.1
		c-11.6,0-134.4,0-134.4,0V114.3c0,0,108.6,0,141.1,0c32.6,0,54.3,24.5,54.3,51.8s-36.7,53.5-78.6,67.8c0,0,109.3,19.8,109.3,87.5
		C1370.1,381.7,1290,384.1,1278.4,384.1z"/>
	<path class="st1" d="M1597.3,112.7L1575.6,72l-21.6,40.7l-150.6,283.5c-4.7,8.8-0.6,19.4,9.1,23.7l0,0c9.7,4.3,21.3,0.6,26-8.2
		l137.2-258.2l137.2,258.2c4.7,8.8,16.3,12.5,26,8.2l0,0c9.7-4.3,13.7-14.8,9.1-23.7L1597.3,112.7z"/>
	<path class="st0" d="M2498.2,142.5c6.2-4.9,12.4-9.8,18.6-14.7c3.8-3,7.7-5.8,11.6-8.7c1.8-1.4,4.2-2,5.3-4.3
		c0.1-0.2,0.4-0.4,0.7-0.4c3.3-0.7,5.4-3.5,8.2-5.1c1.3-0.8,2.9-1.7,3.5-3c1.6-3.3,5-3.5,7.5-5.3c0.2-0.1,0.6-0.2,0.8-0.1
		c1.3,0.7,1.8-0.1,2.4-1c0.3-0.4,0.8-0.8,1.2-1.1c2.6-1.6,4.8-3.8,7.8-4.8c0.8-0.3,1.7-0.8,2.3-1.5c1.3-1.5,2.8-2.4,4.5-3.5
		c3.7-2.3,7.1-5.1,10.6-7.6c4.1-2.9,7.2-7,12-8.9c0.3-0.1,0.6-0.4,0.9-0.6c3.4-3.1,6.8-6.3,10.2-9.4c0.1-0.1-0.1-0.3-0.1-0.6
		c-0.8,0.4-1.7,0.7-2.5,1.1c-0.2-0.2-0.4-0.4-0.6-0.6c-1.7-1.7-2.1-1.7-4-0.5c-0.9,0.5-1.7,1.1-2.6,1.5c-4.6,2.2-8.9,4.9-13.1,7.8
		c-3.2,2.2-6.5,4.3-9.9,6.2c-1.7,1-3.3,1.9-4.6,3.5c-0.7,0.9-1.9,1.4-2.9,2c-1.1,0.7-2.3,1.2-3.4,1.9c-0.8,0.6-1.6,1.3-2.4,1.9
		c-0.9,0.6-1.7,0.6-2.1-1c0.8-0.6,1.6-1.3,2.5-1.9c6-4.1,12.1-8.2,18.2-12.4c4.8-3.3,9.6-6.6,14.3-10c1.5-1.1,2.9-2.3,4.3-3.5
		c0.4-0.3,0.5-0.8,0.8-1.2c-0.1-0.2-0.2-0.3-0.3-0.5c-2.2,1.6-4.3,3.3-7.5,3.4c2.2-3.6,6.9-4.6,7.9-9.7c-2.1,1.5-3.6,2.7-5.2,3.8
		c-1.4,0.9-2.8,2-4.3,2.5c-1.7,0.5-3.6,0.3-6,0.4c1.4-1.4,2.5-2.6,3.8-3.6c3.2-2.4,6.4-4.7,9.6-7.1c0.7-0.6,1.6-1.1,2-2.5
		c-0.6,0.2-1,0.3-1.3,0.5c-10.8,6.6-21.5,13.2-32.3,19.7c-1.9,1.2-4.1,1.9-6.1,2.9c0.8-1.3,1.8-2.3,2.9-3c6.1-3.9,11.8-8.3,17.3-13
		c1-0.9,2.1-1.6,3-2.4c0.8-0.7,1.1-1.4,0.1-2.5c-1.7,1-3.3,2-5,3c-1.6,1-3.2,1.9-4.8,2.8c-1.7,1-3.4,1.9-5.1,2.8
		c-1.7,0.9-3.4,1.9-5.1,2.8c-1.6,0.9-3.2,1.9-4.9,2.6c-1.6,0.7-3,2.2-5.6,2.2c6-5.7,12.8-9.2,18.8-14c5.9-4.7,12.3-8.7,17.9-13.8
		c-0.8,0-1.4,0.3-2,0.7c-1.4,0.8-2.6,2-4.1,2.3c-3.7,1-6.6,3.2-9.8,5c-3.8,2.2-7.6,4.6-11.3,6.9c-0.4,0.2-0.8,0.5-1.2,0.7
		c-1.3,0.8-2.5,1.6-3.8,2.4c-4.9,3-6.2,0.5-10,1.8c0.2-0.3,0.4-0.6,0.7-0.9c-0.1-0.1-0.3-0.3-0.4-0.4c-2.6,1.4-5.2,2.8-7.7,4.3
		c-5.4,3.2-10.7,6.5-16.2,9.6c-1.5,0.8-3.3,2.1-5.1,0.6c-0.4,0.3-0.6,0.4-0.8,0.6c-3.3,0-17.3,9.5-18.4,8c-1.1-1.5,6.9-8,11.5-11.5
		c0.2-0.2,0.5-0.3,0.7-0.5c3.6-2.3,7.3-4.4,11-6.6c8.1-4.7,16.2-9.3,24.4-14c0.6-0.3,1-0.8,1.6-1.2c-1.2,0-2.1,0.4-2.9,0.8
		c-4.6,2.3-9.2,4.6-13.8,6.9c-1.1,0.6-2.2,0.9-3.2-0.6c4-2.3,7.9-4.6,11.9-6.9c3.9-2.3,7.9-4.4,11.7-6.9c3.8-2.5,8-4.4,11.3-7.6
		c-3.7,0.8-6.4,3.7-10,5.1c-0.2-0.9-0.4-1.6-0.6-2.5c-0.3,0.6-0.5,0.8-0.6,1c-0.2,0.3-0.4,0.5-0.4,0.5c-1-1-1.8-1.8-2.6-2.6
		c-2.7,1.3-5.1,2.5-7.4,3.8c-6.4,3.6-12.7,7.2-19.1,10.8c-1.1,0.6-2.2,1.4-3.3,2c-3.1,1.7-6.2,3.3-9.2,5c-2.8,1.6-5.7,3.3-8.4,5.1
		c-5.9,3.7-11.7,7.4-17.6,11.1c-0.9,0.6-1.7,1.4-2.6,2.1c-0.3,0.3-0.6,0.7-1,0.9c-1.9,1.1-3.9,1.9-5.7,3.2
		c-5.1,3.6-10,7.5-15.3,10.9c-4.2,2.7-8,5.9-12,8.9c-1.5,1.2-2.8,2.7-4.5,3.6c-2.9,1.5-4.4,4.7-7.4,6.1c-1.4,0.6-2.4,2-3.7,2.9
		c-3.1,2.4-6.3,4.8-9.3,7.3c-2.9,2.4-5.6,5.1-8.6,7.5c-2,1.6-4.1,3-5.9,4.7v0c0,0-56.8,49.1-62.8,54l0,0c-0.7,0.4-1.3,0.9-1.9,1.4
		c-2.9,2.4-5.7,4.8-8.5,7.2c-0.7,0.6-1.4,1-2.5,1.8c-0.5-0.1-0.5-0.1-1-0.6c-0.8-0.4-0.7-0.6-1.1-1c-2.1-2-4-3.7-5.8-5.5
		c-10.9-10.4-21.8-20.9-32.7-31.4c-8.2-8-16.5-15.9-24.6-24.1c-6.4-6.4-12.3-13.2-18.3-20c-11.1-12.4-22.7-24.3-34.1-36.4
		c-3.8-4.1-7.8-8-11.7-12c-2.3-2.3-4.5-4.8-6.8-7.1c-3.4-3.4-6.9-6.8-10.3-10.3c-0.8-0.8-1.3-1.8-2.1-2.6c-1.5-1.4-3-2.8-4.5-4.1
		c-1.7-1.6-3.2-3.4-5.1-4.7c-5.4-3.6-10.9-7.1-16.4-10.4c-3.4-2.1-7.1-3.5-11.3-3.8c-0.3,1.5-0.4,3.2-2.5,3.5
		c-0.4,0.1-0.8,1.2-1.1,1.8c-0.2,0.7-0.2,1.5-0.4,2.2c-0.3,2.2-0.4,2.1-2.5,2.6c-1,0.3-2,0.9-2.9,1.5c-0.6,0.4-1,1.4-1.6,1.5
		c-2.8,0.7-3.1,3.1-3.9,5.3c-0.2,0.6-0.5,1.2-0.7,1.8c-0.6,2.3-1.8,3.6-4.3,3.4c-0.1,0-0.3,0.2-0.5,0.4c0,0.3,0,0.7,0.1,1
		c0.6,2.6,0,4.7-2.3,6.4c-2.2,1.6-3.7,3.8-3.9,6.8c-0.1,1.6-1.2,2.5-2.6,3.4c-3.8,2.3-6.8,5.2-6.6,10.2c0.1,1.8-0.2,3.6-1.4,5
		c-1.3,1.5-1.9,3.1-2,5.1c-0.1,1.3-0.8,2.2-2.1,2.2c-2.4-0.1-3.2,1.9-4.1,3.6c-0.5,0.9-0.8,1.7-1.9,2.1c-2,0.8-2.1,2-0.5,3.6
		c1.1,1.2,2.3,2.5,3.3,3.8c0.4,0.5,0.6,1.2,1,2.1c-1.2,0-2,0-3.2,0.1c0.7,0.9,1.2,1.5,1.7,2c4.4,4.9,9.2,9.6,13.3,14.8
		c8.4,10.7,17.5,21,26.5,31.2c5.5,6.3,11.7,12,17.1,18.5c8.5,10.1,17.3,19.8,26.3,29.4c4.7,5,9.2,10.3,14,15.2
		c6.7,6.9,13.5,13.6,20.3,20.4c3.9,3.9,7.9,7.8,11.9,11.8c1,1.1,1.9,2.3,3,3.3c1.1,1.1,2.3,2.1,3.5,3.2c1.1,1,2,2.7,3.2,3
		c1.9,0.4,1.5,2.7,3.1,3.1c0.1,0,0.2,0.1,0.2,0.2c2.5,2.2,5,4.4,7.5,6.6c0.4,0.4,0.7,0.9,1.1,1.3c0.7,0.8,1.4,1.5,2,2.3
		c1.1,1.4,2.2,2.8,3,4.3c1.2,2.3,0.9,4.5-0.8,6.5c-0.9,1-1.9,2.1-2.8,3.1c-7.6,7.9-15.3,15.8-22.8,23.8c-7.6,8-15.1,16.2-22.6,24.2
		c-0.7,0.8-1.8,1.3-2.5,2.1c-4.5,4.9-9.9,8.6-14.2,13.7c-3.2,3.8-7,7-10.4,10.5c-5.7,5.8-11.3,11.6-16.9,17.5
		c-7.7,8.1-15.5,16.1-23.1,24.3c-7.7,8.4-15.1,17-22.7,25.5c-6.3,7.1-12.8,14.1-19.2,21.1c-4.2,4.6-8.5,9.1-12.8,13.7
		c-6.7,7.2-13.5,14.4-20.2,21.6c-2.3,2.4-4.4,5-6.6,7.5c-0.8,1-1.6,2.1-2.4,3.1c-3.3,4-6.5,7.9-9.8,11.9
		c-4.2,5.2-11.3,16.3-11.5,20.5l0,0c-0.1,0.3-0.1,0.7-0.1,1c0,1.1-0.5,2.1-0.9,3.1c-0.3,0.8-0.8,1.5-1.1,2.2
		c-0.1,0.2,0.2,0.5,0.3,0.7c0.7-0.5,1.3-0.9,1.9-1.3c1.4,1.4,0.4,2.4-0.2,3.4c-1.2,1.8-3.3,3.1-3.2,5.7c0,0.3-0.4,0.7-0.6,0.9
		c-2.6,2.1-3.2,5.4-5.1,8c-0.2,0.2-0.1,0.6-0.2,1.5c1.3-1.5,2.1-2.5,3-3.4c2.4-2.6,4.7-5.4,7.3-7.9l0,0c0.8-0.8,1.7-1.6,2.6-2.4
		c4.3-3.5,7.9-7.6,11.5-11.7c1-1.1,1.9-2.3,2.9-3.4c2.4-2.4,4.3-4,4.6-4c1.2,0.1-21.8,28.2-21.8,28.2l0,0c-0.4,0.5-0.9,1.1-1.3,1.6
		c-1.6,2-3.2,4.1-3.7,6.8c2.1-0.1,2.1-0.1,3.9,1.2c-1.7,2.4-1.7,5.2-1.8,8.2c0.5-0.2,0.8-0.2,1-0.4c2-2.1,4.1-4.1,6.2-6.2l0,0
		c0,0,0,0,0,0c0.9-1,1.9-2,2.8-3c0.7-0.7,1.3-1.5,1.9-2.3c3.3-3.6,7.2-7.6,7.9-7.1c1.1,0.9-9.2,15.1-11.6,17.1c-1,3-2,6.1-3,9.1
		c0.5,0.4,0.9,0.8,1.3,1.1c0.1,0,0.2,0,0.1,0c0.8-0.7,1.5-1.3,2.2-1.9c0.6-0.6,0.9-1.7,2.3-1.4c0.2,2.5-3.2,4.1-2,6.9
		c0.9,0,1.8-0.1,2.8-0.1c0,0.9-0.1,1.6-0.1,2.8c2.1-0.7,4.1-1.3,6-1.9c0.1,0.1,0.2,0.3,0.3,0.4c-1.1,1.3-2.3,2.5-3.2,3.9
		c-0.9,1.4-2.5,2.5-2.4,4.6c0.5-0.6,1.1-1.2,1.6-1.7c2.7,1,2.8,1.2,1.7,3.6c-0.4,0.9-0.9,1.8-1.4,2.8c-0.1,0.1,0,0.3-0.1,0.4
		c0.3,0,0.5-0.1,1-0.1c0,1-0.1,1.9-0.1,3c2.2-1.1,2.2-1.1,3.7-0.6c-0.5,1.7-2.5,3-1.5,5.4c0.5-1.1,1.7-2,2.9-2.9
		c0.7-0.5,1.2-1.2,1.7-1.8c0.9-1,1.8-2.1,2.7-3.2c1.8-2,3.7-3.9,5.6-5.8c0.3-0.3,0.7-0.4,1.1-0.6c0.2,0.2,0.4,0.3,0.5,0.5
		c-3.4,4.5-7.4,8.5-10.6,13.2c0.1,0.1,0.3,0.3,0.4,0.4c1.2-1.1,2.4-2.1,3.6-3.3c0.1,0.5,0.2,0.7,0.1,0.8c-1.9,2.8-3.8,5.5-5.8,8.2
		c-0.7,1-1.4,1.9-0.6,3.5c1-1.1,1.9-2.1,2.9-3.2c1.3,1.2,2.6,2.3,3.9,3.5c-0.5,0.9-1,1.9-1.4,2.7c1.9,1.8,5.1,1.4,5.9,4.5
		c2,0.1,3.8-0.1,5.4-1.6c4.7-4.6,9.4-9.3,14.1-13.9c3.4-3.4,7.6-6,9.7-10.6c0.1-0.2,0.4-0.4,0.6-0.6c1.4-1.5,2.9-2.9,4.2-4.5
		c2.8-3.3,5.3-6.7,8.1-9.9c8.1-9.4,17.2-17.8,25.9-26.6c6.2-6.3,12.6-12.5,18.4-19.1c6.4-7.1,12.4-14.5,19-21.4
		c0.7-0.7,1.3-1.6,2-2.3c2.9-3.1,5.7-6.1,8.6-9.1c3.6-3.7,7.1-7.7,11.1-11c2.4-2,4.7-3.9,6.7-6.1c4-4.3,8-8.6,12-12.9
		c5.4-5.4,12.4-12.5,20.5-20.5c0,0,20.2-18.5,38-35l9.8-9.1c0,0,12.8-13.6,17.6-16.6c1.4-1.3,2.7-2.7,4-4.1
		c11.3-10.3,28.6-24.4,28.6-24.4l0,0c6.3,8.6,26.5,30.7,35.2,38.8c0.1,0.1,0.1,0.1,0.2,0.2c0.5,0.5,1,1.4,1.6,1.3
		c8.2,7,20.4,25.5,29.4,34.3c6.4,6.2,27.6,29.2,44.4,46.7v0c0,0,0,0,0,0c3.3,3.5,6.5,6.7,9.4,9.6c7.4,7.6,15.1,15.5,20,20.4
		c0.8,0.9,1.7,1.7,2.6,2.5c0,0,0,0,0,0c1.9,1.9,3.5,3.4,4.8,4.7c0.2,0.2,0.4,0.5,0.6,0.8c0.1,0.2,0.4,0.4,0.7,0.5c0,0,0.1,0,0.1,0
		c2,1.9,3.4,3.2,4.7,4.4c2.3,2.2,16.9,16.4,25.6,20.5c4.9,3.4,8.7,5,10.2,3.6c-1.5-2.1-3.3-3.9-5-5.7c-0.5-0.5-0.9-1-1.2-1.5
		c-0.9-1.2-1.6-2.5-2.6-3.6c-1.3-1.4-2.8-2.7-4.5-4.3c1.9-1.1,1.3-2.1,0.8-3.1c-0.5-1-1.3-2-0.8-3.8c7.9,6.3,13.9,14,21.2,20.6
		c0.7-1.5-0.2-2.1-0.7-2.8c-0.5-0.8-1-1.6-1.5-2.3c-0.5-0.8-0.9-1.6-1.5-2.2c-1.9-1.9-3.9-3.8-5.7-5.7c-0.7-0.7-0.9-1.8-1.4-2.7
		c-0.2-0.5-0.3-1.1-0.6-1.5c-1.5-2.2-2.7-4.5-4.5-6.3c-3.1-3.2-5.5-6.9-8.4-10.2c-0.7-0.8-1.2-1.9-1.8-2.8c0.2-0.1,0.4-0.3,0.6-0.4
		c9.7,9.7,19.4,19.4,29.5,29.6c-0.1-3.1-2.9-5.2-2.3-7.6c0.7-2.9-1.7-5.2-1-8.3c2.7,2.8,5,5.2,7.4,7.6c1.6,1.5,3.3,3,5.1,4.3
		c0.5,0.4,1.4,0.5,2.1,0.5c0.3,0,0.8-0.5,0.9-0.8c0.1-0.2-0.4-0.7-0.7-0.9c-1.3-1-2.7-1.8-3.9-2.8c-2.6-2.3-3.5-5.6-5-8.5
		c1.3,1.2,2.6,2.5,3.5,3.3c1.2-0.6,1.9-1,2.9-1.5c0.2,1.7,0.4,2.9,0.6,4.2c1.8-1.7,3.1-3.3,2.1-5.7c1.8-0.3,3.2,0.6,4.6,1.6
		c1.2,0.9,2.3,2,4.2,2c-2.1-1.9-4.2-3.5-5.9-5.4c-6.1-6.6-12.1-13.2-18.1-19.9c-0.8-0.9-1.3-2.1-1.9-3.2c0.2-0.2,0.4-0.3,0.5-0.5
		c0.7,0.5,1.5,0.9,2.1,1.5c0.9,0.9,1.8,1.9,2.6,2.9c6,6.7,12.1,13.5,18.1,20.2c0.3,0.3,0.7,0.5,1.1,0.7c-0.7-1.4-1.8-2.5-2.8-3.6
		c-2.1-2.2-4.3-4.4-5.4-7.4c-0.3-1-0.5-2-1-2.9c-1.6-2.5-3.3-5-5-7.4c-2.3-3.2-4.6-6.4-6.9-9.6c-0.3-0.4-0.4-1-0.5-1.5
		c2.4,1.5,4.4,3.3,6.3,5.1c1.8,1.7,3.7,3.4,5.5,5.1c0.7,0.7,1.4,1.5,1.9,2.3c1.3,2,2.7,3.8,4.9,5c-0.4-0.9-0.9-1.7-1.6-2.4
		c-1.5-1.6-2.7-3.2-3.2-5.5c-0.2-1-1-2-1.6-2.9c-0.4-0.7-1.1-1.3-1.5-2c-3.5-5.3-6.9-10.7-10.4-15.9c-1.9-2.8-1.9-3.8,0.9-6.8
		c1,0.8,2,1.7,3,2.6c0.8,0.6,1.5,1.6,2.4,1.7c2.3,0.4,4.2,1.3,5.6,3.1c0.7-0.4,1.2-0.7,1.8-1c-0.7-1.3-1.4-2.5-2.3-4
		c0.8,0.3,1.2,0.5,1.6,0.7c-0.4-1.5-1.2-2.6-1.8-3.8c-0.5-0.9-1.5-1.7-0.8-3.1c2.9,2,5.2,4.4,6.7,7.7c0.4-0.4,0.6-0.7,1-1
		c1.2,1.5,2.5,2.9,3.6,4.4c0.8,1.1,1.7,1.4,2.8,0.9c2.1,2.9,3.4,4.2,5,4.8c-0.5-1-0.9-2-1.4-2.8c-0.6-1-0.7-1.8,0.2-3
		c2,2.1,3.9,4.1,5.9,6.1c-0.1-0.9-0.4-1.5-0.9-2c-2.3-2.8-4.8-5.5-6.8-8.6c-6.1-9.3-12.1-18.7-18-28.1c-0.5-0.8-0.6-1.9-0.9-2.9
		c-0.3-0.9-0.5-1.8-0.8-2.8c-0.1,0-0.3,0.1-0.4,0.1c-0.1,0.3-0.1,0.6-0.2,1.3c-1-1.2-2.2-2.1-2.5-3.2c-0.5-2-1.7-3.3-2.8-4.9
		c-0.7-1.1-1-2.4-1.6-3.6c-1.6-3-2.9-6-5.2-8.5c-1.6-1.9-2.5-4.4-5.1-5.3c-0.2-0.1-0.4-0.4-0.6-0.6c-1.5-1.7-3-3.3-4.3-5.1
		c-2.6-3.5-5.4-7-7.5-10.8c-1.5-2.6-3.3-4.9-5.2-7.2c-1.9-2.2-4.3-4.1-5.4-7c-0.3-0.9-1.3-1.5-2-2.3c-0.5-0.5-1.1-1-1.5-1.6
		c-3.1-3.9-6-7.9-9.2-11.6c-6.3-7.4-12.8-14.6-19.1-22c-2.9-3.3-5.6-6.7-8.4-10c-0.9-1.1-2-1.9-2.9-3c-9.6-10.6-19.1-21.2-28.7-31.8
		c-0.9-1-1.8-2-2.7-2.9v0c0,0-10.4-13.2-10.2-14.5c0.2-1.3,0.4-0.9,0.4-0.9c1.5-1.6,2.9-3,4.4-4.4c0.3-0.3,0.6-0.6,0.7-1
		c0,0,0,0,0,0c2.1-2.2,42.7-51.9,81.1-85.5l0,0c0.4-0.3,0.8-0.6,1.2-0.9c3.4-2.7,6.7-5.5,10.2-8.2c7.2-5.7,14.5-11.3,21.7-17
		c0.6-0.5,1.2-1,1.9-1.5l6.7-4.9c1.4-0.9,2.8-1.7,4.1-2.7c2.5-1.8,4.9-3.7,7.3-5.6l0,0c9.6-6.5,28.5-23.6,38.9-39.2
		c0.2-0.2,0.3-0.5,0.5-0.7c0.4-0.9,0.6-1.9,0.9-2.9c-0.3-0.2-0.6-0.5-1.5-1.3c0.9-0.5,1.7-0.8,2.3-1.4c3.4-3.1,7.6-5.3,10.2-9.4
		c0.5-0.8,1.5-1.3,2.3-2c1-0.9,2-1.7,2.9-2.6c0.4-0.4,0.7-0.9,1-1.3c-0.1-0.1-0.2-0.1-0.3-0.2c-7.1,5.3-14.2,10.5-21.8,16.1
		c0,0-4.8,3.5-8.9,5.6c-17.4,13.4-74.2,45.3-76.8,42.7C2496.6,143.3,2497.5,142.9,2498.2,142.5z M2531.6,509.8L2531.6,509.8
		c-0.1-0.2-0.3-0.3-0.4-0.5C2531.3,509.4,2531.5,509.6,2531.6,509.8z"/>
</g>
</svg>
