<?xml version="1.0" encoding="UTF-8" standalone="no"?>
<!-- Created with Inkscape (http://www.inkscape.org/) -->

<svg
   xmlns:dc="http://purl.org/dc/elements/1.1/"
   xmlns:cc="http://creativecommons.org/ns#"
   xmlns:rdf="http://www.w3.org/1999/02/22-rdf-syntax-ns#"
   xmlns:svg="http://www.w3.org/2000/svg"
   xmlns="http://www.w3.org/2000/svg"
   xmlns:sodipodi="http://sodipodi.sourceforge.net/DTD/sodipodi-0.dtd"
   xmlns:inkscape="http://www.inkscape.org/namespaces/inkscape"
   width="311.1171"
   height="97.459167"
   viewBox="0 0 82.316397 25.786071"
   version="1.1"
   id="svg3734"
   inkscape:version="0.92.0 r15299"
   sodipodi:docname="latam cargo.svg">
  <defs
     id="defs3728" />
  <sodipodi:namedview
     id="base"
     pagecolor="#ffffff"
     bordercolor="#666666"
     borderopacity="1.0"
     inkscape:pageopacity="0.0"
     inkscape:pageshadow="2"
     inkscape:zoom="1.9987502"
     inkscape:cx="223.94592"
     inkscape:cy="102.01532"
     inkscape:document-units="mm"
     inkscape:current-layer="layer1"
     showgrid="false"
     fit-margin-top="0"
     fit-margin-left="0"
     fit-margin-right="0"
     fit-margin-bottom="0"
     units="px"
     inkscape:window-width="1280"
     inkscape:window-height="744"
     inkscape:window-x="-4"
     inkscape:window-y="-4"
     inkscape:window-maximized="1" />
  <metadata
     id="metadata3731">
    <rdf:RDF>
      <cc:Work
         rdf:about="">
        <dc:format>image/svg+xml</dc:format>
        <dc:type
           rdf:resource="http://purl.org/dc/dcmitype/StillImage" />
        <dc:title></dc:title>
      </cc:Work>
    </rdf:RDF>
  </metadata>
  <g
     inkscape:label="Layer 1"
     inkscape:groupmode="layer"
     id="layer1"
     transform="translate(-80.814718,-237.72929)">
    <path
       inkscape:connector-curvature="0"
       id="path3432"
       style="fill:#ed1650;fill-opacity:1;fill-rule:nonzero;stroke:none;stroke-width:0.35277778"
       d="m 82.243821,244.23053 4.82036,1.74766 c 1.26259,-0.45579 2.58621,-0.93733 3.80753,-1.38007 -3.56553,-1.29151 -7.81827,-2.83315 -9.19304,-3.34362 -0.33408,-0.12101 -0.59937,-0.25929 -0.59937,0.0956 v 1.39136 c 0,0.78845 0.41557,1.20438 1.16452,1.48907 m -1.15535,3.45793 c 0.0162,0.33655 0.15734,0.37888 0.51612,0.27093 0.17074,-0.0614 0.42615,-0.15346 0.74683,-0.27093 0.0801,-0.0293 0.16404,-0.0603 0.25188,-0.0924 l 0.001,0.001 c 0.54363,-0.19756 1.23613,-0.4498 2.01683,-0.73238 -1.27317,-0.46496 -2.45216,-0.88794 -3.09703,-1.12712 -0.28787,-0.1076 -0.43604,-0.0314 -0.43604,0.30021 v 1.31904 z m 12.2301,0.55809 c 1.2573,-0.45543 2.19111,-0.79622 2.35621,-0.85619 0.91828,-0.33267 1.07315,-0.66075 0.66851,-0.80539 0.0205,0.005 0.037,0.0127 0.0564,0.019 -0.036,-0.0176 -0.0787,-0.0342 -0.12382,-0.0497 -0.13265,-0.0501 -0.72214,-0.26247 -1.5935,-0.57715 -1.00224,0.36231 -2.39077,0.86572 -3.81176,1.38289 z m -0.008,-4.53284 -7.3406,-2.61302 c -0.74789,-0.28011 -1.16311,-0.70062 -1.16311,-1.48802 v -1.38959 c 0,-0.35842 0.26635,-0.21978 0.597261,-0.0963 2.442979,0.90099 10.218909,3.66113 10.871549,3.89714 0.084,0.031 0.15346,0.0639 0.20849,0.0995 0.21625,0.16722 -0.0208,0.44591 -0.80962,0.73342 -0.14535,0.0529 -1.06045,0.38277 -2.36397,0.8569" />
    <path
       inkscape:connector-curvature="0"
       id="path3436"
       style="fill:#1b0088;fill-opacity:1;fill-rule:nonzero;stroke:none;stroke-width:0.35277778"
       d="m 96.344601,242.05114 c 0.42298,0.15028 0.24836,0.47131 -0.66957,0.80574 -0.48119,0.17428 -9.67282,3.50626 -13.07007,4.74063 v -0.001 c -0.0896,0.0321 -0.17356,0.0628 -0.254,0.091 -0.31997,0.11853 -0.57573,0.21061 -0.74647,0.27234 -0.35878,0.10795 -0.49954,0.0656 -0.51753,-0.27234 0,0.21061 -0.007,0.63359 0.35983,0.76658 l 2.9965,1.08938 c 0,0 0.21202,0.0681 0.41451,-0.003 0.26882,-0.0942 11.31853,-4.10634 11.31853,-4.10634 0.53974,-0.19932 0.57185,-0.65405 0.57185,-1.96426 0,-1.22273 0,-1.27565 -0.40358,-1.41817 m -5.491339,12.67496 c 0,-0.57538 0.0624,-1.07033 -0.450141,-0.88406 l -5.64092,2.04541 v 2.73649 l 5.514621,-1.98719 c 0.542569,-0.19685 0.57644,-0.5775 0.57644,-1.15394 z m -3.438881,5.7658 c 0,-0.57785 0.0646,-1.06856 -0.45014,-0.88653 l -2.20204,0.80504 v 2.74003 l 2.07539,-0.74578 c 0.543631,-0.19932 0.57679,-0.58067 0.57679,-1.15711 z m 8.76195,-10.52301 -11.41695,4.14303 v -2.76049 c 0,0 10.3251,-3.74615 10.91565,-3.96099 0.91793,-0.33514 1.07315,-0.66075 0.66957,-0.80539 0.41099,0.14746 0.40358,0.19509 0.40358,1.42064 0,1.30668 -0.0321,1.76388 -0.57185,1.9632" />
    <g
       id="g3773"
       style="fill:#1b0088;fill-opacity:1"
       transform="translate(0.26458315,-0.2645833)">
      <path
         d="m 120.89021,251.5889 h 2.73897 l -4.26579,-8.41869 c -0.22437,-0.41381 -0.44415,-0.57432 -0.95568,-0.57432 h -2.35655 l -4.48945,8.99301 h 2.73791 l 0.79727,-1.65876 h 5.03061 z m 22.44796,0 h 2.70615 l -4.2679,-8.41869 c -0.22119,-0.41381 -0.4445,-0.57432 -0.95109,-0.57432 h -2.35832 l -4.49016,8.99301 h 2.74003 l 0.79516,-1.65876 h 5.03132 z m 9.64776,-2.20063 c 0.096,0.31962 0.47978,0.54187 0.89182,0.54187 h 2.57951 l 1.9103,-5.29273 1.81469,6.95114 h 2.4197 l -2.0066,-7.97278 c -0.18839,-0.79551 -0.63465,-1.01988 -1.36596,-1.01988 h -2.51707 l -1.81574,5.26168 -1.43087,-4.46652 c -0.19297,-0.57079 -0.54504,-0.79516 -1.11831,-0.79516 h -2.83139 l -2.32481,8.99301 h 2.45251 l 1.78294,-6.95149 z m -11.33404,-1.27564 h -3.34469 l 1.6891,-3.60222 z m -22.41727,0 h -3.34115 l 1.68663,-3.60222 z m -9.58179,3.47627 1.01847,-2.07222 h -6.01945 v -6.92079 h -2.57881 v 8.99301 z m 17.89324,0 h 2.4825 v -6.92079 l 4.33281,-0.28646 v -1.78576 h -11.14566 v 1.78576 l 4.33035,0.28646 z"
         style="fill:#1b0088;fill-opacity:1;fill-rule:nonzero;stroke:none;stroke-width:0.35277778"
         id="path3440"
         inkscape:connector-curvature="0" />
      <path
         d="m 108.75451,256.39578 -0.28716,0.7493 c 0,0 -0.92886,-0.48578 -2.27013,-0.48578 -1.75401,0 -3.44346,1.03788 -3.44346,3.0794 0,1.99814 1.657,2.97251 3.47486,2.97251 1.41711,0 2.36714,-0.52917 2.36714,-0.52917 l 0.254,0.75142 c 0,0 -1.08797,0.57079 -2.66171,0.57079 -2.3883,0 -4.32153,-1.30175 -4.32153,-3.76555 0,-2.49731 1.96533,-3.8735 4.28837,-3.8735 1.52224,0 2.59962,0.53058 2.59962,0.53058"
         style="fill:#1b0088;fill-opacity:1;fill-rule:nonzero;stroke:none;stroke-width:0.35277778"
         id="path3444"
         inkscape:connector-curvature="0" />
      <path
         d="m 114.6718,256.73237 -1.96427,3.84175 h 3.93912 z m 2.38831,4.63479 h -4.75298 l -1.03646,2.02001 h -0.93909 l 3.84351,-7.40657 h 0.57185 c 0.29457,0 0.46355,0.0956 0.58985,0.33937 l 3.69922,7.0672 h -0.94121 z"
         style="fill:#1b0088;fill-opacity:1;fill-rule:nonzero;stroke:none;stroke-width:0.35277778"
         id="path3448"
         inkscape:connector-curvature="0" />
      <path
         d="m 127.49929,258.3719 c 0,-0.82338 -0.59196,-1.59702 -2.27048,-1.59702 h -2.99085 v 3.01519 c 0.60361,0.26599 1.43687,0.46566 2.28212,0.46566 2.19851,0 2.97921,-0.8576 2.97921,-1.88383 m -5.26133,2.23238 v 2.78306 h -0.87383 v -7.40657 h 3.949 c 1.97449,0 3.05152,0.95215 3.05152,2.36044 0,1.11019 -0.60289,1.95862 -1.77412,2.39042 l 1.72262,2.65571 h -1.04669 l -1.57304,-2.42288 c -0.34784,0.0526 -0.74013,0.0857 -1.15147,0.0857 -0.87665,0 -1.76459,-0.18062 -2.30399,-0.44591"
         style="fill:#1b0088;fill-opacity:1;fill-rule:nonzero;stroke:none;stroke-width:0.35277778"
         id="path3452"
         inkscape:connector-curvature="0" />
      <path
         d="m 134.64233,263.50443 c -2.38619,0 -4.31906,-1.30175 -4.31906,-3.7659 0,-2.49732 1.99637,-3.87315 4.35152,-3.87315 1.61607,0 2.79047,0.53058 2.79047,0.53058 l -0.26529,0.70732 c 0,0 -0.99272,-0.4438 -2.4825,-0.4438 -1.78541,0 -3.50731,1.03752 -3.50731,3.07905 0,1.99813 1.65876,2.97286 3.47556,2.97286 0.81457,0 1.48908,-0.17004 2.0186,-0.36125 v -2.47438 h 0.84419 v 2.99473 c 0,0 -1.21461,0.63394 -2.90618,0.63394"
         style="fill:#1b0088;fill-opacity:1;fill-rule:nonzero;stroke:none;stroke-width:0.35277778"
         id="path3456"
         inkscape:connector-curvature="0" />
      <path
         d="m 140.75223,259.65421 c 0,1.79776 1.20474,3.06599 3.17853,3.06599 1.97661,0 3.17147,-1.26823 3.17147,-3.06599 0,-1.78047 -1.19486,-3.00637 -3.17147,-3.00637 -1.97379,0 -3.17853,1.2259 -3.17853,3.00637 m 7.22595,0 c 0,2.10432 -1.45909,3.86115 -4.04742,3.86115 -2.61867,0 -4.05483,-1.75683 -4.05483,-3.86115 0,-2.07363 1.44674,-3.79942 4.05483,-3.79942 2.58833,0 4.04742,1.72579 4.04742,3.79942"
         style="fill:#1b0088;fill-opacity:1;fill-rule:nonzero;stroke:none;stroke-width:0.35277778"
         id="path3460"
         inkscape:connector-curvature="0" />
    </g>
  </g>
</svg>
