<svg width="185" height="40" viewBox="0 0 185 40" fill="none" xmlns="http://www.w3.org/2000/svg">
<g clip-path="url(#clip0)">
<path d="M180.037 26.9661H0.0185547V28.0006H180.037V26.9661Z" fill="#ED1C24"/>
<path fill-rule="evenodd" clip-rule="evenodd" d="M123.887 10.1533C124.93 7.00015 124.817 4.51603 123.544 2.70714C122.258 0.89825 119.991 0 116.714 0C112.937 0 109.428 1.25136 106.201 3.76026C102.973 6.27536 100.713 9.48428 99.4144 13.3932C98.3656 16.5526 98.4842 19.0429 99.7703 20.8766C101.063 22.7102 103.341 23.6271 106.625 23.6271C110.346 23.6271 113.83 22.3571 117.076 19.8234C120.322 17.2836 122.589 14.0623 123.887 10.1533ZM118.144 9.73827C117.263 12.3897 115.884 14.6012 114.004 16.3605C112.119 18.1261 110.196 19.0057 108.217 19.0057C106.719 19.0057 105.701 18.5597 105.177 17.6553C104.646 16.757 104.646 15.4933 105.189 13.8702C106.057 11.2498 107.412 9.05684 109.26 7.3037C111.108 5.54437 113.006 4.6709 114.978 4.6709C116.545 4.6709 117.6 5.10454 118.144 5.96562C118.687 6.83289 118.687 8.09044 118.144 9.73827Z" fill="#005BAA"/>
<path fill-rule="evenodd" clip-rule="evenodd" d="M50.0132 22.9953L69.0545 0.582423V0.576228H75.4973L72.7878 22.9953H66.7695L67.4126 19.1112H59.2342L56.2188 22.9953H50.0132ZM62.8989 14.5394H68.2741L69.8037 5.82325L62.8989 14.5394Z" fill="#005BAA"/>
<path d="M80.2981 0.576228L77.7697 5.19137H84.2125L74.4172 22.9953H80.3418L90.1871 5.19137H96.4301L86.5287 22.9953H92.5033L104.864 0.576228H80.2981Z" fill="#005BAA"/>
<path fill-rule="evenodd" clip-rule="evenodd" d="M178.545 0.582277H172.739L161.738 20.3933L164.136 0.582277H157.705L138.652 23.0014H144.863L147.873 19.1172H156.045L155.408 23.0014H177.34L180.024 18.219H168.818L178.545 0.582277ZM156.919 14.5392H151.55L158.455 5.8231L156.919 14.5392Z" fill="#005BAA"/>
<path d="M48.3522 15.2951L56.4931 0.576228H62.1431L49.7694 22.9953H43.8884L43.2704 8.2764L35.1544 22.9953H29.6606L41.9781 0.576228H47.8902L48.3522 15.2951Z" fill="#005BAA"/>
<path d="M145.138 0.576228L136.997 15.2951L136.535 0.576228H130.617L118.3 22.9953H123.793L131.916 8.2764L132.534 22.9953H138.421L150.788 0.576228H145.138Z" fill="#005BAA"/>
<path d="M0.012207 23.0077L12.5919 0.576228H36.9023L24.3164 23.0077H0.012207Z" fill="#005BAA"/>
<path d="M182.515 18.2126C181.148 18.2126 180.037 19.2844 180.037 20.6038C180.037 21.9233 181.148 23.0012 182.515 23.0012C183.882 23.0012 185 21.9295 185 20.6038C185 19.2844 183.882 18.2126 182.515 18.2126ZM182.515 22.6667C181.341 22.6667 180.392 21.7437 180.392 20.61C180.392 19.4826 181.348 18.5534 182.515 18.5534C183.689 18.5534 184.644 19.4764 184.644 20.61C184.644 21.7437 183.689 22.6667 182.515 22.6667Z" fill="#005BAA"/>
<path d="M182.572 20.6782C182.846 20.6782 183.052 20.6163 183.202 20.4862C183.346 20.3623 183.415 20.1702 183.415 19.9225C183.415 19.78 183.39 19.6437 183.34 19.5322C183.283 19.4145 183.215 19.3216 183.121 19.2534C183.046 19.2039 182.959 19.1605 182.865 19.1357C182.765 19.1171 182.609 19.1047 182.403 19.1047H181.667V22.134H182.029V20.6906H182.085L183.234 22.134H183.708L182.509 20.6906H182.572V20.6782ZM182.029 20.4118V19.3959H182.316C182.603 19.3959 182.79 19.4331 182.896 19.5136C183.003 19.5941 183.046 19.7304 183.046 19.9225C183.046 20.1083 182.996 20.2322 182.896 20.3065C182.803 20.3809 182.603 20.418 182.316 20.418H182.029V20.4118Z" fill="#005BAA"/>
<path fill-rule="evenodd" clip-rule="evenodd" d="M147.392 40.0001C144.308 40.0001 143.365 37.454 143.365 35.6823C143.365 33.9106 144.308 31.3645 147.392 31.3645C150.476 31.3645 151.418 33.9106 151.418 35.6823C151.418 37.454 150.476 40.0001 147.392 40.0001ZM147.392 32.3495C145.594 32.3495 144.514 33.7557 144.514 35.6823C144.514 37.6089 145.594 39.0151 147.392 39.0151C149.19 39.0151 150.27 37.6089 150.27 35.6823C150.27 33.7557 149.19 32.3495 147.392 32.3495Z" fill="#005BAA"/>
<path d="M3.32754 39.7835H2.15385L0 31.5877H1.20491L2.74694 38.2534H2.77191L4.62609 31.5877H5.84349L7.69767 38.2534H7.72264L9.26467 31.5877H10.4946L8.32197 39.7835H7.14828L5.25664 32.9878H5.23791L3.32754 39.7835Z" fill="#005BAA"/>
<path d="M19.8341 39.7835H13.7347V31.5877H19.753V32.5665H14.8522V35.0816H19.3784V36.0604H14.8522V38.7985H19.8341V39.7835Z" fill="#005BAA"/>
<path fill-rule="evenodd" clip-rule="evenodd" d="M32.0393 31.5877H28.693V39.7835H31.9956C34.7113 39.7835 35.5166 37.4109 35.5166 35.571C35.5166 33.2108 34.1931 31.5877 32.0393 31.5877ZM31.9706 38.8357H29.8043V32.5355H31.8894C33.4065 32.5355 34.3617 33.5701 34.3617 35.6391C34.3617 37.7082 33.419 38.8357 31.9706 38.8357Z" fill="#005BAA"/>
<path d="M45.2244 39.7835H39.1312V31.5877H45.1432V32.5665H40.2424V35.0816H44.7686V36.0604H40.2424V38.7985H45.2244V39.7835Z" fill="#005BAA"/>
<path d="M54.0645 38.7985H49.8754V31.5877H48.7579V39.7835H54.0645V38.7985Z" fill="#005BAA"/>
<path d="M58.5163 31.5877H57.3988V39.7835H58.5163V31.5877Z" fill="#005BAA"/>
<path d="M69.0669 31.5877H67.8121L65.4772 38.5755H65.4522L63.0924 31.5877H61.85L64.8654 39.7835H66.0516L69.0669 31.5877Z" fill="#005BAA"/>
<path d="M78.4565 39.7835H72.3571V31.5877H78.3754V32.5665H73.4746V35.0816H77.9946V36.0604H73.4746V38.7985H78.4565V39.7835Z" fill="#005BAA"/>
<path fill-rule="evenodd" clip-rule="evenodd" d="M82.121 39.7835H83.2447V36.271H85.948C87.284 36.271 87.4213 37.0578 87.4213 37.733C87.4213 38.0427 87.4525 39.2879 87.6149 39.7897H88.9821V39.61C88.6387 39.4118 88.5825 39.2445 88.57 38.7861L88.5014 37.2994C88.4514 36.1595 87.9832 35.9489 87.5087 35.7569C88.0394 35.4471 88.6574 35.0011 88.6574 33.7931C88.6574 32.0523 87.2965 31.5877 85.9417 31.5877H82.121V39.7835ZM85.8293 35.317H83.2385V32.5355H86.0229C86.5785 32.5355 87.5087 32.6347 87.5087 33.9046C87.5087 35.1126 86.6472 35.317 85.8293 35.317Z" fill="#005BAA"/>
<path d="M96.3428 31.5877H103.054V32.5665H100.257V39.7835H99.1397V32.5665H96.3428V31.5877Z" fill="#005BAA"/>
<path d="M112.718 31.5877H111.6V34.9763H107.286V31.5877H106.169V39.7835H107.286V35.9613H111.6V39.7835H112.718V31.5877Z" fill="#005BAA"/>
<path d="M122.75 39.7835H116.651V31.5877H122.669V32.5665H117.768V35.0816H122.288V36.0604H117.768V38.7985H122.75V39.7835Z" fill="#005BAA"/>
<path d="M132.552 39.7835H133.726L135.636 32.9878H135.661L137.547 39.7835H138.72L140.893 31.5877H139.663L138.121 38.2534H138.096L136.242 31.5877H135.025L133.17 38.2534H133.152L131.61 31.5877H130.398L132.552 39.7835Z" fill="#005BAA"/>
<path fill-rule="evenodd" clip-rule="evenodd" d="M154.952 39.7835H156.076V36.271H158.779C160.115 36.271 160.253 37.0578 160.253 37.733C160.253 38.0427 160.284 39.2879 160.446 39.7897H161.813V39.61C161.47 39.4118 161.414 39.2445 161.401 38.7861L161.333 37.2994C161.283 36.1595 160.815 35.9489 160.34 35.7569C160.865 35.4471 161.489 35.0011 161.489 33.7931C161.489 32.0523 160.128 31.5877 158.773 31.5877H154.952V39.7835ZM158.661 35.317H156.07V32.5355H158.854C159.41 32.5355 160.34 32.6347 160.34 33.9046C160.34 35.1126 159.479 35.317 158.661 35.317Z" fill="#005BAA"/>
<path d="M166.308 38.7985H170.497V39.7835H165.191V31.5877H166.308V38.7985Z" fill="#005BAA"/>
<path fill-rule="evenodd" clip-rule="evenodd" d="M177.065 31.5877H173.719V39.7835H177.021C179.737 39.7835 180.542 37.4109 180.542 35.571C180.542 33.2108 179.219 31.5877 177.065 31.5877ZM176.99 38.8357H174.824V32.5355H176.909C178.426 32.5355 179.381 33.5701 179.381 35.6391C179.381 37.7082 178.438 38.8357 176.99 38.8357Z" fill="#005BAA"/>
</g>
<defs>
<clipPath id="clip0">
<rect width="185" height="40" fill="white"/>
</clipPath>
</defs>
</svg>
