<?xml version="1.0" encoding="UTF-8" standalone="no"?>
<!-- Created with Inkscape (http://www.inkscape.org/) -->

<svg
   xmlns:dc="http://purl.org/dc/elements/1.1/"
   xmlns:cc="http://creativecommons.org/ns#"
   xmlns:rdf="http://www.w3.org/1999/02/22-rdf-syntax-ns#"
   xmlns:svg="http://www.w3.org/2000/svg"
   xmlns="http://www.w3.org/2000/svg"
   xmlns:sodipodi="http://sodipodi.sourceforge.net/DTD/sodipodi-0.dtd"
   xmlns:inkscape="http://www.inkscape.org/namespaces/inkscape"
   id="svg2"
   sodipodi:version="0.32"
   inkscape:version="0.48.1 "
   width="295.5759"
   height="83.407166"
   xml:space="preserve"
   sodipodi:docname="AJAX.svg"
   version="1.0"
   inkscape:output_extension="org.inkscape.output.svg.inkscape"><metadata
     id="metadata7"><rdf:RDF><cc:Work
         rdf:about=""><dc:format>image/svg+xml</dc:format><dc:type
           rdf:resource="http://purl.org/dc/dcmitype/StillImage" /></cc:Work></rdf:RDF></metadata><defs
     id="defs5"><inkscape:perspective
       sodipodi:type="inkscape:persp3d"
       inkscape:vp_x="0 : 526.18109 : 1"
       inkscape:vp_y="0 : 1000 : 0"
       inkscape:vp_z="744.09448 : 526.18109 : 1"
       inkscape:persp3d-origin="372.04724 : 350.78739 : 1"
       id="perspective9" /><clipPath
       clipPathUnits="userSpaceOnUse"
       id="clipPath99"><path
         d="m 0,0 595.276,0 0,841.89 L 0,841.89 0,0 z"
         id="path101"
         inkscape:connector-curvature="0" /></clipPath><clipPath
       clipPathUnits="userSpaceOnUse"
       id="clipPath253"><path
         d="m 0,0 595.276,0 0,841.89 L 0,841.89 0,0 z"
         id="path255"
         inkscape:connector-curvature="0" /></clipPath><clipPath
       clipPathUnits="userSpaceOnUse"
       id="clipPath345"><path
         d="m 0,0 595.276,0 0,841.89 L 0,841.89 0,0 z"
         id="path347"
         inkscape:connector-curvature="0" /></clipPath></defs><sodipodi:namedview
     inkscape:window-height="750"
     inkscape:window-width="1280"
     inkscape:pageshadow="2"
     inkscape:pageopacity="0.0"
     guidetolerance="10.0"
     gridtolerance="10.0"
     objecttolerance="10.0"
     borderopacity="1.0"
     bordercolor="#666666"
     pagecolor="#ffffff"
     id="base"
     showgrid="false"
     inkscape:zoom="2.483428"
     inkscape:cx="148.87599"
     inkscape:cy="48.980558"
     inkscape:window-x="-8"
     inkscape:window-y="-8"
     inkscape:current-layer="g11"
     fit-margin-top="0"
     fit-margin-left="0"
     fit-margin-right="0"
     fit-margin-bottom="0"
     inkscape:window-maximized="0" /><g
     id="g11"
     inkscape:groupmode="layer"
     inkscape:label="bookingguide"
     transform="matrix(1.25,0,0,-1.25,-233.49635,650.19761)"><g
       id="g2901"
       transform="matrix(1.6346852,0,0,1.6346852,-480.32465,383.92554)"><g
         transform="translate(434.6456,47.0897)"
         id="g103"><path
           id="path105"
           style="fill:#505967;fill-opacity:1;fill-rule:nonzero;stroke:none"
           d="m 0,0 c -0.309,-0.021 -0.609,-0.04 -0.919,-0.04 -0.35,0 -0.689,0.03 -1.039,0.04 L -0.939,2.457 0,0 z m 1.129,-2.787 c 0.18,0.01 0.46,0.059 0.739,0.059 0.28,0 0.63,-0.049 0.78,-0.059 -0.45,0.969 -1.11,2.478 -1.489,3.347 -0.36,0.838 -0.959,2.237 -1.438,3.606 -0.11,-0.03 -0.211,-0.051 -0.32,-0.051 -0.12,0 -0.22,0.021 -0.33,0.051 -0.239,-0.819 -0.82,-2.118 -1.828,-4.377 l -1.159,-2.576 c 0.139,0.02 0.28,0.059 0.449,0.059 0.16,0 0.351,-0.039 0.48,-0.059 0.159,0.569 0.479,1.399 0.798,2.167 0.4,0.021 0.8,0.04 1.199,0.04 0.43,0 0.85,-0.019 1.281,-0.04 l 0.418,-1.059 0.42,-1.108 z"
           inkscape:connector-curvature="0" /></g><g
         transform="translate(438.1694,48.8478)"
         id="g107"><path
           id="path109"
           style="fill:#505967;fill-opacity:1;fill-rule:nonzero;stroke:none"
           d="m 0,0 c 0,-1.708 0,-3.357 -0.11,-4.545 0.221,0.009 0.5,0.059 0.719,0.059 0.23,0 0.47,-0.05 0.7,-0.059 -0.08,0.809 -0.1,1.888 -0.1,3.376 0,1.01 0,2.737 0.11,3.477 C 1.079,2.278 0.83,2.247 0.609,2.247 0.46,2.247 0.089,2.287 -0.1,2.308 0,1.34 0,0.63 0,0"
           inkscape:connector-curvature="0" /></g><g
         transform="translate(444.1109,47.6989)"
         id="g111"><path
           id="path113"
           style="fill:#505967;fill-opacity:1;fill-rule:nonzero;stroke:none"
           d="m 0,0 c 0.91,0.17 1.739,0.74 1.739,1.848 0,0.42 -0.16,0.83 -0.459,1.12 -0.429,0.409 -0.92,0.489 -1.569,0.489 -0.23,0 -1.389,-0.05 -1.648,-0.05 -0.51,0 -0.77,0.029 -0.999,0.05 0.069,-1.289 0.069,-1.429 0.069,-2.738 0,-1.927 -0.01,-2.147 -0.089,-4.115 0.22,0.029 0.46,0.059 0.688,0.059 0.251,0 0.47,-0.039 0.67,-0.059 0,0.259 -0.04,1.548 -0.04,1.838 l 0,1.418 0.24,0 c 0.54,-0.759 1.158,-1.638 1.668,-2.428 0.15,-0.229 0.37,-0.599 0.52,-0.828 0.3,0.04 0.42,0.059 0.81,0.059 0.359,0 0.609,-0.03 0.888,-0.059 -0.629,0.788 -0.9,1.138 -1.688,2.247 -0.15,0.21 -0.37,0.54 -0.52,0.749 L 0,0 z m -1.638,2.917 c 0.15,0.011 0.52,0.051 0.71,0.051 0.329,0 0.66,-0.051 0.928,-0.251 C 0.35,2.458 0.42,2.098 0.42,1.678 0.42,1.03 0.051,0.299 -0.948,0.299 c -0.26,0 -0.5,0.021 -0.69,0.031 l 0,2.587 z"
           inkscape:connector-curvature="0" /></g><g
         transform="translate(449.3145,46.6396)"
         id="g115"><path
           id="path117"
           style="fill:#505967;fill-opacity:1;fill-rule:nonzero;stroke:none"
           d="m 0,0 c -0.468,1.389 -1.118,3.337 -1.428,4.516 -0.25,-0.04 -0.469,-0.06 -0.699,-0.06 -0.24,0 -0.58,0.039 -0.78,0.06 0.41,-1.079 0.759,-2.037 1.03,-2.797 0.46,-1.299 0.759,-2.199 1.119,-3.296 l 0.249,-0.76 c 0.14,0.029 0.299,0.059 0.41,0.059 0.11,0 0.21,-0.019 0.379,-0.059 0.16,0.519 0.35,1.158 0.491,1.568 C 1.159,0.37 1.21,0.53 1.72,1.948 l 0.299,0.829 c 0.11,-0.319 0.3,-0.829 0.409,-1.148 0.11,-0.31 0.62,-1.839 0.74,-2.179 0.16,-0.449 0.199,-0.578 0.569,-1.787 0.09,0.01 0.279,0.059 0.43,0.059 0.14,0 0.249,-0.03 0.399,-0.059 0.38,1.188 0.42,1.308 0.979,2.907 0.55,1.559 0.889,2.447 1.488,3.946 -0.15,-0.04 -0.298,-0.06 -0.449,-0.06 -0.19,0 -0.349,0.03 -0.459,0.06 C 5.765,3.217 5.586,2.587 5.296,1.729 4.826,0.331 4.766,0.171 4.477,-0.589 4.157,0.27 3.847,1.14 3.557,2.018 3.398,2.498 2.787,4.495 2.778,4.516 2.639,4.486 2.538,4.456 2.338,4.456 2.16,4.456 2.028,4.495 1.899,4.516 1.599,3.297 0.54,0.36 0.44,0.09 L 0.19,-0.559 0,0 z"
           inkscape:connector-curvature="0" /></g><g
         transform="translate(459.3955,47.0897)"
         id="g119"><path
           id="path121"
           style="fill:#505967;fill-opacity:1;fill-rule:nonzero;stroke:none"
           d="m 0,0 c -0.31,-0.021 -0.609,-0.04 -0.92,-0.04 -0.349,0 -0.689,0.03 -1.038,0.04 L -0.94,2.457 0,0 z m 1.128,-2.787 c 0.181,0.01 0.461,0.059 0.74,0.059 0.28,0 0.63,-0.049 0.779,-0.059 C 2.198,-1.818 1.538,-0.309 1.158,0.56 0.798,1.398 0.199,2.797 -0.28,4.166 -0.39,4.136 -0.49,4.115 -0.6,4.115 c -0.119,0 -0.22,0.021 -0.33,0.051 -0.239,-0.819 -0.819,-2.118 -1.828,-4.377 l -1.159,-2.576 c 0.141,0.02 0.28,0.059 0.45,0.059 0.16,0 0.349,-0.039 0.48,-0.059 0.159,0.569 0.48,1.399 0.799,2.167 0.399,0.021 0.799,0.04 1.198,0.04 0.43,0 0.849,-0.019 1.279,-0.04 l 0.42,-1.059 0.419,-1.108 z"
           inkscape:connector-curvature="0" /></g><g
         transform="translate(464.7174,46.9798)"
         id="g123"><path
           id="path125"
           style="fill:#505967;fill-opacity:1;fill-rule:nonzero;stroke:none"
           d="M 0,0 C 0,0.089 0.06,0.199 0.13,0.32 0.55,1.039 0.939,1.789 1.389,2.508 1.538,2.748 2.268,3.906 2.419,4.176 2.308,4.136 2.198,4.115 1.999,4.115 1.778,4.115 1.578,4.146 1.418,4.176 0.699,2.597 0.539,2.258 -0.309,0.799 -1.158,2.287 -1.538,3.076 -2.058,4.176 -2.347,4.126 -2.638,4.115 -2.877,4.115 c -0.22,0 -0.45,0.021 -0.819,0.061 0.519,-0.869 1.369,-2.248 1.878,-3.127 L -1.229,0.03 c 0,-0.62 -0.03,-1.928 -0.059,-2.707 0.189,0.02 0.469,0.059 0.668,0.059 0.23,0 0.461,-0.039 0.691,-0.059 C 0.03,-1.748 0,-1.209 0,-0.369 L 0,0 z"
           inkscape:connector-curvature="0" /></g><g
         transform="translate(467.7119,45.8003)"
         id="g127"><path
           id="path129"
           style="fill:#505967;fill-opacity:1;fill-rule:nonzero;stroke:none"
           d="m 0,0 c -0.049,-0.479 -0.06,-0.609 -0.23,-1.128 0.36,-0.18 1.01,-0.51 1.868,-0.51 1.829,0 2.538,1.168 2.538,2.188 0,0.28 -0.07,0.87 -0.489,1.319 -0.29,0.32 -0.59,0.429 -1.359,0.729 -0.878,0.34 -1.389,0.54 -1.389,1.269 0,0.589 0.39,1.079 1.179,1.079 0.629,0 1.16,-0.3 1.309,-0.869 l 0.14,0 c 0.09,0.379 0.11,0.459 0.31,0.949 -0.49,0.219 -0.93,0.409 -1.659,0.409 -1.809,0 -2.328,-1.119 -2.328,-1.997 0,-0.83 0.291,-1.34 1.259,-1.769 0.279,-0.12 0.75,-0.299 1.029,-0.42 0.19,-0.079 0.82,-0.358 0.82,-1.148 0,-0.72 -0.521,-1.25 -1.309,-1.25 -0.59,0 -1.09,0.15 -1.549,1.149 L 0,0 z"
           inkscape:connector-curvature="0" /></g><g
         transform="translate(412.2101,64.2639)"
         id="g131"><path
           id="path133"
           style="fill:#5c0632;fill-opacity:1;fill-rule:nonzero;stroke:none"
           d="m 0,0 c 0,7.552 4.046,9.591 7.104,9.591 4.915,0 7.043,-4.077 7.043,-8.423 0,-2.487 -0.3,-4.825 -1.529,-6.714 C 11.389,-7.433 9.352,-8.573 7.133,-8.573 1.589,-8.573 0,-3.297 0,0 m 14.926,-15.437 c 0.899,0.63 2.308,1.409 3.327,1.859 l -6.773,4.197 c 4.165,1.468 6.773,5.185 6.773,10.25 0,7.192 -5.485,10.25 -11.09,10.25 -6.053,0 -11.269,-3.357 -11.269,-10.97 0,-1.617 0.36,-4.675 2.877,-7.223 2.608,-2.638 5.695,-3.027 8.303,-3.027 0.329,0 0.658,0 0.989,0.029 l 6.863,-5.365 z"
           inkscape:connector-curvature="0" /></g><g
         transform="translate(444.4453,62.9446)"
         id="g135"><path
           id="path137"
           style="fill:#5c0632;fill-opacity:1;fill-rule:nonzero;stroke:none"
           d="m 0,0 c -0.93,-0.061 -1.828,-0.121 -2.759,-0.121 -1.048,0 -2.067,0.091 -3.115,0.121 L -2.817,7.373 0,0 z m 3.387,-8.362 c 0.539,0.03 1.379,0.18 2.217,0.18 0.841,0 1.888,-0.15 2.339,-0.18 -1.349,2.907 -3.327,7.433 -4.467,10.041 -1.079,2.517 -2.877,6.714 -4.315,10.82 -0.33,-0.091 -0.63,-0.151 -0.959,-0.151 -0.36,0 -0.66,0.06 -0.989,0.151 -0.72,-2.459 -2.458,-6.355 -5.485,-13.128 l -3.478,-7.733 c 0.42,0.059 0.84,0.18 1.349,0.18 0.479,0 1.05,-0.121 1.439,-0.18 0.479,1.709 1.44,4.196 2.398,6.504 1.198,0.059 2.397,0.119 3.596,0.119 1.289,0 2.548,-0.06 3.838,-0.119 l 1.257,-3.178 1.26,-3.326 z"
           inkscape:connector-curvature="0" /></g><g
         transform="translate(461.1321,69.7778)"
         id="g139"><path
           id="path141"
           style="fill:#5c0632;fill-opacity:1;fill-rule:nonzero;stroke:none"
           d="m 0,0 c 0,1.139 0.029,2.278 0.059,3.358 2.068,0 4.197,-0.031 5.965,-0.21 -0.09,0.479 -0.15,0.748 -0.15,1.078 0,0.24 0.06,0.631 0.15,1.139 C 3.147,5.216 0.509,5.186 -1.979,5.186 c -2.308,0 -5.635,0.03 -8.003,0.179 0.091,-0.36 0.15,-0.749 0.15,-1.109 0,-0.36 -0.059,-0.749 -0.15,-1.108 1.53,0.149 4.407,0.21 4.676,0.21 l 1.499,0 c 0.03,-1.17 0.06,-2.219 0.06,-3.328 l 0.03,-8.361 c 0,-2.279 -0.179,-4.587 -0.3,-6.864 1.079,0.119 1.529,0.179 2.038,0.179 0.36,0 1.319,-0.09 2.189,-0.179 C 0.119,-14.357 0,-13.367 0,-11.09 L 0,0 z"
           inkscape:connector-curvature="0" /></g><g
         transform="translate(477.8145,62.9446)"
         id="g143"><path
           id="path145"
           style="fill:#5c0632;fill-opacity:1;fill-rule:nonzero;stroke:none"
           d="m 0,0 c -0.929,-0.061 -1.828,-0.121 -2.757,-0.121 -1.05,0 -2.068,0.091 -3.118,0.121 L -2.817,7.373 0,0 z m 3.387,-8.362 c 0.539,0.03 1.379,0.18 2.218,0.18 0.839,0 1.888,-0.15 2.338,-0.18 -1.349,2.907 -3.327,7.433 -4.466,10.041 -1.079,2.517 -2.878,6.714 -4.316,10.82 -0.33,-0.091 -0.63,-0.151 -0.959,-0.151 -0.36,0 -0.66,0.06 -0.99,0.151 C -3.506,10.04 -5.245,6.144 -8.273,-0.629 l -3.476,-7.733 c 0.419,0.059 0.84,0.18 1.349,0.18 0.479,0 1.048,-0.121 1.439,-0.18 0.48,1.709 1.438,4.196 2.397,6.504 1.198,0.059 2.397,0.119 3.597,0.119 1.289,0 2.548,-0.06 3.836,-0.119 l 1.259,-3.178 1.259,-3.326 z"
           inkscape:connector-curvature="0" /></g><g
         transform="translate(497.8285,64.7717)"
         id="g147"><path
           id="path149"
           style="fill:#5c0632;fill-opacity:1;fill-rule:nonzero;stroke:none"
           d="m 0,0 c 2.727,0.51 5.215,2.218 5.215,5.546 0,1.259 -0.48,2.488 -1.38,3.356 -1.288,1.229 -2.757,1.469 -4.705,1.469 -0.69,0 -4.166,-0.149 -4.946,-0.149 -1.529,0 -2.308,0.09 -2.996,0.149 0.209,-3.866 0.209,-4.285 0.209,-8.211 0,-5.786 -0.03,-6.444 -0.269,-12.349 0.659,0.089 1.378,0.18 2.067,0.18 0.749,0 1.409,-0.121 2.008,-0.18 0,0.78 -0.119,4.645 -0.119,5.515 l 0,4.256 0.72,0 c 1.618,-2.278 3.477,-4.916 5.005,-7.284 0.449,-0.69 1.108,-1.799 1.557,-2.487 0.9,0.119 1.26,0.18 2.428,0.18 1.079,0 1.829,-0.091 2.668,-0.18 -1.888,2.367 -2.696,3.416 -5.065,6.743 -0.45,0.63 -1.109,1.619 -1.559,2.248 L 0,0 z m -4.916,8.753 c 0.449,0.029 1.558,0.149 2.128,0.149 C -1.799,8.902 -0.811,8.753 0,8.154 1.048,7.374 1.258,6.296 1.258,5.036 1.258,3.088 0.149,0.9 -2.848,0.9 c -0.78,0 -1.499,0.061 -2.068,0.089 l 0,7.764 z"
           inkscape:connector-curvature="0" /></g><g
         transform="translate(542.6324,64.7148)"
         id="g151"><path
           id="path153"
           style="fill:#747f8a;fill-opacity:1;fill-rule:nonzero;stroke:none"
           d="M 0,0 C 0,-0.193 -2.713,-0.374 -6.586,-0.526 -7.27,-0.138 -7.789,0.252 -8.169,0.588 -3.472,0.422 0,0.217 0,0"
           inkscape:connector-curvature="0" /></g><g
         transform="translate(539.8502,71.2535)"
         id="g155"><path
           id="path157"
           style="fill:#747f8a;fill-opacity:1;fill-rule:nonzero;stroke:none"
           d="m 0,0 c 0,-0.161 -2.274,-0.312 -5.525,-0.442 0.466,0.272 0.946,0.546 1.45,0.821 C -1.619,0.266 0,0.135 0,0"
           inkscape:connector-curvature="0" /></g><g
         transform="translate(515.6267,57.1865)"
         id="g159"><path
           id="path161"
           style="fill:#747f8a;fill-opacity:1;fill-rule:nonzero;stroke:none"
           d="m 0,0 c -1.505,-0.018 -2.825,-0.025 -3.856,-0.025 -1.484,0 -2.686,0.457 -2.686,1.024 0,0.564 1.202,1.021 2.686,1.021 1.314,0 3.094,-0.014 5.136,-0.04 C 0.49,0.84 0.115,0.155 0.08,0.112 0.057,0.079 0.028,0.04 0,0"
           inkscape:connector-curvature="0" /></g><g
         transform="translate(516.4374,55.817)"
         id="g163"><path
           id="path165"
           style="fill:#747f8a;fill-opacity:1;fill-rule:nonzero;stroke:none"
           d="m 0,0 c 0.496,-0.599 0.972,-1.103 1.609,-1.654 0,0 0.24,-0.343 0.969,-0.049 0.742,0.302 1.371,0.713 2.08,1.664 2.07,-0.035 4.265,-0.081 6.426,-0.13 0.178,-0.259 0.539,-0.795 0.984,-1.456 -6.024,-0.156 -12.562,-0.249 -15.911,-0.249 -1.395,0 -2.527,0.433 -2.527,0.963 0,0.533 1.132,0.963 2.527,0.963 1.02,0 2.334,-0.007 3.838,-0.024 C -0.006,0.014 0,0 0,0"
           inkscape:connector-curvature="0" /></g><g
         transform="translate(514.1071,50.7933)"
         id="g167"><path
           id="path169"
           style="fill:#747f8a;fill-opacity:1;fill-rule:nonzero;stroke:none"
           d="m 0,0 c -1.238,0 -2.241,0.381 -2.241,0.851 0,0.471 1.003,0.853 2.241,0.853 3.275,0 9.989,-0.1 15.739,-0.263 C 16.016,1.044 16.293,0.649 16.556,0.286 10.636,0.112 3.43,0 0,0"
           inkscape:connector-curvature="0" /></g><g
         transform="translate(533.2043,48.0615)"
         id="g171"><path
           id="path173"
           style="fill:#747f8a;fill-opacity:1;fill-rule:nonzero;stroke:none"
           d="m 0,0 c -4.829,-0.212 -13.132,-0.354 -16.582,-0.354 -0.971,0 -1.76,0.303 -1.76,0.67 0,0.37 0.789,0.671 1.76,0.671 3.3,0 11.05,-0.13 15.941,-0.325 C -0.42,0.425 -0.204,0.202 0,0"
           inkscape:connector-curvature="0" /></g><g
         transform="translate(520.606,46.2503)"
         id="g175"><path
           id="path177"
           style="fill:#747f8a;fill-opacity:1;fill-rule:nonzero;stroke:none"
           d="m 0,0 c 2.849,0 11.522,-0.215 11.522,-0.475 0,-0.264 -8.674,-0.477 -11.522,-0.477 -0.555,0 -1.004,0.213 -1.004,0.477 C -1.004,-0.215 -0.555,0 0,0"
           inkscape:connector-curvature="0" /></g><g
         transform="translate(520.6375,63.7869)"
         id="g179"><path
           id="path181"
           style="fill:#747f8a;fill-opacity:1;fill-rule:nonzero;stroke:none"
           d="m 0,0 c -3.586,-0.061 -6.799,-0.095 -8.867,-0.095 -1.483,0 -2.686,0.457 -2.686,1.023 0,0.565 1.203,1.024 2.686,1.024 2.402,0 6.349,-0.046 10.628,-0.127 C 1.125,1.196 0.537,0.584 0,0"
           inkscape:connector-curvature="0" /></g><g
         transform="translate(538.2264,68.3606)"
         id="g183"><path
           id="path185"
           style="fill:#747f8a;fill-opacity:1;fill-rule:nonzero;stroke:none"
           d="m 0,0 c 2.101,-0.114 3.423,-0.239 3.423,-0.369 0,-0.143 -1.6,-0.28 -4.076,-0.402 C -0.124,-0.373 -0.008,-0.026 0,0"
           inkscape:connector-curvature="0" /></g><g
         transform="translate(512.5949,67.0302)"
         id="g187"><path
           id="path189"
           style="fill:#747f8a;fill-opacity:1;fill-rule:nonzero;stroke:none"
           d="m 0,0 c -1.396,0 -2.528,0.43 -2.528,0.962 0,0.531 1.132,0.963 2.528,0.963 2.863,0 8.056,-0.07 13.265,-0.185 C 12.626,1.201 12.02,0.668 11.448,0.145 6.876,0.053 2.53,0 0,0"
           inkscape:connector-curvature="0" /></g><g
         transform="translate(528.1628,70.6191)"
         id="g191"><path
           id="path193"
           style="fill:#747f8a;fill-opacity:1;fill-rule:nonzero;stroke:none"
           d="m 0,0 c -5.326,-0.135 -11.096,-0.218 -14.056,-0.218 -1.238,0 -2.24,0.381 -2.24,0.852 0,0.471 1.002,0.854 2.24,0.854 3.267,0 9.965,-0.102 15.707,-0.264 C 1.365,1.016 1.077,0.808 0.785,0.59 0.519,0.392 0.257,0.197 0,0"
           inkscape:connector-curvature="0" /></g><g
         transform="translate(516.6219,73.8511)"
         id="g195"><path
           id="path197"
           style="fill:#747f8a;fill-opacity:1;fill-rule:nonzero;stroke:none"
           d="m 0,0 c -0.971,0 -1.76,0.299 -1.76,0.67 0,0.37 0.789,0.671 1.76,0.671 3.663,0 12.799,-0.162 17.439,-0.393 C 17.143,0.754 16.847,0.553 16.548,0.351 11.712,0.142 3.443,0 0,0"
           inkscape:connector-curvature="0" /></g><g
         transform="translate(511.4938,60.4085)"
         id="g199"><path
           id="path201"
           style="fill:#747f8a;fill-opacity:1;fill-rule:nonzero;stroke:none"
           d="m 0,0 c -1.51,0 -2.736,0.465 -2.736,1.042 0,0.573 1.226,1.04 2.736,1.04 1.893,0 4.726,-0.028 7.93,-0.077 C 7.328,1.297 6.805,0.641 6.357,0.053 3.806,0.019 1.576,0 0,0"
           inkscape:connector-curvature="0" /></g><g
         transform="translate(519.6024,77.1242)"
         id="g203"><path
           id="path205"
           style="fill:#747f8a;fill-opacity:1;fill-rule:nonzero;stroke:none"
           d="M 0,0 C 0,0.263 0.449,0.476 1.004,0.476 3.852,0.476 12.526,0.263 12.526,0 12.526,-0.261 3.853,-0.475 1.004,-0.475 0.449,-0.475 0,-0.261 0,0"
           inkscape:connector-curvature="0" /></g><g
         transform="translate(542.9166,62.2206)"
         id="g207"><path
           id="path209"
           style="fill:#5c0632;fill-opacity:1;fill-rule:nonzero;stroke:none"
           d="m 0,0 c 0.02,-0.519 0.017,-1.034 -0.009,-1.539 -5.046,-0.2 -9.831,-0.504 -9.831,-0.846 0,-0.336 4.678,-0.637 9.666,-0.836 -0.088,-0.576 -0.201,-1.141 -0.339,-1.695 -4.917,-0.201 -9.48,-0.497 -9.48,-0.83 0,-0.321 4.26,-0.61 8.977,-0.811 -0.216,-0.602 -0.461,-1.187 -0.736,-1.747 -4.051,-0.195 -7.399,-0.455 -7.399,-0.739 0,-0.265 2.925,-0.51 6.612,-0.699 -0.207,-0.337 -0.423,-0.667 -0.649,-0.979 -0.24,-0.34 -0.501,-0.677 -0.777,-1.008 -2.305,-0.175 -3.887,-0.374 -3.887,-0.587 0,-0.183 1.133,-0.354 2.879,-0.507 -0.953,-0.943 -2.079,-1.824 -3.406,-2.593 0,0 -1.563,1.346 -2.853,2.918 -1.15,1.402 -3.59,5.098 -4.164,5.925 -0.575,0.827 -0.953,1.069 -1.625,0.829 -0.901,-0.319 -1.948,-0.479 -2.27,-0.479 -0.322,0 -0.499,0.125 0.041,0.339 0.538,0.217 2.665,1.221 3.712,3.296 1.176,2.337 0.142,5.564 0.142,5.564 -0.395,-1.725 -1.293,-2.369 -1.293,-2.369 0.29,1.602 -0.026,3.054 -0.817,4.073 l -0.441,-2.028 c 0,0 -0.276,0.014 -0.959,-0.56 -0.682,-0.575 -0.87,-1.413 -0.87,-1.413 0.537,-0.216 1.183,0.323 1.183,0.323 -0.825,-3.087 -2.008,-5.6 -2.871,-6.929 -0.862,-1.329 -1.573,-1.83 -2.437,-2.181 -0.729,-0.292 -0.969,0.051 -0.969,0.051 -0.637,0.55 -1.113,1.054 -1.609,1.653 0,0 -0.04,0.07 0.094,0.068 0.355,-0.005 0.987,0.602 1.125,0.854 0.158,0.289 0.141,0.51 0.062,0.525 -0.078,0.013 -0.213,-0.216 -0.898,-0.648 -0.681,-0.431 -0.994,-0.132 -1.221,0.108 -0.176,0.191 -0.003,0.427 0.107,0.575 0.104,0.132 3.707,6.851 13.241,13.91 12.494,9.251 20.473,11.749 20.93,11.929 0.302,0.119 0.795,0.276 0.907,0.161 0.124,-0.13 0.185,-0.234 0.168,-0.385 C 8.02,20.543 7.94,20.466 7.362,20.211 2.566,18.098 -3.033,14.576 -6.214,12.526 c -3.912,-1.906 -7.647,-4.628 -7.783,-4.693 -0.301,-0.187 -0.079,-0.459 0.103,-0.345 6.606,4.394 14.351,7.387 22.91,9.839 0.409,0.116 0.633,0.116 0.701,0.026 0.077,-0.1 0.11,-0.214 0.122,-0.34 C 9.85,16.856 9.72,16.773 9.369,16.636 0.174,13.22 -6.603,10.047 -10.962,7.114 c 0,0 -0.451,-0.272 -0.457,-0.587 -0.002,-0.12 0.242,-0.134 0.242,-0.134 2.182,-0.039 5.099,-0.167 6.487,-0.248 0,0 -0.198,-0.703 -1.527,-1.269 C -7.243,4.438 -8.193,4.508 -9.133,4.5 -9.342,4.504 -9.519,4.293 -9.352,4.068 -9.268,3.956 -7.268,0.736 0,0"
           inkscape:connector-curvature="0" /></g><g
         transform="translate(476.2855,45.382)"
         id="g211"><path
           id="path213"
           style="fill:#5c0632;fill-opacity:1;fill-rule:nonzero;stroke:none"
           d="m 0,0 -1.232,0 c 0,0 -0.166,0.758 0.28,1.048 C -0.504,1.342 0,1.568 0,1.568 L 0,0 z m 5.846,2.838 c 0,0 -0.749,-0.43 -1.223,-0.852 C 4.152,1.568 4.72,1.409 4.72,1.409 L 4.72,0 1.145,0 l 0,4.931 c 0,0 -1.303,-1.198 -1.425,-1.357 C -0.406,3.404 0.03,3.25 0.03,3.25 L -0.044,2.783 c 0,0 -0.519,-0.269 -1.149,-0.695 -0.626,-0.421 -1.09,-0.958 -1.09,-1.33 0,-0.373 -0.158,-1.837 -0.158,-1.837 l 8.287,0 0,3.917 z m -7.401,1.803 c 0.408,0 0.696,0.161 0.696,0.486 0,0.326 -0.191,0.553 -0.696,0.553 -0.449,0 -0.569,-0.196 -0.569,-0.553 0,-0.36 0.156,-0.486 0.569,-0.486 m 1.524,0 c 0.412,0 0.691,0.161 0.691,0.486 0,0.326 -0.189,0.553 -0.691,0.553 -0.451,0 -0.569,-0.196 -0.569,-0.553 0,-0.36 0.155,-0.486 0.569,-0.486 m 2.309,-6.144 c -0.446,0 -0.569,-0.191 -0.569,-0.55 0,-0.356 0.158,-0.486 0.569,-0.486 0.408,0 0.697,0.162 0.697,0.486 0,0.327 -0.188,0.55 -0.697,0.55 m 1.584,0 c -0.446,0 -0.568,-0.191 -0.568,-0.55 0,-0.356 0.162,-0.486 0.568,-0.486 0.414,0 0.698,0.162 0.698,0.486 0,0.327 -0.187,0.55 -0.698,0.55 m 17.857,6.241 c 0.411,0 0.699,0.157 0.699,0.482 0,0.323 -0.19,0.554 -0.699,0.554 -0.445,0 -0.566,-0.196 -0.566,-0.554 0,-0.358 0.159,-0.482 0.566,-0.482 m 1.583,0 c 0.408,0 0.694,0.157 0.694,0.482 0,0.323 -0.19,0.554 -0.694,0.554 -0.448,0 -0.567,-0.196 -0.567,-0.554 0,-0.358 0.153,-0.482 0.567,-0.482 m 4.37,-0.134 C 27.449,4.411 27.514,4.18 27.797,4.212 l 0,-5.298 1.174,0 0,6.595 c 0,0 -1.08,-0.713 -1.299,-0.905 m -4.718,-2.971 -0.76,0 c 0,0.417 0.76,0.648 0.76,0.648 l 0,-0.648 z M 17.951,0.758 C 17.951,0.566 17.942,0.253 17.933,0 l -6.633,0 0,1.166 c 0.173,0.449 0.465,0.501 0.917,0.501 l 4.849,0 c 1.047,0 0.885,-0.551 0.885,-0.909 m 7.757,3.46 0,-4.218 -1.579,0 0,3.83 c 0,0 -0.323,-0.124 -0.766,-0.32 C 22.924,3.311 21.336,2.666 21.336,1.794 l 0,-1.008 1.618,0 0,-0.786 -3.838,0 c 0.003,0.185 0.007,0.457 0.007,0.856 0,1.257 -1.071,1.941 -2.024,1.941 l -4.437,0 C 11.885,2.797 11.51,2.609 11.3,2.394 l 0,3.247 c 0,0 -0.693,-0.487 -1.202,-0.874 -0.508,-0.387 0,-0.647 0,-0.647 L 10.098,0 8.644,0 8.613,3.536 c 0,0 -1.012,-0.739 -1.302,-0.964 C 7.028,2.348 7.185,2.148 7.502,2.148 c 0,0 -0.058,-2.611 -0.058,-3.227 0,-0.62 -0.513,-1.328 -1.59,-1.006 0,0 -0.342,-0.066 -0.058,-0.324 0.283,-0.257 0.625,-0.453 1.008,-0.453 0.381,0 1.777,0.263 1.777,1.783 l 18.297,0 0,6.592 c 0,0 -1.077,-0.711 -1.299,-0.904 -0.223,-0.193 -0.158,-0.425 0.129,-0.391"
           inkscape:connector-curvature="0" /></g></g></g></svg>