<?xml version="1.0"?>
<svg xmlns="http://www.w3.org/2000/svg" xmlns:xlink="http://www.w3.org/1999/xlink" x="0px" y="0px" viewBox="0 0 594.6 83.1"
	 style="enable-background:new 0 0 594.6 83.1;" xml:space="preserve">
<style type="text/css">
	.st0{fill:#CC1719;}
</style>
			<path class="st0" d="M162.5,21c-0.2,0-0.3,0.1-0.4,0.1c0,0,0,0,0,0c-16.8,0.7-18.5,10.5-19,17.9c-0.5,7.4-5.1,11.3-11.4,12.3
				c-0.3,0-0.4,0.2-0.7,0.2c-1.7,0.2-3.1,1.6-3.1,3.3c0,1.5,1,2.7,2.3,3.2c0.1,0.1,0.3,0.1,0.4,0.1c0.2,0.1,0.5,0.1,0.7,0.1
				c0.2,0,0.4-0.1,0.6-0.1c3.2,0.1,17.5-1.8,18.2-19.2c0-3.5,0.9-11.6,11.9-11.3c0.2,0,0.3,0,0.4,0c0,0,0,0,0.1,0c0,0,0.1,0,0.1,0
				c0.4,0,0.8-0.1,1.1-0.2c1.3-0.5,2.2-1.7,2.2-3.1C165.9,22.5,164.4,21,162.5,21z"/>
			<path class="st0" d="M236.2,52.7l-1.9-1.5l0,0l-7.7-6.5c0,0,10.1-2.1,9.6-12c0-11.2-11.4-11.9-11.4-11.9h-18.1
				c-2.3,0-3,2.2-3,2.2v31.9h0c0,1.8,1.6,3.3,3.6,3.3s3.6-1.5,3.6-3.3h0v-27h13.9c4.3,0.8,4.3,4.9,4.3,4.9s0.3,4.6-4.3,5.3h-7.2
				c-0.3-0.1-0.5-0.1-0.8-0.1c-2.1,0-3.9,1.5-3.9,3.4c0,1,0.5,1.8,1.2,2.5l0,0.1l11.5,9.3l0,0l5.3,4.4c0,0,0,0,0,0l0.8,0.7l0.1-0.1
				c0.5,0.3,1,0.4,1.6,0.4c2,0,3.6-1.5,3.6-3.5C237.1,54.1,236.7,53.4,236.2,52.7L236.2,52.7z"/>
			<path class="st0" d="M200.4,24.6c0-2-1.6-3.6-3.6-3.6c-2,0-3.6,1.6-3.6,3.6h0v17.7c0,9.1-9,9-9,9s-9.2,0-9.2-9V24.6h0
				c0-2-1.6-3.6-3.6-3.6c-2,0-3.6,1.6-3.6,3.6c0,0,0,0,0,0c0,0.1-0.2,16.9,0,17.7c0,16.6,16.6,16.6,16.6,16.6s16.2,0.1,16.2-16.6
				C200.3,25.7,200.4,24.6,200.4,24.6L200.4,24.6z"/>
			<path class="st0" d="M282.4,37.1c0-16.6-16.6-16.6-16.6-16.6s-16.2-0.1-16.2,16.6c0.2,16.6,0,17.7,0,17.7h0.1
				c0,2,1.6,3.6,3.6,3.6s3.6-1.6,3.6-3.6h0V37.1c0-9.1,9-9,9-9s9.2,0,9.2,9v17.7h0c0,2,1.6,3.6,3.6,3.6c2,0,3.6-1.6,3.6-3.6
				c0,0,0,0,0,0C282.4,54.7,282.6,37.9,282.4,37.1z"/>
			<path class="st0" d="M246.5,24.5v-0.1l0,0c-0.1-1.9-1.6-3.4-3.6-3.4c-1.9,0-3.5,1.5-3.6,3.5l0,0v0.1c0,0,0,0,0,0s0,0,0,0v30.3
				c0,0,0,0,0,0s0,0,0,0v0.5h0.1c0.3,1.7,1.7,3.1,3.5,3.1c1.8,0,3.2-1.3,3.5-3.1h0.1V24.7C246.5,24.6,246.5,24.6,246.5,24.5
				C246.5,24.6,246.5,24.5,246.5,24.5z"/>
			<path class="st0" d="M301.9,20.5c0,0-16.2-0.1-16.2,16.6c0.2,16.6,0,17.7,0,17.7h0.1c0,2,1.6,3.6,3.6,3.6c2,0,3.6-1.6,3.6-3.6h0
				V37.1c0-9.1,9-9,9-9s9.2,0,9.2,9v3.5H299v0.1c-1.9,0.1-3.3,1.7-3.3,3.6c0,1.9,1.5,3.4,3.3,3.5v0.1h12.2v7h0c0,2,1.6,3.6,3.6,3.6
				c2,0,3.6-1.6,3.6-3.6h0c0,0,0.2-16.9,0-17.7C318.5,20.4,301.9,20.5,301.9,20.5z"/>
			<path class="st0" d="M348.4,20.7c0,0-4.4,0-7.7,2.8c-3.4-2.8-7.9-2.8-7.9-2.8s-11.2,0-11.2,11.5v19.7h0v3.2h0.1
				c0.2,1.9,1.7,3.4,3.6,3.4c1.9,0,3.4-1.5,3.6-3.4h0.1v-0.3c0,0,0,0,0,0s0,0,0,0v-1h0V32.2c0-4.1,3.8-4.1,3.8-4.1s4.3-0.2,4.3,4.1
				v20.7h0V55h0.1c0.2,1.9,1.7,3.4,3.6,3.4s3.5-1.5,3.6-3.4h0.1v-1.3h0V32.2c0-4.1,3.8-4.1,3.8-4.1s4.3-0.2,4.3,4.1V52h0v2.9
				c0,0,0,0,0,0c0,2,1.6,3.6,3.6,3.6c2,0,3.6-1.6,3.6-3.6h0v-1.1h0V32.1C359.9,20.7,348.4,20.7,348.4,20.7z"/>
			<path class="st0" d="M392.5,20.2c0,0-16.2-0.1-16.2,16.6c0.2,16.6,0,17.7,0,17.7h0.1c0,2,1.6,3.6,3.6,3.6c2,0,3.6-1.6,3.6-3.6h0
				V36.8c0-9.1,9-9,9-9s9.2,0,9.2,9v3.5h-12.2v0.1c-1.9,0.1-3.3,1.7-3.3,3.6c0,1.9,1.5,3.4,3.3,3.6v0.1h12.2v7h0
				c0,2,1.6,3.6,3.6,3.6c2,0,3.6-1.6,3.6-3.6h0c0,0,0.2-16.9,0-17.7C409.1,20.1,392.5,20.2,392.5,20.2z"/>
			<path class="st0" d="M456,52.7l-1.9-1.5l0,0l-7.7-6.5c0,0,10.1-2.1,9.6-12c0-11.2-11.4-11.9-11.4-11.9h-18.1c-2.3,0-3,2.2-3,2.2
				v31.9h0c0,1.8,1.6,3.3,3.6,3.3c2,0,3.6-1.5,3.6-3.3h0v-27h13.9c4.3,0.8,4.3,4.9,4.3,4.9s0.3,4.6-4.3,5.3h-7.2
				c-0.3-0.1-0.5-0.1-0.8-0.1c-2.1,0-3.9,1.5-3.9,3.4c0,1,0.5,1.8,1.3,2.5l0,0.1l11.5,9.3l0,0l5.3,4.4c0,0,0,0,0,0l0.8,0.7l0.1-0.1
				c0.5,0.3,1,0.4,1.6,0.4c2,0,3.6-1.5,3.6-3.5C456.8,54.1,456.4,53.4,456,52.7L456,52.7z"/>
			<path class="st0" d="M419.1,24.3c0,0,0-0.1,0-0.1v-0.1l0,0c-0.1-1.9-1.6-3.4-3.5-3.4c-1.9,0-3.5,1.5-3.6,3.5l0,0v31h0.1
				c0.3,1.7,1.7,3.1,3.5,3.1c1.8,0,3.2-1.3,3.5-3.1h0.1v-0.5c0,0,0,0,0,0s0,0,0,0V24.4C419.1,24.4,419.1,24.3,419.1,24.3z"/>
			<path class="st0" d="M493.3,20.4c-1.9,0-3.4,1.5-3.6,3.3h-0.1v1.3h0v21.6c0,4.1-3.8,4.1-3.8,4.1s-4.3,0.1-4.3-4.1V25.1h0v-1.3
				h-0.1c-0.2-1.9-1.7-3.4-3.6-3.4c-1.9,0-3.5,1.5-3.6,3.4h-0.1v1.3h0v21.6c0,4.1-3.8,4.1-3.8,4.1s-4.3,0.1-4.3-4.1V26.9h0V24h0
				c0-2-1.6-3.6-3.6-3.6c-2,0-3.6,1.6-3.6,3.6h0v1.1h0v21.6c0,11.4,11.4,11.4,11.4,11.4s4.4,0,7.7-2.8c3.4,2.8,7.9,2.8,7.9,2.8
				s11.2,0,11.2-11.5V27h0v-3.2h-0.1C496.7,21.9,495.2,20.4,493.3,20.4z"/>
			<path class="st0" d="M516.4,20.2c0,0-16.2-0.1-16.2,16.6c0.2,16.6,0,17.7,0,17.7h0.1c0,2,1.6,3.6,3.6,3.6c2,0,3.6-1.6,3.6-3.6h0
				V36.8c0-9.1,9-9,9-9s9.2,0,9.2,9v3.5h-12.2v0.1c-1.9,0.1-3.4,1.7-3.4,3.6c0,1.9,1.5,3.4,3.4,3.6v0.1h12.2v7h0
				c0,2,1.6,3.6,3.6,3.6c2,0,3.6-1.6,3.6-3.6h0c0,0,0.2-16.9,0-17.7C533,20.1,516.4,20.2,516.4,20.2z"/>
			<path class="st0" d="M564.4,20.1c-2,0-3.7,1.6-3.7,3.6c0,0,0,0,0,0h0v2.7h0c-0.8,9.4-8.9,9.4-8.9,9.4s-9.2,0-9.2-10.6h0v-1.5h0
				c0,0,0,0,0,0c0-2-1.7-3.6-3.7-3.6c-2.1,0-3.7,1.6-3.7,3.6c0,0,0,0,0,0v2.6h0.1c0.5,11.8,8.2,15.5,13,16.6v11.7c0,0,0,0,0,0
				s0,0,0,0v0.2h0c0.1,1.9,1.7,3.4,3.6,3.4s3.4-1.5,3.6-3.4h0.1V43c4.6-1.1,12-4.8,12.5-16.6h0.1v-1.2c0,0,0,0,0,0h0v-1.5h0
				c0,0,0,0,0,0C568,21.7,566.4,20.1,564.4,20.1z"/>
			<path class="st0" d="M581.5,31.7c-2.2-0.2-2.1-2.6-2.1-2.6s0-2.2,2.1-2.2c1.2,0,1.9,0.3,2.3,0.9l0,0.1c0.2,0.7,0.6,1.3,1.1,1.7
				l0.1,0.1c0.6,0.4,1.3,0.6,2,0.6c1.9,0,3.4-1.5,3.4-3.3c0,0,0,0,0,0c0,0,0,0,0,0c0,0,0,0,0,0c0-0.5-0.1-1-0.3-1.4
				c-1.5-5.9-8.7-6-8.7-6s-10,0-10,9.7c0,6.7,4.6,9.4,10,10.1c6.5,0.7,5.6,6.3,5.6,6.3s0,5.5-5.6,5.5c-5.6,0-5.9-5.5-5.9-5.5l0,0
				c0,0,0,0,0-0.1c0-2.1-1.7-3.9-3.8-3.9c-2.1,0-3.8,1.7-3.8,3.9c0,0.1,0,0.1,0,0.2l0,0c0,0,0,12.8,13.4,12.8
				c13.4,0,13-12.9,13-12.9S596.2,34.1,581.5,31.7z"/>
			<path class="st0" d="M148.5,2c1.9-0.9-2.6-1.1-4.6-1.6c-14.1-4.4-27.3,27-42.5,31.7c-4.4,1-16-5.5,1.6-17.6c1.5-1,1-2.6-1.2-1.7
				C74,20.9,20.3-1.7,0,0.6c38.6,21.3,108.8,46.1,64.3,55.8c12.5,2.1,17.1,0.7,17.1,0.7c-11,9.1-36.8,19.1-52.2,24.6
				c-1.5,0.5-4.4,1.8,0.3,1.3C127.5,59.8,104.7,21.8,148.5,2z"/>
</svg>