<?xml version="1.0" encoding="UTF-8" standalone="no"?>
<!DOCTYPE svg PUBLIC "-//W3C//DTD SVG 1.1//EN" "http://www.w3.org/Graphics/SVG/1.1/DTD/svg11.dtd">
<svg xmlns="http://www.w3.org/2000/svg" version="1.1" viewBox="0.00 0.00 221.00 32.00">
<path fill="#ff0000" d="
  M 203.65 25.25
  Q 207.73 28.91 212.80 30.92
  Q 214.53 31.60 212.68 31.70
  C 207.33 31.98 203.14 30.23 197.98 26.78
  Q 196.11 25.53 191.64 25.40
  A 0.25 0.25 0.0 0 1 191.39 25.14
  L 191.39 24.87
  A 0.37 0.37 0.0 0 1 191.76 24.50
  L 201.54 24.51
  Q 202.42 24.51 201.80 23.90
  L 200.06 22.18
  A 1.80 1.67 -22.4 0 0 198.77 21.70
  Q 198.04 21.72 195.40 21.08
  C 185.77 18.73 183.05 8.00 189.06 0.65
  Q 189.41 0.23 189.54 0.76
  Q 192.38 11.89 199.35 20.87
  C 200.49 22.33 205.17 21.95 206.93 23.40
  Q 209.50 25.53 206.23 24.88
  Q 205.03 24.65 203.82 24.74
  Q 203.14 24.80 203.65 25.25
  Z"
/>
<circle fill="#ff0000" cx="40.62" cy="6.13" r="2.50"/>
<path fill="#ff0000" d="
  M 112.69 15.26
  C 110.87 21.25 116.78 27.48 121.41 21.33
  Q 121.75 20.87 122.15 21.28
  L 122.76 21.92
  Q 123.13 22.30 122.85 22.75
  C 120.95 25.80 116.31 26.49 113.53 24.71
  C 107.76 21.02 109.16 10.22 116.68 9.50
  Q 120.25 9.15 122.71 12.10
  A 0.74 0.73 48.8 0 1 122.65 13.11
  L 122.03 13.70
  Q 121.48 14.22 121.12 13.55
  C 118.99 9.55 113.84 11.50 112.69 15.26
  Z"
/>
<path fill="#ff0000" d="
  M 15.39 15.46
  Q 16.53 15.36 15.81 14.48
  L 15.42 14.01
  A 2.17 2.14 -17.8 0 0 13.90 13.24
  Q 11.57 13.09 9.68 14.45
  Q 9.47 14.61 9.35 14.37
  L 8.04 11.73
  A 0.30 0.29 -28.4 0 1 8.16 11.34
  C 12.37 8.93 20.64 8.41 20.49 15.25
  Q 20.37 20.19 20.62 25.11
  Q 20.64 25.60 20.16 25.70
  Q 18.27 26.09 16.67 25.09
  Q 16.27 24.84 15.84 25.05
  C 7.09 29.35 3.58 17.69 10.99 15.98
  Q 12.00 15.74 15.39 15.46
  Z
  M 16.15 21.21
  L 15.89 19.23
  A 0.74 0.74 0.0 0 0 15.06 18.59
  L 13.37 18.82
  A 2.12 1.54 -7.5 0 0 11.47 20.62
  L 11.53 21.02
  A 2.12 1.54 -7.5 0 0 13.83 22.27
  L 15.51 22.04
  A 0.74 0.74 0.0 0 0 16.15 21.21
  Z"
/>
<path fill="#ff0000" d="
  M 53.44 14.52
  L 53.21 14.11
  A 1.71 1.70 -12.2 0 0 51.88 13.26
  Q 49.52 13.04 47.49 14.22
  Q 47.01 14.50 46.77 14.00
  L 45.76 11.97
  Q 45.49 11.41 46.04 11.13
  C 50.24 8.94 58.04 8.42 57.96 15.22
  Q 57.90 20.17 58.21 25.10
  Q 58.24 25.57 57.79 25.68
  Q 55.87 26.14 54.34 25.03
  Q 53.91 24.71 53.45 24.98
  C 44.79 29.90 39.11 15.61 52.88 15.50
  Q 53.99 15.49 53.44 14.52
  Z
  M 49.57 19.49
  A 1.26 1.25 -37.4 0 0 49.30 21.47
  Q 50.84 23.00 53.05 21.91
  Q 53.49 21.70 53.49 21.21
  L 53.51 19.27
  Q 53.52 18.77 53.02 18.73
  Q 51.17 18.57 49.57 19.49
  Z"
/>
<path fill="#ff0000" d="
  M 65.20 10.95
  C 68.07 9.93 71.12 8.60 73.50 11.26
  C 75.62 13.62 74.77 22.16 74.73 25.28
  Q 74.73 25.73 74.27 25.73
  L 71.01 25.74
  Q 70.52 25.75 70.52 25.26
  L 70.46 15.44
  A 1.94 1.94 0.0 0 0 67.94 13.60
  L 67.31 13.81
  Q 65.00 14.54 65.00 16.96
  L 65.00 25.25
  Q 65.00 25.76 64.49 25.75
  L 60.99 25.73
  Q 60.50 25.73 60.50 25.24
  L 60.50 10.55
  Q 60.50 10.15 60.88 10.07
  Q 62.86 9.63 64.41 10.82
  Q 64.77 11.10 65.20 10.95
  Z"
/>
<path fill="#ff0000" d="
  M 88.99 14.04
  Q 88.99 14.40 88.66 14.26
  C 77.54 9.40 79.14 26.39 88.07 21.35
  Q 88.64 21.03 88.86 21.65
  L 89.65 23.85
  Q 89.85 24.41 89.32 24.69
  C 85.26 26.87 79.22 26.60 77.26 21.72
  C 74.04 13.67 80.85 7.31 88.75 10.62
  Q 89.00 10.72 89.00 10.99
  L 88.99 14.04
  Z"
/>
<path fill="#ff0000" d="
  M 99.26 14.91
  C 99.01 12.31 94.78 13.33 93.48 14.13
  Q 92.80 14.55 92.45 13.84
  L 91.60 12.15
  Q 91.24 11.45 91.94 11.08
  C 94.96 9.50 101.46 8.54 103.30 12.40
  C 104.49 14.90 103.72 21.99 104.05 25.21
  Q 104.09 25.60 103.71 25.68
  Q 101.64 26.15 100.02 24.99
  Q 99.56 24.66 99.10 24.97
  C 96.20 26.88 91.45 26.18 90.71 22.23
  C 89.57 16.11 94.44 15.83 98.80 15.46
  Q 99.31 15.42 99.26 14.91
  Z
  M 99.36 21.30
  L 99.16 19.31
  A 0.73 0.73 0.0 0 0 98.36 18.66
  L 97.17 18.78
  A 2.56 1.65 -5.8 0 0 94.79 20.68
  L 94.81 20.84
  A 2.56 1.65 -5.8 0 0 97.52 22.22
  L 98.71 22.10
  A 0.73 0.73 0.0 0 0 99.36 21.30
  Z"
/>
<path fill="#ff0000" d="
  M 133.46 24.24
  C 125.48 29.89 118.70 15.73 133.64 15.76
  Q 134.11 15.76 134.20 15.30
  C 135.05 10.69 129.10 10.95 126.53 12.70
  A 0.29 0.29 0.0 0 1 126.14 12.63
  L 125.30 11.50
  Q 125.13 11.26 125.39 11.11
  Q 129.80 8.61 133.94 10.31
  C 137.50 11.78 136.60 21.78 136.46 24.86
  A 0.53 0.52 7.7 0 1 135.81 25.35
  Q 134.85 25.13 134.30 24.38
  Q 133.95 23.90 133.46 24.24
  Z
  M 127.66 22.07
  C 128.97 24.95 133.18 23.20 134.37 21.32
  C 135.00 20.32 134.75 18.99 134.75 17.82
  Q 134.74 17.35 134.28 17.32
  C 131.27 17.08 125.78 17.95 127.66 22.07
  Z"
/>
<path fill="#ff0000" d="
  M 142.99 11.72
  Q 144.90 9.29 148.03 9.81
  Q 148.23 9.84 148.19 10.04
  L 147.92 11.52
  A 0.35 0.34 -83.5 0 1 147.56 11.81
  C 140.78 11.35 142.50 20.90 142.50 24.80
  Q 142.50 25.24 142.06 25.24
  L 140.76 25.25
  Q 140.25 25.26 140.25 24.75
  L 140.25 10.50
  Q 140.25 10.00 140.75 10.00
  L 141.47 10.01
  Q 141.94 10.01 142.15 10.44
  Q 142.42 10.99 142.48 11.57
  Q 142.56 12.27 142.99 11.72
  Z"
/>
<path fill="#ff0000" d="
  M 160.12 22.83
  Q 158.33 25.19 154.99 24.87
  C 147.12 24.12 147.00 12.25 153.69 10.00
  Q 157.02 8.89 160.06 11.58
  A 0.32 0.32 0.0 0 0 160.59 11.30
  L 160.52 10.81
  Q 160.42 10.04 161.19 10.02
  L 161.96 10.00
  Q 162.46 9.99 162.47 10.49
  Q 162.56 17.25 162.53 23.99
  C 162.50 30.92 155.14 32.50 150.20 29.54
  Q 149.73 29.25 149.91 28.73
  L 150.16 28.05
  Q 150.38 27.45 150.96 27.73
  C 155.80 30.08 160.53 29.54 160.39 22.92
  Q 160.38 22.48 160.12 22.83
  Z
  M 155.6663 23.2082
  A 5.88 4.65 91.4 0 0 160.4586 17.4436
  A 5.88 4.65 91.4 0 0 155.9537 11.4518
  A 5.88 4.65 91.4 0 0 151.1614 17.2164
  A 5.88 4.65 91.4 0 0 155.6663 23.2082
  Z"
/>
<path fill="#ff0000" d="
  M 179.3873 18.9658
  A 6.30 6.30 0.0 0 1 173.1648 25.3423
  L 172.0048 25.3565
  A 6.30 6.30 0.0 0 1 165.6284 19.1339
  L 165.5927 16.2142
  A 6.30 6.30 0.0 0 1 171.8152 9.8377
  L 172.9752 9.8235
  A 6.30 6.30 0.0 0 1 179.3516 16.0461
  L 179.3873 18.9658
  Z
  M 172.4693 23.7000
  A 6.15 4.87 90.1 0 0 177.3500 17.5585
  A 6.15 4.87 90.1 0 0 172.4907 11.4000
  A 6.15 4.87 90.1 0 0 167.6100 17.5415
  A 6.15 4.87 90.1 0 0 172.4693 23.7000
  Z"
/>
<path fill="#ff0000" d="
  M 29.14 19.00
  A 0.29 0.29 0.0 0 0 29.68 19.00
  L 32.92 10.23
  Q 33.00 10.00 33.25 10.00
  L 37.22 10.01
  A 0.18 0.18 0.0 0 1 37.38 10.26
  L 31.19 25.15
  Q 31.02 25.55 30.60 25.68
  C 28.92 26.18 27.64 25.38 26.96 23.74
  Q 24.16 17.00 21.43 10.27
  A 0.17 0.17 0.0 0 1 21.59 10.03
  L 25.50 9.99
  Q 25.80 9.98 25.91 10.27
  L 29.14 19.00
  Z"
/>
<rect fill="#ff0000" x="38.50" y="10.00" width="4.24" height="15.74" rx="0.41"/>
</svg>
