<svg xmlns="http://www.w3.org/2000/svg" viewBox="0 0 566.93 65.43"><defs><style>.cls-1{fill:#ec6a18;fill-rule:evenodd;}</style></defs><path class="cls-1" d="M232.58,0V63.45l29.52.32,64.26-50.72c-26.42,0-48.44,5.54-61.33,23.16a33.51,33.51,0,0,1,13.87,9.95C269,45.34,261,48.44,256.23,57.25c.49-28.87-8.32-46.81-23.65-57.25Zm-168,47.05c-2.18,14.76,22.49,18.51,32.8,18.38,17.68-.22,48.45-11.83,49.07-30.28.43-13.1-20.91-16.53-30.28-16.55C98,18.55,67.21,29.31,64.57,47.05Zm37.08,5.8c-3.92-.11-5.62-3-5.34-6.7.52-6.88,8.3-16.47,15.87-16.22,3.95.14,5.63,3.22,5.32,6.9-.56,6.9-8.43,16.24-15.85,16ZM68,35.07c-19.57-6.85-34.6-1.86-37.84,9.13-2.35,8,9.63,9.13,30.34,2.61L52,60.51c-13,6-52,9.64-52-11.83,0-20.36,27.66-29.6,44.5-30a73.12,73.12,0,0,1,31.18,5.95L68,35.07Zm67.36,28.7,30.5.65C170.76,55.29,177.61,47,185.12,39c4.07-4.4,17-11.74,9.13.82l-15.5,24.3h30.34l14.52-24c9.24-15.26,2.28-21.36-13.54-21l-47.46,1L135.37,63.77ZM403.08,17.13a214.34,214.34,0,0,1,26.68,2.28L402.85,63.77l-29.52-.16,5-10.06c-7.2,5.11-22.64,9.62-31.5,9.48-9.6-.16-12.26-6.69-10.93-13.84,4.8-25.7,44.9-32.32,67.15-32.06ZM487,25c-6.12-4.45-18.49-6.05-25.26-6.38-16.2-.78-34.2,2.77-37.7,13.4-1.32,4,1.5,7.93,6.2,12.23,6.56,6,7.16,10.09-4.08,8.48a20.38,20.38,0,0,1-9.62-4.4l-7.5,10.92a69.21,69.21,0,0,0,26.73,5.93c13.45.26,27-3.21,33.94-13.75,2.51-3.79-2.43-8.25-9.13-12.56-12.55-8.09-3.75-12.56,16.8-6L487,25ZM379.36,33.27c-7.5,4.57-14.18,13-10.76,17.62,2.12,1.46,6.36-1,10.76-4.57,6.69-5.38,13.38-13.7,11.75-15.66-3.1-1.3-7.5,0-11.75,2.61ZM322.28,63.61H291.94l27.57-44.2h29l-26.26,44.2ZM516.53,46.32c6.69-5.38,13.37-13.7,11.74-15.66-2.93-1.3-7.5,0-11.74,2.61-7.5,4.57-14.19,13-10.76,17.62,2.12,1.46,6.52-1,10.76-4.57ZM535.7,17.11a183.42,183.42,0,0,1,31.23,2.3L540,63.77l-29.52-.16,5.38-10.44c-12,7.47-21.63,10.46-28.76,10.47-7.71,0-14.95-3.81-14.53-12.61,1.19-24.91,43.8-33.56,63.11-33.92Z"/></svg>